<mxfile host="Electron" agent="Mozilla/5.0 (Windows NT 10.0; Win64; x64) AppleWebKit/537.36 (KHTML, like Gecko) draw.io/27.0.9 Chrome/134.0.6998.205 Electron/35.4.0 Safari/537.36" version="27.0.9">
  <diagram name="PÃ¡gina-1" id="IKVGy_DopQR0RWY-qbrC">
    <mxGraphModel dx="119" dy="1830" grid="1" gridSize="10" guides="1" tooltips="1" connect="1" arrows="1" fold="1" page="1" pageScale="1" pageWidth="827" pageHeight="1169" math="0" shadow="0">
      <root>
        <mxCell id="0" />
        <mxCell id="1" parent="0" />
        <mxCell id="YVywVn5LHDsO3u2Q0wn3-22" value="" style="endArrow=none;html=1;rounded=0;exitX=0.69;exitY=0.975;exitDx=0;exitDy=0;exitPerimeter=0;" parent="1" source="vLlzIB-tp__e5FBe9is8-10" target="YVywVn5LHDsO3u2Q0wn3-23" edge="1">
          <mxGeometry relative="1" as="geometry">
            <mxPoint x="1760" y="315" as="sourcePoint" />
            <mxPoint x="1820" y="315" as="targetPoint" />
          </mxGeometry>
        </mxCell>
        <mxCell id="tby80TmxBhAo45sjsNx7-99" value="" style="shape=image;verticalLabelPosition=bottom;labelBackgroundColor=default;verticalAlign=top;aspect=fixed;imageAspect=0;image=data:image/png,iVBORw0KGgoAAAANSUhEUgAAAtEAAAE1CAYAAAAh9LwOAAAAAXNSR0IArs4c6QAAAARnQU1BAACxjwv8YQUAAAAJcEhZcwAADsMAAA7DAcdvqGQAAP+lSURBVHhe7J15WFTV/8ffs7AvAiqJpKDimOaGkvtOytdyrRS/moopShbulku5oEZqZmmlZG4pLpT5dQVTE1ARcEM2wQBZZHeYQdaBuffz+2OGbZi5A4hl/e7reXweuffccz7ns51z7z1nroCICDw8PDw8PDw8PDw8DUaoeYCHh4eHh4eHh4eHhxt+Es3Dw8PDw8PDw8PTSPhJNA8PDw8PDw8PD08j4SfRPDw8PDw8PDw8PI2En0Tz8PDw8PDw8PDwNBJ+Es3zD4ZFUUoMkuSs5gkeHh4eHh4enheKoNE/cafMxO3z53D88DFE5jEgYUu8NqAbWgsqUZyXjPikp1A6TMfewwvRTQyg9AbWv/kuvskciK2XTsHrNZFmjc0Dm4ETc9/Eh2dN4XH0KnaOtdEsUQsWGSfm4s0Pz8LU4yiu7hwLrtLaYZFz7Wt88vleXLj/BMpWfTFl/V7s+qAHTAEACiSf3oRPfnyEV9qXIPKuEd76/Ct8NrEjDDWr0kopEi8fw/FjAbjyqBRCY2u0thKBEbZGj/94YOHswbATa17z/wcm4w988/kn8D1Zig+uRWHbgIZp9e9EkXkd/vt+QUROJQRMOSpNu8DtgwV4r5c1hADYvNsIOHQYJwOjILUaDZ8D6zHCuub6ipRgHDtxFCcv5aLjeHf8d8p/McRBHU9FCTh/4AD+dycHrLEpjI0s4TBoEt5zyEK0zSRM7vr/2Fl4eHh4eHheBNQkyumad0cSAQSjsbSvoOp4GSX/Mpe69/6UwhXqQ9IT5N5aSAKD12jFjaqDL4DKB+TzhgkJBJY05vvHpNQ8X4dKeuDzBpkIBGQ55nt6zF1YK8+u76CPP9lFxwMO0vpJnchIABIYDyTfeFVlz64uptcMxdR5SSgpmCe0x82chEZdadFlmWZVnBSfmkGtRDY041QZEZXR47OLqI+ZIbV/7xAlNUHuvwIm7w7d/guEU9xYRhKj12jlrRfoV82CgpJPfkh9nUbQ2oupVE5EREqS3t5D7l2d6O3tt6jGKyopef8kshOJyf7dw5SiqcaS/9EHg5ZSaK0uP7v9Lb0jcaIx687Sn0WM6iAjoxj/j8nF2p7mXlC1yMPDw8PDw9N8NHE5hwAGBmII6hxTIDenFI7vfIFPx1rWnLNxx4G7d3EzKgS+g1/g00JxT6y9dB9hEffx60JHcD/vFqPn2ku4HxaB+78uhCN3YS0wKGozCb5bvTFtigc2HNqCiVZCkLIQ8mcMABnOfn8YiRUCtGpjB5HwFQweKIFIkYCfthxCCqNZn27EVi1gLgBUCjWG4/gt+Pwdazw57YNvb1RoFn8JKEHEt+tw6JFS80SzI7KygmVdJ3wpKb6+Du988AvsV/8Mn7EOMAIAiGDj4oWffngLf655F3N/ToPKLcRo378vOr9ig8L/LcKMLREorl2ZqAWsXrGEhTpy2Yxj8Jy8Cn9OOIBfN46Hk7n6hNAK3ad/i1+3D4FAVlm7Bh4eHh4eHp5moImTaC1U3MaRI/dQKbTFRO856CoGwBYi8UYQQmKzIU9PwJ8FtdeuFuHhxR/x5aat+PFCPAoBAKVIjbiEwMBABAaFIE7KoCTxPL7z/R5X0qtmnoVIDNqPbRvXY/PuU7gvZQEwyLp7CZfCUyB7+icepitqmilMRND+bdi4fjN2n7oPKQswWXdx6VI4UmRP8efDdNSUZiF98D/s8d0In+0HEJRYBO2rbUVo69QR5uq/2OICyCtN0W32Bix0MQSUT/BnagkIAMNUAhDD0fFViASEstvBuF6kvi4/HIe3bsXh8Hwd7WjDGB062EHESpGbq56olqYjJiEfTHkWHkQmoKB6ks5AlnIH10PDkZBXNeFmIY0LRlBgIAIDA3EpIhWlAFCaiohLgQgMCkactEqaUmTF3ERw6F2kFWlKWIG8hFsIDo5AkkzdIJuP8F2z8f6OSKRG/Y6ga7HIr7qMkSHlznWEhiegWpQqWDmSI0JwPSodhdIsZJdonK+DEgVJkQgJvY+MMs1z0CMzALDIjrqMoMBABF1PgLzKHwIDEXgpHI9Lq8qVID0mEVIWqMiNQ1hYPPI07guU0keIuHYVwbdTINd1Y8Sm4+dNPyDW/C3MmdquXsCZD5mDaa/n4+zmnbhZ7YgCtJy8Hd9PtcKdze9j8elsHf5RhN83r8GpwpHwXjYYFpqnIYTDzHWY371xK7Z4eHh4eHh49KM5pjcNYpB7bj9+S1HNMizs7FRPyoQt4NA6BlvfeRtvjZuDPdHqJ2JMGgLm9sOwLdkY5dEPDz8djKGLLiCPNUUb61hsf/dtvDVuJr4+uh0Thk7CojVLsXxfNMBm4rf5gzB4QzqGvGON4NVTMWjIUlwuFOGV9sU44Tkeb701AavPSsECYDN/w/xBg7EhfQjesQ7G6qmDMGTpZRS/0h7FJzwx/q23MGH1WajmjEo8OuiOvgOXINzJA3O6hOHjPj3wnl9crUm2JhXIe3AKG+Zsxh8KM9hYq54xQtgKti1FEIBF7pMsKAGITExgBIAq5ZA9YwEocG29O+auWoW5Uz7HVd2N1IXNw+17qWBM+2CgcyHCDyzGSCcJRm/Yi63vDcGggf0w54gUkIfjGw93rAqIQXriWSwf2g1uPteQzwphYl6Cy59Pxbjpe5Bq2xrGAGDcEqKbm7HmfAmszIVgs4OwyXM5/EKicfvkcgyRDMPaK2q95gdjyywPfHUlDXnRuzFB4gLvM9lQyrMgNbGGOctCUSKHvLAUSgDy8G/g4b4KATHpSDy7HEO7ucHnmvrGoSIauzy8cSxDifL4A5gx4D38lKrjKXZpDH6c6YZ5+6OQmXQOa7z98KjW5JVL5hqEsGn/KnJ/no+JnvsRrwRENu1gm7gLMyYsQ0BWJfIjD2PJSCdIxvri+P75cHt7Oma+3Rs9JvkhiQEABilHZ2PAu9/iwdMchPm6QTJkI25VT8Br8SwEl28VQyjphd6qxfJ1EUvQ+3ULsKnXcDm+Vr+FbTHV7xhWO+fhsOcs7IrV4iCl13DyTAYEXQdjiK2OUDbshjd61Z9e8/Dw8PDw8Dwnmus7GoaCbiyTkBggiJ1ozMzR1MlUTPaeger1nrUoOU7vmQsIoo7kfa2ciBjKOz6VbIWGNHxnKjFURhfm2pHIsB9tjlUSlZ2mmS2FBIEJObyzm27f86clk93J9/ozkp2eTfYiA3pjUxwplQ9p62ATEhj2oy3xSqLKaNrQ14AAQxq1O5MYktHp2fYkMniDNsUpSflwKw02EZBhvy0Ur6yk6A19yQAgw1G7KZMhYrIP0+SWQhK0mEoni0klRyshCVqMJb909TpTTZRpdHXXEnpLYk5CgCBsQW/uTiIihjL9p1JbkYDEry2hkCKiZ4cmkLEAJDCfTD/LiYiUlHp0JklatCDJ+0d0rssuv7qQHMVmNHDpETp92p92zHuDWrZ4jab9GENlRERMGu0cYUgmPRbT73kyirsSRA+kUrq4QEJdl4SoyhBRyY3l1NXQjqadyCGGiEpClpDEqCutDFNbjMmhwzOn0d50hojJpeMzRtKqqoXtTBrtHG5IBs7r6L4im465O5Hb92nEEBFVxtL24TbUdvZpKiYiJus7cjW2p3kX1fXKLtICSVdaElItCd1Y3pUM7abRiRyGFGErVGvoVZ2hHP/NtDuuUl22NiV0Y2VP6jjnTPX64eLzc8neQL0mmkvmetUpKX5zPzLusoJuqosrbq6gLiYD6cs/lUSkpOTtg8nQ0oUWn0khBRHJf51BtkZDaHuykkj5kL7ob0p9N8ZQJRFVRq6m7sa9aV39hkiZtI0GG4CMxu6j6q0DdVDvLxDV6KwydjNN9r5M5USkTDlM770qJpMeS+iylCEqv0bLJq+n+5VEzOMdNNQAZDRmL+Vp1Pos9hztXvYuDR88mIZNXkY/XEvVKMHDw8PDw8PzPOh4fNUIRJ0x5ZuL+MPvXbTVWhuh7svkclw/dwVPWRbZ13Zjzap1OB5dBqqMxe27tR/lidB7wgy4OE/Hzt9OYNUQEYJ/u4BsRgAzC3MIRK9h+ek7uBnxG5Z31bKouTQYv13IBiMwg4W5AKLXluP0nZuI+G05tBUv+uMMrhawELZoCRsxAIElLM0FoGfXERj8TLO4ClF7jPLeiQuRl7FucAsI2We4ceEqACHaTt+PS0fXYFrHWOxc/jnWHL6FChLAoHs/9DMHABEcZvyMRLkciUfe17Mu2xD23XrC3uYV9Jq5B7fTYnHcs7vqCbLQBCaGQli6uGJoayt0c3VDT1zAvhMZcOrlrCoDwLS/OyZJnuL8sUDIAZgO9sbHQzJx+OtTyGUBJi0AFwwmY0o7IVAajNNBmXh0fgd8fX3hu9UfZW4b4DOrL0xkgTgeZARnlzaq1xji17EiWIrMQ5NgVkdmFQXn9uFEhhN6OVdLgv7ukyB5eh7HAuUQ20vgkPY1JgybjS9OxcHAfS0+7qbllySKg7DnUAp6jBgJK/Uh4w6OsKvSG5fMtappGCKYm5tBZNEbbm4dYAjATNIZ7YSFkBcQIJLA63Ao/L0dkRF8AFsPhkPGKlBWXn/RhcDCEuZCAaisBFpXlwCorKgABBawtq6/wFvUYRb2+a9At8ffwWPe4brr6U3NYCoUgJVLIdVYTmLx+jh8uOANVERG4KlkKuaOcKhbgIeHh4eHh+e50DrtbTQCMdpP/QhTOlZNfkqRmpKtUaiKYuQ9LQYLAVoOmo8tX27DkUgZGLYE/5tV67WzsAVeaVP7/XcJcnOLwIJFfk6OaolE624Y2NtevVFLg5Jc5BaxAJuPnBwlABFadxuI3vbaSrN4ll+AcgIEhoYwFKBqJx9AFZBLn+lYk6qmxQCs8p0DJzFA1VsqzdF92mYcuXAZp3+YiXaKQpDAAsPfnwYnzgmzNgQwainBG8Nc4TqsLzq00KhAY+7F5KbjSSmLiorymoNiRzjYC1Ehl+EZC0DUEbOWToHxha+xN6YccUev4ZVp42ADgC3Kh7TMCF0nrcTq1aur/61aMgFOhXl4Wi5Hgawh62wZ5KY/QSlbgbqiOMBeWAG57BnQfi6OXN4Ld4sQbJnaB10GLcbp6vXvNTAZCfhTDojE2l2WS+YuWubk+hAI6ipVIBJBAAJLACCEuCwKuzy9cCCrFz7wGgU7oXZ9CG36o19XMZikeDzUtr+PLcTjVCnQqj8Gd9e+8dZq2Cac2Pk26Nxi/HfzPdUadgBCm4EY0F0M5cMw3KhefF6DwNwMJgIBTMzMmynQeXh4eHh4eKpovrHVsB9mzeoDAwBs1ikcPJOrWUKNGVq3NIMQDBLu3FFvKNSGEMI6c0UztGljCSEYJIUGI7X+PKsuZm3QxlIIMEkIDU5V//KBLlTrZFsIAWJZ9USpHIpKAEILtG3Xsq6i2AJE/Pw1Dt7MrZ5cG0gkaC8Uo3v//rVLAgCKr3+P/ZFKmPdbji1za/1yCCtHUmQkkgvrT4CeB1HbzuhkySDuzt3qCRfYCigqhHi1lzPs1J1p4bYEC3o+xL4vffD9vdfx/kjVTYvQsi3sTBMQsP8qZNW1MkgJvIC4lu1hb5KLwJOXUFBdtxSBfv5IrKdkEdp27gRLJg53ar1lYCsUqBC+il7OdqCMWDxp54FdVxMQd24NeqbvgfeWK/XWoQtsWsFGXI7Yu1Ea5wgsyy1ztJYl1iKxCCBW4y0Jger1QQvFF7F04hpIp3yHTdP7wrZqkq5tHi3ugTleb6JFThB+uVLf29mcszgbIUTvBR/jP1U7VeshhtMHB3BkUUfEbl8L/yfqhsTd4bl0ItqUXoXf3gf1dMbDw8PDw8Pz4mjyJJpl1RM/UqKyggVghFfa2EBYHIO9C33wwLrq9bFA40GpCYZNGI1WQhbyCzvgGywFCxZZF3fh8P0KAFWTWBbKOk/uTDHKfRLaiQBFxA/Y9FsmGAClDy8gMK6iejIFAMQygOkouE9qBxEUiPhhE37LZACU4uGFQMRVqCbL6sJgAJiNno0pHcSgglzkVgIofwppIQvRq5Pw3zfrLlRg8wOwbsEKzB09FFO2X0aKNAs39pxAlP10rPHqXqes4tFReHn+iLxeH+HngLV4o2pVA5S4vXEUeg4YgJ6uPrijZaIHAFBUoJIqoVBwTLQJUFbWqqDFOCzy6gHZqZ04kKj6KQw25zKCMwZj0cKhNU/uxd3guWQcKn/5BnED30ffqsmg2WjMmd4BqX7uGDHDBz8FnMJh33n4NMwMHVuOxZyp7ZBzZAHeWfIDAn7zx46PPBAgHgQnESA0NoYRniE7qwD5ETeQNmoRvHrIcGrnAahEYZFzORgZgxdh4VAjMBkB2OZ3D6UwhuNba/D5FEeYGhlrPlyHsPV4zBzXCin7l2LN+XRUQIG0e7HIY2TITMtBoYBD5npPokWwtW8Dw8xw/H4vF3kPL2DPoZuQKvOR8fgpispZMIwSxFY9eQZABBALlmXBFiYjJbcY6YmPUVyegZBzt5DNlKIwOwoRsXV+kA6ACB3m7YXfHEuc/mQlzmTWmqUX3cd3C3zx55hdOLLapcYuFRUoVSjqzsmFNhjlewJfjWkBRUXVGSHs//sdDi7vieSv3sdHJ5JQ64E/QJpLqXh4eHh4eHiaDc1F0nqpfEKR/9tDc3sYk0C9ma7nO4vok09X0KK5k2lgezMSiDvRomD1jq2SkzS1Re2NhaoNeb9+2JusRAISGLemLv1G0we7I+kZlVDir/PodQMBQWBEPeYdpShprU19TB5d+Xw4tTEQkMDAmjr1HUlT1p2ndEZJqZdX03BrIQEiajtuG93MZojJu0KfD29DBgIBGVh3or4jp9C68+lUkXqZVg+3JiFAorbjaNvNbCJiqOD6FhrT3o6GfXKQDq4YSm3au9HmEKlqA11tKqPpm9FtyEAAAkAQGJH9kIV0JK5EXYChosc36OiGmTSi3yia43uekqr21VWjoIi1vchYICAT588pst6etBJKuHKANkxwILFARG1GraS952NIXrsII6V7x1fTm3YiEtm70drjd+hplbCVqXR27QTq6zyCpnl+SB/M9KKvQ3Lr96U8hJb0HU8/ZmqcKYmno96jyMnaiAwt29Pg+Ycotqp7JfHk7z2KJK0tqIW9C03fcZ3yqi5XJtHB/0rIuqWEJu0IpyIiqkw9S2sn9CXnEdPI88MPaKbX1xSSq7pAcXMNDerUm970+IQ2+Kyi+fN96WpOPSmJiIiRRdL3HgPIwdqKHF3G08cb5tKADgNp+mcH6VY2wy2zJs9u0ObR7cnS0p6cp2yjaxdXUt/Ow2n2hqN0LfQXWuNqSyIDCU3bcZHiEq/TgUWDyEpoSs7z9tGNjAw6vagftbGwpk7D5tGeaz+Th4MVdRy3jW7VMVAtmAK6d/hTmjZuEs2Yu4AWzJtF702cSkv23qSc6k2lSkq/eYy+mvk6mTmMp/X7L1OihvxMXiAtnbFFY7NkGSUH7qCFE0fQyImzyGvxMlqycA69N/ZtmvXZfgpNr7fdl4eHh4eHh+c5afxnvxtL+W94334K/J91xJI/4rBzaNW6TwaFj+/jQboStl2d8ZqttrXK2inJiMK95BJYS5zRva223w2rTQkyou4hucQaEufu0FtckYv4u/HIFbTB6327wlb7MlWALUZ69D38WSCAVYce6N3Bqu4yjbuJKHvlNXRr30L3h19YGR7dfgRhlzfgZNXklwLPBZu+Fx5bWuNbv3dR6wvTPDw8PDw8PDw8HDR6Eq254YqnaTRS7c0Mg+KCZxBbGeDO2tk495Y/tg6tXmfCw8PDw8PDw8Ojh7/n8SfP34oyegtG2NnCts1rWFQwC0sH8xNoHh4eHh4eHp7G0Ogn0Q2HQW74MRwOfARFqz6YNHMievxNSxZ4NFCm4dJef8S2GoNZU13QmjcLDw8PDw8PD0+jeIGTaB4eHh4eHh4eHp5/J/wzSB4eHh4eHh4eHp5Gwk+ieXh4eHh4eHh4eBoJP4nm4eHh4eHh4eHhaST8JJqHh4eHh4eHh4enkfCTaB4eHh4eHh4eHp5Gwk+ieXh4eHh4eHh4eBoJP4nm4eHh4eHh4eHhaST8JJqHh4eHh4eHh4enkfCTaB4eHh4eHh4eHp5Gwk+ieXh4eHh4eHh4eBoJP4nm4eHh4eHh4eHhaST8JJqHh4eHh4eHh4enkfCTaB4eHh4eHh4eHp5Gwk+ieXh4eHh4eHh4eBoJP4nm4eHh4eHh4eHhaST8JJqHh4eHh4eHh4enkfCTaB4eHh4eHh4eHp5Gwk+ieXh4eHh4eHh4eBoJP4nm4eHh4eHh4eHhaST8JPpFwhYhJSYJclbzxEtIeSZiHuaiQaIyMjyKeYwSzeP/j2BkjxDz+GXSAIuilBgkNZOzsUUpiEmSN8wf/rWUIzPmIXJrKaE8MwYPax94mWlMTP9llCDt/gNklGsebwzNUccL5O/O+393+zx/Ey9TXGiORy+TbM1LoyfRbHY4Tn67BO8MH4IhQ8dj4VdHcT2NUZ9VIOmPA9g87z8Y6joDn+27iiSFRgXNhCLzOg5sWIQFXh/Cy3MO5i7+EgEPZNUDBpt3Gye2fYzJI4dg2OSNCJbVvb4iJRiHvpiHscPH46OvjuJGdR8AFCXg/LefYN7MWfjA0wsLP/4EW4+FIfnmrzj9UFm7Gh0wyPhjBzz6dcDr7j8ioSGX/F2wctw/ugyuTk4YsfkGKjTP14FB2h87MKtPB/Sc64/aKvt/A5OGP3bMQp8OPTHXPw0vgwqYjD+ww6MfOrzujh+f19mYDPyxwwP9OrwO9x8T8Jy1/UNhIb9/FMtcneA0YjNuVACs/D6OLnOFk9MIbL7BHSV/O42K6b8WNvVHzBo4CJ6Hc5o8uW+OOl4Mf3fe/7vb52l22Fyc/GgEhgwbhTFj38JbbqMwbMhQjBzzFt56yw2jhg3B0HHqHPWSxIW28ehlke2FQE1BGUeb3zAgsWQZ3VBoniQqOz+P+sw7TyWaJ5oFBSWf/JD6Oo2gtRdTqZyIiJQkvb2H3Ls60dvbb5GsumwlJe+fRHYiMdm/e5hSlLWqISIq+R99MGgphdbqw7Pb39I7Eicas+4s/VnEqA4yMorx/5hcrO1p7gVVi/pR0I1lEjJ6bSXd0qKjlwomnb4daUTW03+lMs1z9SinPz5yJCOXTRSnqc//L5T/QR85GpHLpjh6WVSguLGMJEav0crmcDbFDVomMaLXVt6ihtTG5N2h20kviyaaC4bSvx1JRtbT6Vd1UDDp39JII2uaXnXgZaZRMf1XUkyp96Io/bmEao46amhe/33evM9Q3p3b1HRxnrd9ngbD5NGd20kvdgxQxpHvf+fSyRTVvENxfSlJxBY05YRqdlWZG0rr3/KkgBJq9rh4HuqPRy+PbM1No59EAwAErdDSWgCBhRWstNQgbGGNV1u1hFjzRDNQfH0d3vngF9iv/hk+Yx1gBAAQwcbFCz/98Bb+XPMu5v5c9YRQjPb9+6LzKzYo/N8izNgSgeLalYlawOoVS1io+8BmHIPn5FX4c8IB/LpxPJzM1SeEVug+/Vv8un0IBLLK2jVwIIKVlSUEmodfRoSWsDBrqKQimFmYNf4Vxr8JkRkszF4uDYisrGDZUBPqQ2QFqwZXVoKIb9fh0KN/22MvISwtzOrEr9DSAg0Ok7+bRsX0X4kZHJx7oZ2x5vHG0Bx1VNHc/vuceb8kAt+uO4Smi/Oc7fM0mJKIb7Hu0KMX/LZODOfZK/BOB9VMRxOx7VCsWDYRrYBmjovno/549PLI1tz8RTOBEqTHJELKAhW5cQgLi0eehucppY8Qce0qgm+nQK7rHTmbjp83/YBY87cwZ2q7esKbD5mDaa/n4+zmnbhZvYxEgJaTt+P7qVa4s/l9LD6dreN1QhF+37wGpwpHwnvZYFhonoYQDjPXYX530jxRF2UBkiJDEHo/A2Wa5wCgNAsxN4MRejcNRbUFYeVIjgjB9ah0FEqzkF1nuW0psmJuIjj0LtLqXNRAvdWiNCsGN4NDcTetqJYehBDUy7pKSB9F4NrVYNxOkddZtiCoKkxK5D8MR3hcDuotdWJkSLlzHaHhCcjTfJ9cmo6YhHww5Vl4EJmAgqrKlVI8iriGq8G3kaLRmdL0GCTkMyjPeoDIhIK6yyjYbERdDkJgYBCuJ8jBgkHW3UsIDAzEpfDHKK0qV5KOmEQpWFQgNy4MYfF5GglQd5/rIqjWFynz8TA8HHE5mhrgqouFPDkCIdejkF4oRVYdY+u2dX2UKEiKREjofWRodTZd9taOsiAJkSGhuK+tMm22YfMRvms23t8RidSo3xF0LRb5VY1w2Z/T12vBFuFxXAqKWAaypHCERiTV83Hd/l+K9JgE5DPlyHoQiYQaJ+OwS12EmkEhFGifnGjGNFuAh6FBCAwMRGBgEG4kFoIFUJR0E5cCAxF0I1G9XpVDFl0xogXtNtYW0xpw2oHLD8uRHXsTITeikFZYdY5FdtRlBAUGIuh6AuQswGTdxaXAQAReCsfj6iAEyjOjEZ9TU2dpRrRqnTkjR8qdMNxPrxKkArnxYbjxIKteftGsAzr1AJSkxyBRNfggLiwM8VWDD5f/goEs5Q6uh4YjoZ4Da0Ff3ufUpwo2Pxy7Zr+PHZGpiPo9CNdi86v7wchScOd6KMIT8rQvz9HXfrPEo2a5htqcK9/VhkXR4zikFLFgZEkID41AUkPHAW39Y6WIC66Kw0uISFUJVJoaoYrD4DhIqxSsGcO1qchDwq1gBEckQcYAAIv88F2Y/f4ORKZG4fega4itcRwOWzVUD7UQSeDm9hrnA0lz17cx0lT1f21xobNvesdDjmu1wj0eVcnGFjxEaFCgyi5BN5BYyAIoQtLNS+p8Ka++RldMa/WDev5ZU173ONEEm2igOQ9tZljkRx7GkpFOkIz1xfH98+H29nTMfLs3ekzyQxIDAAxSjs7GgHe/xYOnOQjzdYNkyEbcqpV0q3kWgsu3iiGU9EJvtdPUQSxB79ctwKZew+X4Wu4gbIupfsew2jkPhz1nYVesloXapddw8kwGBF0HY4itDrUYdsMbvepPr6sojfkRM93mYX9UJpLOrYG336NaAyOL7KBN8Fzuh5Do2zi5fAgkw9biipQFKqKxy8MbxzKUKI8/gBkD3sNPqeq1RNlB2OS5HH4h0bh9cjmGSIZh7RUp2MboDQDYbARt8sRyvxBE3z6J5UMkGLb2Sk0SqQ2TgqOzB+Ddbx/gaU4YfN0kGLLxVs1kFAAoFxe8B8F5kCuG9HBE14nf4o76Mb88/Bt4uK9CQEw6Es8ux9BubvC5lg+WzUP4gcUY6STB6A17sfW9IRg0sB/mHJGCSTmK2QPexbcPniInzBdukiHYeKsUbF44DiweCSfJaGzYuxXvDRmEgf3m4Ii0lixCG7R/NRc/z58Iz/3xUEIEm3a2SNw1AxOWBSCrMh+Rh5dgpJMEY32PY/98N7w9fSbe7t0Dk/ySVDZqSJ81oNwL8B7kjEGuQ9DDsSsmfntH9aaDs64KRO/ygPexDCjL43FgxgC891MqlJy21kJpDH6c6YZ5+6OQmXQOa7z98Kh2cmiMvVGKmB9nwm3efkRlJuHcGm/41apMp23kWZCaWMOcZaEokUNeWAoll/0BTl+vgUFG6G7M6+eAbtN3w3/jGPTpPxpvDuwKySgf3CxUldHu/yzywg9g8UgnSEZvwN6t72HIoIHoN+cIpJx2aQo6YlpmgpZGCfhh7nhM3HIPVm1Vb25MXzFH5M4duCO2gSnpkIUjRurRKBtrwGEHTj8svIVtk8ZjfXgljAov4KMBXfHGyDF4+90vEN3qVeT+PB8TPfcjXgmIbNrBNnEXZkxYhoAsBqzsPo5/MgZOnYZhY2g52II7OLr8TUg6D8eGgFNYP2MaPD54FwO7DsDyoDs4snAcJs9ZgCkDumLoepWdNOtQC6xVD/m5kTi8ZCScJGPhe3w/5ru9jekz30bvHpPgl8To9F/Iw/GNhztWBcQgPfEslg/tBjefa7Um2HXhzvt69FlTCvIsKUyszcGyCpTI5SgsVQKQI/wbD7ivCkBMeiLOLh+Kbm4+uFZLGH3tP3886irHwqY9t8258l1tmIxQ7J7XDw7dpmO3/0aM6dMfo98ciK6SUfC5Wcg5Dujsn9AE5iWX8fnUcZi+JxW2rVWPQY1binBz8xqcL7GCuVBHDEtZ1fwleAtmeXyFK2l5iN49ARIXb5zJLECW1ATW5ixYRQnk8kKUqhyHw1YN00NT0RoXuvJTfq7+8VDXtbqSC8d4pCmb0KwljBJ+wNzxE7HlnhXamgkBmOIV80js3HEHYhtT3TGdo8MPsrX5p5JjnEDz2URzfUeDYHJpzxhDMujrQ7GVmieJFNdX0oRVVesplZS8fTAZWrrQ4jMppCAi+a8zyNZoCG1PVhIpH9IX/U2p78YYqiSiysjV1N24N627X79iZdI2GmwAMhq7jwo0TxIRUTld8+5IIpE9zbuoWkNUGbuZJntfpnIiUqYcpvdeFZNJjyV0WcoQlV+jZZPX0/1KIubxDhpqADIas5fyNGp9FnuOdi97l4YPHkzDJi+jH66lapQgopIbtLJnR5pzpmpFdjGdn2tPBuq1aUzucZoxchWFq5cIMWk7abihATmvu08lYSuoe+9PKbyMiIihHP/NtDuukojJpeMzRtKqmoto53BDMnBeR/fLG643IoZyj8+gkavC1TZhKG3ncDI0cFaXf0YHxxtXr59UPvyC+pv2pY0xlURUSZGru5Nx73Wkqlr1t6H9BNoVKSUlFVPMvinkaGBELj7RVCm7SAskXWlJSNXipxK6sbwrGdpNoxM5jKoPIwzJpMdi+j1PRnFXguiBtIIeftGfTPtuJFWTkbS6uzH1XnefKtW6GmFoQj0W/055sji6EvSApOrl6tUo42lzP2PqsuKmuo8KurmiC5kM/JL+VBKRMpm2DzYkS5fFdCZFQURy+nWGLRkN2U4qN+TqswaVkbS6uyHZT9hFkVIlUXEM7ZviSAZGLuQTXcldlyKMVnTvTZ+qjE1Mjj9t3h1HlVy2ridDCd1Y2ZM6zjlTvf6/+PxcsjeoWoOmz951Kbmxknp2nEM1rnue5tobqNdEK7ltk/UduRrXxBvpsb9Cl6/XQ0FhK7qQgd0oWh/0hCqphOL3TSZ7kSH13fCAKjnzBkNpO0eQoUkPWvx7HsnirlDQAylVcNlFC88OjifjWmui6dlBGm9csyaaK6YrqZJiNr1BJvZz6IxcfT7rIH20MpCK9MWY1hjRdHh9Nq4b05rotAOnH6r6ZF69H6KS7n3Wk4w6LaJgBRGRkuI39yPjLivopvpyxc0V1MVkIH35p2rlKJP9PbkaWdLUk6o1nUzWd+RqZEoDVodQtpKIFPfo894G1GLgp/T7E5Vu7n/em4w6etM1tYvVrYNbD8rk7TTY0JJcFp8hVdj/SjNsjWjI9mRSavNfktHFBRLquiSkWm8lN5ZTV0M7mnYihzStoC/vc+uzdkVERAxlfedKxvbzqCacFpCk6xKqCacbtLyrIdlNO0E5TAPab6Z41F1Oj8115bs6tatQhK2gLgZ2NGp9ED2pJCqJ30eT7UVk2HcDPajUMQ5IuftHVEIhSyRk1HUlhVX5T85hmjltL6Uz3DGsyD5G7k5u9H2ayuqVsdtpuE1bmn26mIjJou9cjcl+3kX1viw9tipruB640FwTXZt6scXRt0o94yHntbXaVKFvPKovG1XG0KY3TMh+zhlSpUeGsg5+RCsDi0hfTGvzg+wbOvyTa5xohG9yoeORqx6EAvUrfYLWxQ0sA4iqqhbB3NwMIovecHPrAEMAZpLOaCcshLyAAJEEXodD4e/tiIzgA9h6MBwyVoGy8vp3PAILS5gLBaCyEp2vFiorKgCBBayt67/LFHWYhX3+K9Dt8XfwmHcYKbVv103NYCoUgJVLIa37BgkWr4/DhwveQEVkBJ5KpmLuCIe6BQAUB+3BoZQeGDHSSn3EGB0c7SBS/1UafBpBmY9wfocvfH19sdW/DG4bfDCrrwnE9hI4pH2NCcNm44tTcTBwX4uPu4mB0mCcDsrEo/M74OvrC9+t/ihz2wCfWX1h0gi9AaUIPh2EzEfnscPXF76+W+Ff5oYNPrPQ10SzLCCSeOFwqD+8HTMQfGArDobLwCrKULtqkd0bcO1jAxHM0P2DHVg2RICY0Ov488w+nMhwQi/nqsVPpujvPgmSp+dxLFAOCE1gYiiEpYsrhra2QjdXN/S0MYDE6zBC/b3hmBGMA1sPIlzGQlFWDhaA0MQEhkJLuLgORWurbnB16wmbxnquyBzmZiJY9HaDWwdDAGaQdG4HYaEcKjfU3+e6iGD3hiv62IgAs+74YMcyDBHEIPT6Uwi46hLbQ+KQhq8nDMPsL04hzsAdaz/uBjGXrTWbLg7CnkMp6DFiJKq9rYMj7KqcrVH2LkbQnkNI6TECNa7bAY7VlYk4baNJwTlu++v09XoIYWJiDFHrQZjoag8xTNHVYyM8exNiQkKQK+DyfyFMTAwhtHSB69DWsOrmCreeNjDgsksT4IppQIxuc73wZulp+AVkggWDR8cj8MrUUTDXF2NaY0TT4Rtj4/rotAOnHyqRmpKBiuplLWJ06NAOyEpFqpbXt9oQWljAvFZqFpqbwVRgiA59XNBGBMBQAicHMdCuDwbbiwGI4ejQFoJCGWTqwaZuHdx6EJmbw0xkgd5ublCFvQSd2wlRKC/QPnYVnMO+Exlw6uWMag/u745Jkqc4fywQNS+aVejL+9z61EcBzu07gQynXqgJp/5wnyTB0/PHECjX335zxWNDy9VDV77TLKfO88ai1hg00RX2YsC0qwc2evYGxYQgJJfVOg7gAnf/AFMM9v4YQzIP4+tTuWDBIC3gAgwmT0E7IXcMywKPI8jIGS5tVLEnfn0FgqWZODTJrI7cKvTYqrjhemgqmrHF1Td94yHntZroHY/qywZxN8z1ehOlp/0QkMkCzCMcj3gFU0eZ641pbX5g206Hf3LNkxrhm1xoZuYGYgJTYyGotAQlWgYgtqgYMLOoDuTqNbRVf4tEEIDAEgAIIS6Lwi5PLxzI6oUPvEbBTqg1vUFo0x/9uorBJMXjobb9fWwhHqdKgVb9Mbi7oeZZAIDVsE04sfNt0LnF+O/me9WvcoU2AzGguxjKh2G4oeW9ncDcDCYCAUzMzLUojUFGwp+QQwRx/ZMAWBTlS1Fm1BWTVq7G6tVV/1ZhyYQuMGw/F0cu74W7RQi2TO2DLoMW43Q6A7YoH9IyI3SdtLLWNauxaskEdBE3XG9gi5AvLYNR10lYWaue1auWYEIXLS4jFKMsahc8vQ4gq9cH8BplB11VAwCErdGxgxUETAWy05+glK1ARa1FjGJHB9gLKyCXPVNNvOrf30AoLkPULk94HchCrw+8MMpOWGeQ03JJI6lZx1z1t0gkAIhVtdPYPmsgbN0RHawEYJSV3HUJ22PukcvY626BkC1T0afLICw+nY5KTlvXbYvJSMCfckCk3dkaZ28mAwmqyrT4tQp9tqmBQa4e+0OHrzcIcSe83tkMqFRAQfr8X4vHcNml0XDHtBiA0G4qvN61wDW//YgticSJ5O6Y4azOS/pk0SJ+HRpjYy0IddiBO+cYov+4MXgl8SouPWYAKPAwIQ3WruMx3FyzBR0INOJQoLnOXAChAHVjXygEqNaR2nXo04Nm/QIRVGGv3fBMbjqelLKoqOvAcLAXokIuw7M6Q4O+vA89+tQsrQGTi/QnpWArKmqtCRfD0cEewgo5ZM8q9bTffPGoy1/0oiPfNeBKAGJ0er0zzFAJhUJlr7q+or9/LABRx1lYOsUYF77ei5jyOBy99gqmjbPRE8NOKMx7inJ5QfXNGyf6bFX86nPooYHUiS2uvnWBmHM81HdtXfSOR9CUDQCEsJvqhXctrsFvfyxKIk8gufsMOBs2IKbr+QGXf3KME8/lmzVw9JoLQ3To2A6CzEdIrPNzFwDAIDX6CWy6tK+5G+ei+CKWTlwD6ZTvsGl6X9hWWUib44p7YI7Xm2iRE4RfrhRqngWbcxZnI4ToveBj/EdnUhfD6YMDOLKoI2K3r4X/E3VD4u7wXDoRbUqvwm/vA2hZNc2BADatbCAuj8XdKI0riQULISzb2sE0IQD7r9b6wWomBYEXoqHIiMWTdh7YdTUBcefWoGf6HnhvuYJKy7awM01AwP6rqLmKQUrgBUTLG6E3oSXa2pkiIWA/6jYfiAvR9VcAFV9ciolrpJjy3SZM72tbHTTaqlZRivynZWjf2wU9unSCJROHO3drVpqyFQpUCF9FL2c7HQ5XjItLJ2KNdAq+2zQdfTk7owsRxCItgyNRg4Ki8X3WoDQfT8vao3efV1DKVReTgdgn7eCx6yoS4s5hTc907PHegj+MOGytYSKBTSvYiMsRezdKw08JLNtIewts0MpGjPLYu6jvumwjbSNC287c9icdvq4z3ohqPfGuRGk5C9uu3dG2rBH+r+a5bVwH7phWadkcY7w8IIk7iK99jqNw+DR0VCfF55alMTbWAqPDDpw5RylE60k7scfDCFe/2YSdO77AaZNPEHhkHhzV/RKpglCjHwRqSBA2hefUgyaitp3RyZJB3J27NWvl2QooKoR4tZcz7OokMH15HxBy6rPOFfURtUXnTpZg4u6gJpxYVCgqIHy1F5ztRHrab7541OUvCn0215Hvrmg2UA2Bat2oVJaWg7Xtiu5ttc0m9PdPZa4WcFuyAD0f7sOXPt/j3uvvqzficcVwHFq2t4dJbiBOXiqoqVsaCD//xPpjij5b2WY2Ug/PC1ffqvKTLhp3rd7xSBfmY+DlIUHcwa/hc7wQw6d1VM0ZmxDTOv2Ta37ZaN/UjvY5jV4MMWDuAgwWXsGuL64it9qjKpB1zRefXO0OjzFVrzxYMIwSxFY9eVYNjCAWLMuCLUxGSm4x0hMfo7g8AyHnbiGbKUVhdhQiYjVn6CJ0mLcXfnMscfqTlTiTWcuVi+7juwW++HPMLhxZ7aL+6TsAFRUoVSjqBrjQBqN8T+CrMS2gqKg6I4T9f7/DweU9kfzV+/joRFLdHeGkY+kKAECI1uNnYlyrFOxfugbn0ysARRruxeaBkWUiLacQgtFzML1DKvzcR2CGz08IOHUYvvM+RZhZRwgyArDN7x5KYQzHt9bg8ymOMDUyhsBsNOZM74BUP3eMmOGDnwJO4bDvPHwaZgbHksbozQyj50xHh1Q/uI+YAZ+fAnDqsC/mfRoGs45iAAwYRjVpYsGiMDkFucXpSHxcjPKMEJy7lQ2mtBDZURGoqppKCyFXO1t5zH4cTf4PPl88EK3HLYJXDxlO7TyAxAoAYJFzORgZgxdh4VC1VQhQVtYKBrYQySm5KE5PxOPicmSEnMOtbAalhdmIiohVX6JE7UvqIbKFfRtDZIb/jnu5eXh4YQ8O3ZRCmZ+Bx0+LUM4yYJQEtlayV7mhyg8b0ue6EEoL5eqkUY6Y/UeR/J/PsXigmLuuwgwEbPPDvVLA2PEtrPl8ChxNjWBsrtvWHTVu/YWtx2PmuFZI2b8Ua86nowIKpN2LRR4jQ2ZaDgpL9dm7TmUYP3McWqXsx9I156Fy3XuIzWMgy0xDjiyH0zZCY2MY4RmyswqQH3EDaaO47c/o8vW6UlXD5qchVa1/NusszkZ3h9fCUTDUmzcIUFbWSviNtzGjCoqagYBhwIDAqg+YccR0lZbFznMxf6gUx04Rxo9rqT7aAFk0Y6Qe+mxcO6bro9MOHDmnoxiQXVyN9RmT8c2WVfBeuhHbNs5E76p3uBDB1r4NDDPD8fu9XOQ9vIA9h25CqsxHxuOnKCoHwDJgqdbgyrBgNQZbAkC1njwTEcCyNROXOnVw64FlGCiJrXVzTSC1DVmgnv9GG4zDIq8ekJ3aiQMqBwabcxnBGYOxaOHQmnEFaFDeL9Wjz7oIYWxsBDzLRlZBPiJupGHUIi/0kJ3CzgOJql96YHNwOTgDgxctxFAj/e0b6MnHOv1AQzLd5fTYvERHvtNsoAo2H2k1AY+zZ6PR3WshRqmXSGiOAy309K8KcTdPLBlXiV++icPA9/tWxydXDLccOwdT2+XgyIJ3sOSHAPzmvwMfeQRAPMgJIqExVKbKQkF+BG5EG2Acl63EuvXASi9jo/t/sflarRmjDqiyAhWkRIVCS1RrxBZX38Sc46Gea2u32aDxqL5sKsRwnjsfQ6XHcIrGozo96olpaPEDXf5JXONEdKJOmzQKzUXSDYehpze/o/lv9qKuvQeT65jR5Dp8KL058wv6Pb1mabY8+hStcbUlkYGEpu24SHGJ1+nAokFkJTQl53n76EZGBp1e1I/aWFhTp2HzaM+1n8nDwYo6jttGt9QbcurBFNC9w5/StHGTaMbcBbRg3ix6b+JUWrL3JuVU//K5ktJvHqOvZr5OZg7jaf3+y5SosRafyQukpTO2aGzwKKPkwB20cOIIGjlxFnktXkZLFs6h98a+TbM+20+h6bo+tsKQLPJ78hjgQNZWjuQy/mPaMHcAdRg4nT47eIuyGaKS+KPkPcqJrI0MybL9YJp/KJZKiEhxcw0N6tSb3vT4hDb4rKL5833pao56C0tJPB31HkVO1kZkaNmeBs8/RLElRMRkNlJvJRR/1JtGOVmTkaEltR88nw7FlhBRGSWcX0dubUQkcphEW87EEpN5mhb1a0MW1p1o2Lw9dO1nD3Kw6kjjtt0iORGV/HmWNr8/nN4YNpE8PlpEngs30bnkmu1Llalnae2EvuQ8Yhp5fvgBzfT6mkJyGSJGSveOr6Y37UQksnejtcfv0FOGiIihzNOLqF8bC7LuNIzm7blGP3s4kFXHcfRlUAgdX/0m2YlEZO+2lo7feVp/c4+aZzc20+j2lmRp70xTtl2jiyv7Uufhs2nD0WsU+ssacrUVkYFkGu24GEeJ1w/QokFWJDR1pnn7blBGBnef61JCf57dTO8Pf4OGTfSgjxZ50sJN56hKBZz6U9ykNYM6Ue83PeiTDT60av588r2q3rCky9ZaYGSR9L3HAHKwtiJHl/H08Ya5NKDDQJr+2UG6la3aUKPd3lpgZBT5vQcNcLAmK0cXGv/xBpo7oAMNnP4ZHbyVqdM2227JiZRJdPC/ErJuKaFJO8KpiMv++ny9DpV0//NeZGg3gKbO+4iWLvuI3p/sTp+dS1N93ECn/39JQSHHafWbdiQS2ZPb2uN0R+Vk3HbRaL0s4Tytc2tDIpEDTdpyhmLzEuj8OjdqIxKRw6QtdCb2GRHpjunayH6bS+N8HtTZsKJTli+DKERrjGhDl43rx7QmnHbQ6YcMZR57nxyMBASABAIhGRhbkm3n4eR15KFqE9CzG7R5dHuytLQn5ynb6NrFldS383CaveEo3U6LpXPrx1JbkZgcJ22hC/ej6Oz6sWQvElPHd7fSuZg0ivptE01oLyJxx8nk+78H9PhOAK17y55E4g402TeQkgri69aRWK5bD/JoOrXGlWxFBiSZtoMuxiXS9QOLaJCVkEyd59G+G5la/ZcqU+ns2gnU13kETfP8kD6Y6UVfh+TqyDv6875ufdZHmXSQ/iuxppaSSbQjvIiIKin17Fqa0NeZRkzzpA8/mEleX4eQOpwa1H5zxCNnOS6bZ13Xne80qLz/OfUytKMBU+fRR0uX0UfvTyb3z85RmpKIkd7TOQ5w9a825SFLqO/4HylT4xRXDJfE+5P3KAm1tmhB9i7Tacf1PHW7Sko6+F+SWLckyaQdFK5yHN224sj7yqTvaewrbWjc3pTaYmmgoORrh2jLO53IQCAk2xHLaM+5GJJV9aVYW1zo6pucok9xj4eZHPMVbXCOR8kaca+WTYWMfps7jnweaG7n0x7TuvxAp3/qHCe20a083TZpDAKqfcvPw8PD81KgRNQ6Fww8Mx5hdzfBWfPxB8/fAIvMsz7wK3oHHs4snsoKUVxaDFnWA5w8nA3PwN0Yrf2bEDw8elFGrYPLwDMYH3YXm5o94Fmk7/XAltbfwu9da82TPDxNponLOXh4eHj+GrS8uOT5G2Azj8B7yQN0/E9PdOzWG/0GD8eo0W/j3SlucHnjdS3LE3h4mkBzBjxTjAJZOdjiMOy5bIf33+Yn0DzNCz+J5uHheQlRoqDgGZhCKWSaX1jj+XsQW6GNyR9Y3H8U3l+8Fj5bNmP9Jwsw88Pf0HH+PHTStveLh6eBKAsK8IwphLTZAl6J6C0jYGdrizavLULBrKUY/C/87DTP3wu/nIOHh+clQ4Gky4fwS2gqCpViWDmOwNQ5ruio/Vcref5KFJmIOH8WwTFZKBVZw6HPaEz8Tw+05CfQPM+BIukyDv0SitRCJcRWjhgxdQ5cmyHglWmXsNc/Fq3GzMJUl9b8U0OeZoefRPPw8PDw8PDw8PA0Ev7GjIeHh4eHh4eHh6eR8JNoHh4eHh4eHh4enkby906i2SKkxCRB3py7cf8xlCDt/gNk1PmiCw/PP5x/SkyXpOH+g4y6H1TiaTJsUQpikuTVP6xQknYfD/6O5FaeiZiHuc36Aw88DeSfEvv/Rv4lutfMI42nHJkxD5Hb9Aoazd80iWaQ8ccOePTrgNfdf0QC14e5/qWwqT9i1sBB8Dyc8xwO84Io/B8+7NUVY7eEo0jzHA+PVv5JMc0i9cdZGDjIE4dzXrro+2fBZOCPHR7o1+F1uP+YoPpCJJuKH2cNxCDPw/jL1MvKcf/oMrg6OWHE5huqL8bx/EX8k2L/OXnpxsZ/ie615ZFGwUJ+/yiWuTrBacRm3PgLE8DfNIkWod0ob3gOb4n/r9sahY7z8fOtMOyb3ebvMoJOiq/9D9ftvLBt+QBYaJ7k4dHKyx3TbP5d3Emu+nC0EI7zf8atsH2Y3eZli75/GKJ2GOXtieEtqfrzwRA6Yv7PtxC2bzb+MvUKreA8fSkmSmrJ8f8dNh937yTXfC79hfFyx35z8vKNjf8S3WvLI41CCCvn6Vg6UfKX6+GvSnFaEMHKyhKN/Uz5vwczODj3QruX7ncrKxAv7YNvj3ijx0snG8/Lzcsa0yWI+HYdDj2q9XzDzAHOvdqBd/FmQGQFK8u6VjdzcEavvzq5CS1hYfbyed/fRUnEt1h36FETnuo1hZc19puTl3Vs/JfoXkseaRxCWFqY/eV6EG3YsGGD5sGGwMqTERkRh6dCKxiUyEAWFqj+VcfSLMRE3kVivgA2baxgVLtXygIk3YlEbJ4Agke/4GBMB3h8OBqvVv3OqK5rWTmSIyMQ91QIK4MSyMgCFnp+RrI0KwaRdxORL7BBGyujauWWpMfgsbI1WonzEBcRjadGdmhtpuN+gi3Aw+shuBP/J5KSkpHLtsarrYxRnHQTwRFxSMpl0erVVjAWKCF9dBsRUUl4Ciu0sTauuUMpTUdMcgVamRci5l4mDNu0gokQKM+MxqPS1mhtXqMgRpaCe3dikF5mAttWZqj986ucOteALXqM+EwxWlmWIjnyNv4sbwE7m1oyQZe8Itj36QWjlCSUtW6NKtG42tal56bYrCQzGpFRKSgxsUWL4nRkUAuUPbyCm/cfISmHQat2rWCQfReXbzzAnylSiNu+CmuDqqtLkRUTibuJ+RDYtIFVHcerD1efdPqhTnS1XYL0mMdQtm4FcV4cIqKfwsiuNeq6WwXyEiJxOzYLyhZ2sDGpZSXpI9yOiELSU8CqjTWMa5wK6THJqGhljsKYe8g0bINW6uvKs2MRce8RCgQtYGtlXDepKKV4dDsCUaoKYV1TYePiojZNjWmdlCM7NgL3HhVA0MIWVsaaF+jSNQt5ciQi4p5CaGWAEhnBwqwQ4bvn4X2fMBh06Q4bZSVaONjCTFCOzOhHKK3l4wADWco93IlJR5mJLVqZ1f3xY7364dBtaXoMkitawbwwBvcyDdGmlUndJxisFHEhobj78E8kJaWgwKAtXrUyQGlqBP64FYOkzApYt7eFqaYqqtHtQ/r6xX1et58pC5JwJzIWeQIBHv1yEDEdPPDh6FdVOas8E9GPStG6tbna//THQVN8vS6VeHBiOy4ZvYPl73ZD9QcUGRlS7t1BTHoZTGxboU73GpWjWBQ9jkemuBUsS5MReftPlLewg01D7KxNhsbYnCuGKvKQEHkbsVlKtLCzgYmQRX74bsx73wdhBl3Q3UaJyhYOsFXfYDTXGAO8iNhvRGzXMpTOMUgLzTs2csvVIOrZr+qELjmqTnPpXs+11bDIjmrI+Ko/frnziG4480gjbVv54AS2XzLCO8vfRbeaBMAh1/PbT7te9VARvQse3seQoSxH/IEZGPDeT0hVLYZDdtAmeC73Q0j0bZxcPgSSYWtxRapaGFca8yNmus3D/qhMJJ1bA2+/R7VeNXFcWxGNXR7eOJahRHn8AcwY8B5+UjWoHTYbQZs8sdwvBNG3T2L5EAmGrb2C/NxIHF4yEk6SsfA9vh/z3d7G9Jlvo3ePSfBL0vHSS2iGlkYJ+GHueEzccg9Wbc0gBGD6ijkid+7AHbENTCkFR2cPwLvfPsDTnDD4ukkwZOMtlLJ5CD+wGCOdJBi9YS+2vjcEgwb2g8feazj+yRg4dRqGjaFVm2/kCP/GA+6rAhCTnoizy4eim5sPruWrdKdb5xowGQjdPQ/9HLph+m5/bBzTB/1Hv4mBXSUY5XMThQDA6JAXLGT3j+OTMU7oNLxmXZHOtnXoWcqi8TYrjcMhr7cxc+slxCWE4utpzujQbTJ+TGBh0/5V5P48HxM99yNeCYhs2sE2cRdmTFiGgCyV3djsIGzyXA6/kGjcPrkcQyTDsPaKVOd6c5194vJDHWhvOx+5kYexZKQTJGN9cXz/fLi9PR0z3+6NHpP8UOVubH4wtszywFdX0pAXvRsTJC7wPpMNFgxSjs7GgHe/xYOnOQjzdYNkyEbcKmWRF34Ai0c6QTJ6A/ZufQ9DBg1EvzlHIEUhbm2bhPHrw1FpVIgLHw1A1zdGYszb72LztVIwKUcxe8C7+PbBU+SE+cJNMgQbb5WCzW9CXKhpckzrovAWtk0aj/XhlTAqvICPBnTFGyPH4O13N+NaqS5dS8GiAtG7POB9LAPK8ngcmDEA7/2Uigp5FqQm1jBnWShK5JAXFuNplY8P24ia8AvHNx7uWBUQg/TEs1g+tBvcfK4hn0WD9KNTt3nhOLB4JJwko7Fh71a8N2QQBvabgyPSOr0GhCYwL7mMz6eOw/Q9qbBtrXrUZdxShJub1+B8iRXMdWRr3T7E3S9wnufys1LE/DgTbvP2IyozCefWeMPvUZVDy3D/+CcY49QJwzaGohws8vXGQVN8vWHIw7+Bh/sqBMSkI/Hscgzt5gafa/kq3TQiRzEZodg9rx8cuk3Hbv+NGNOnP0a/ORBdJaPgc7OQ0846ZWiQzbliiEV+8BbM8vgKV9LyEL17AiQu3jiTWYAsqQmszVmwihLI5YUoVaL5xhg1zR37jY1tVbrmGIM0afaxkUOuBqHDftkshxwqOHWv59q6CPWMr5UNiF+uPKLRXB048ggaaVtdcMr1vPZTQ41GQWErulPvT8OpjIiIySH/zbsprpKIyT1OM0auonCFqiSTtpOGGxqQ87r7VFlyg1b27EhzzsjU9RTT+bn2ZPDaSrql4L62JGwFde/9KYWrGqQc/820O65SXY8mDOUen0EjV4WTqiqG0nYOJ0MDZ1p3v5KUydtpsKEluSw+QykKIpL/SjNsjWjI9mRSalZVTSXFbHqDTOzn0Bm56giTdZA+WhlIRUSkfPgF9TftSxtjKomokiJXdyfj3uvofiURMWm0c4QhmfRYTL/nySjuShA9kDLEZH9PrkaWNPVkCRERyS4uIEnXJRRSpm6y5AYt72pIdtNOUA6jW+daUYTRii4GZDdqPQU9qSQqiad9k+1JZNiXNjyo5JaXGMr+3pWMrKfTr2XEYW9uPSsaZbMi+mNJd3JeeZNU2iBShK2g14y60+rISiJSUvzmfmTcZQXdVPuH4uYK6mIykL78U0nE5NLxGSNpVY3z0M7hhmTgXNUnTXT1idsPtVbF2baSkrcPJkNLF1p8JoVU7jaDbI2G0PZkJRGTTcfcncjt+zRiiIgqY2n7cBtqO/s0FSsf0hf9TanvxhiqJKLKyNXU3bg3rVM5FaXtHEGGJj1o8e95JIu7QkEPpKSI2URvmLvQpjiVJ1fe+4x6GnWiRcEKIlLSwy/6k2nfjaQyeySt7m5MvdX9alJcPEdMa9WlOs7MXTaRqguVdO+znmTUaREFK/TouiSMVnTvTZ+qHI6YHH/avDuOKomIyfqOXI3tad7FcnU7ah+3nEqq8JPRxQUS6rokROUPRFRyYzl1NbSjaSdyiNGrH27dMmk7aYShCfVY/DvlyeLoStADkjLqhupQQiFLJGTUdSWFqUVlcg7TzGl7KV1reeL2Ib390ndeu58V3VhJPTvOoRqzn6e59gb02spbqlzAZNP3rkZkOfWkOp71xEETfF27Op7RwfHGZD39V1V/ZBdpgaQrLalJqnRjeVcytJtGJ3KYRuYoVU7qYmBHo9YHkSqt7qPJ9iIy7LuBHlTqsLOUWwZ9NueKIUX2MXJ3cqPv01TaqIzdTsNt2tLs08VETBZ952pM9vMuUpXXN+sY09yx36TY5h6DtNKcY6NCl1wNg+GwH6ccenTPea1W9Iyv+uJXbx7RTglnHmmCbYno2cHxZFw9d9Ej13Parwodzza4EMNe4oC0rydg2OwvcCrOAO5rP0Y3MVAafBpBmY9wfocvfH19sdW/DG4bfDCrrwmKg/bgUEoPjBhppa7HGB0c7Woe2XNcK7aXwCHta0wYNhtfnIqDgftafFzzrF6DUgSfDkLmo/PY4esLX9+t8C9zwwafWehrAojMzWEmskBvNzd0MARgJkHndkIUygs4FrSL0W2uF94sPQ2/gEywYPDoeARemToK5gBEEi8cDvWHt2MGgg9sxcFwGVhFGcpZ1RMmE0MhLF1cMbS1Fbq5uqGnjRBCC4tar5ELcG7fCWQ49YJz1Vor0/5wnyTB0/PHECjXrXOtCE1gYixC60ET4WovBky7wmOjJ3pTDEJCciHgkhdCWFiY13pFoattbj03ymaFF7D3aBH6j+kLU/UhUYsWOp+81aM0GKeDMvHo/A74+vrCd6s/ytw2wGdWX5holgU4+sTth1rhbFsEc3MziCx6w82tA1Tu1hnthIWQFxAgC8TxICM4u6g3l4pfx4pgKTIPTYKZSAKvw6Hw93ZERvABbD0YDhmrQJnKqWBiYgihpQtch7aGVTdXuPW0AZuagowKIQRqvxJ36IB2yEJqahkAESRehxHq7w3HjGAc2HoQ4TIWirJysGhaXDxPTGtHidSUDFQIBepXdmJ06NAOyEpFapkeXYvtIXFIw9cThmH2F6cQZ+COtR/XeqVfB5WP14TfOew7kQGnXs7Va6RN+7tjkuQpzh8LhFyvfrh1KzQxgaHQEi6uQ9Haqhtc3XrCRqtvm2Kw98cYknkYX5/KBQsGaQEXYDB5CtppLQ9uH9LXL33ntfqZIX7fcwgpPUagxuwd4GhX6xWp0AIWtZaoQV8cNMHXdamjNgXn9uFEhhN61SRV9HefBMnT8zgWKG9cjlLb0VjUGoMmukKVVj2w0bM3KCYEIbmsVjvjArcM+mzOFUOywOMIMnKGi3r3pvj1FQiWZuLQJLM6cqto3jGm2WO/SbHNPQZppTnHRp1yNQwu+3HNKfTpnuvapqEnfvXmEW0UI4gzjzTBtprok+s57VdFQ3KRBkK0n3sEl/e6wyJkC6b26YJBi08jnWFRlC9FmVFXTFq5GqtXV/1bhSUTnJCd8CfkEEGstUWua7vAsP1cHLm8F+4WIdgytQ+6DFqM0+k6XjOzRciXlsGo6ySsrK5nNVavWoIJXcSAoGqAViMQQSQAiNU1VVAhtJsKr3ctcM1vP2JLInEiuTtmOKvXzgjFKIvaBU+vA8jq9QG8RtlBWLs6bYt4BILqyQ6YXKQ/KQVbUVHrd2vFcHSwh7BCDtkz6NB5dWG9iDu9js5mQKVCAdIjr6BaMOi2dyW3noWNsBmTlYzUYjEMDbQpSj9sUT6kZUboOmllLd9ZjVVLJqCL1ojQ0SdOH+6iNbj0tV1Xl4BAJIIABJYARpqHp+VyFMi0+Z4Q4rIo7PL0woGsXvjAaxTs9DiVYf9xGPNKIq5eegwGgOJhAtKsXTF+uDkAQCguQ9QuT3gdyEKvD7wwyk5YM0FudFwwyHiOmNamS8AQ/ceNwSuJV3HpMQNAgYcJabB2HY/h5np0bdgec49cxl53C4RsmYo+XQZh8el0nb9MIKjVXyY3HU9KWVRU1PpdY7EjHOyFqJDL8IzVrx9O3Wq1lnZEHWdh6RRjXPh6L2LK43D02iuYNs5Gs1g1XD6kr1+ybO7zz1jUl5zJQMKfckAk5hg8BPX9XvPvWnHQFF/XD4Pc9CcoZStQt3sOsBdWQK5Kqg3OUdoRo9PrnWGGSigUKnnrSqpfBpbT5lwx5ITCvKcolxdAi+nr06xjTPPHfpNiW99Y30CaPDYKdchVU4IDBlIu++mUQ5/uua5tOlzxqy/PqPKIBvrySDPYVq9ceB771aBVfm4YZMQ+QTuPXbiaEIdza3oifY83tlyphGVbO5gmBGD/VVmt4ikIvBADy1Y2EJfH4m6UonZlALFgIeS4NhqKjFg8aeeBXVcTEHduDXqm74H3livQqEmF0BJt7UyRELAfdasKxIXoRq92qYU5xnh5QBJ3EF/7HEfh8GnoqL5pKr64FBPXSDHlu02Y3te2Okk02G9FbdG5kyWYuDu4W71wiUWFogLCV3vB2Y506FyrBqohquW9laUoZ23RtXtblDVKXh32/sOIU89MI2wmsLJGCzzBnXDV5E8bIrEIIFZDRgIxgNCyLexMExCw/ypqRGGQEngB2k2uo0+cPhytda1U49uuQfRKe9ib5CLw5CUUVB1kpQj080di4UUsnbgG0infYdP0vrDlNhIAQNh6Enbu8YDR1W+waecOfHHaBJ8EHsE8RxGAYlxcOhFrpFPw3abp6NuQCjkRwOY5Ylq7aoRoPWkn9ngY4eo3m7Bzxxc4bfIJAo/Mg6NIj64VGYh90g4eu64iIe4c1vRMxx7vLdATIgAAUdvO6GTJIO7O3Zp1g2wFFBVCvNrLGXZ6s2Rz6rYF3JYsQM+H+/Clz/e49/r7GFn1ekYLXD6U9Ap3v159lfu81n4LbNDKRozy2Luob3Zto2UDKG68r+tHhLadO8GSicOdmqQKtkKBCuGr6OVsB2pEjqqBUDetloO17YrubbVtotIvg0rFumzOFUNxaNneHia5gTh5qdryYKWB8PNPrJ9Hm3WMaf7Yb1JsVzZ9rG+WsZHRIZc2ldVDhFc47FeoUw59um/afIRrfNVHk/KnvjzSDPM4vXLR89ivBm3d0wODjIBt8LtXChg74q01n2OKoymMjAUwGz0H0zukws99BGb4/ISAU4fhO+9ThJk5wW78TIxrlYL9S9fgfHoFoEjDvdg8MLJMpOUUQqDz2o4QZARgm989lMIYjm+twedTHGFqpPGrA9WYYfSc6eiQ6gf3ETPg81MATh32xbxPw2DWUQyWYaAkttYTNgKBwLIqB+RC7DwX84dKcewUYfy4luqjLAqTU5BbnI7Ex8UozwjBuVvZYEoLkR0VgdhilfcqKzUMzzJgiaAad1pg3CIv9JCdws4DiaoPBbA5uBycgcGLFmKokW6d64ZFfloqitX/zzp7FtHdvbBwlKFeeVmGVQUUCw57m3PqmWmEzYS2/8E7I0wQ8eUMLNxzCZF3/8Chg38guzqARbC1bwPDzHD8fi8XeQ8vYM+hm5Aq85Hx+CmKRKMxZ3oHpPq5Y8QMH/wUcAqHfefh0zAzdNR606qrT1w+3FHrExSYcbXNgmGUILbqiRsAIlWyY1mgxVjMmdoOOUcW4J0lPyDgN3/s+MgDAeJB6FicjJTcYqQnPkZxeQZCzt1CNlOKwuwoRNQ4Vd0BSXYRq9dnYPI3W7DKeyk2btuImb3V78rYQiSn5KI4PRGPi8uREXIOt7IZlBZmIyoitglxIUTr54hprboEILu4GuszJuObLavgvXQjtm2ciaoucOpakIGAbX5QmfQtrPl8ChxNjWAsAITGxjDCM2RnFSA/4gaiS1U+TupBBy3GYZFXD8hO7cSBRNVuWjbnMoIzBmPRwqEwArj1o0e3qtJKaKYAXYi7eWLJuEr88k0cBr7fV6euAHD6kJONnn41oN/1/EzYGuNnjkOrlP1YuuY8VGa/h9g8BrLMNOQUlgJgwbBUa1LNHQdsYRN8XSsMGEY1CLMAWoxbBK8eMpzaeQCq7rHIuRyMjMGLsHCoUaNyVDVsPtJSVVkVbBbOno1Gd6+FGKV+X6xpZ30yVKHL5lz5qOXYOZjaLgdHFryDJT8E4Df/HfjIIwDiQU4QCY1hbAQ8y85CQX4EbkQbNOMY8wJiv0mxzT3W66aZxkZGl1xA6e3dmD3uv/C5lK3ZeDUtdNqvI4p1ynEbuaO4dC9Djs5r1fOReugZX8u547ch+bMeevOIoEm2ZVQJQDWv0icXh/0aheYiaf0o6OaaQdSp95vk8ckG8lk1n+b7XqUc9erxkvij5D3KiayNDMmy/WCafyhWvbmEIVnk9+QxwIGsrRzJZfzHtGHuAOowcDp9dvAWZTO6r1XcXEODOvWmNz0+oQ0+q2j+fF+6WtWgVkoo/qg3jXKyJiNDS2o/eD4dii0hkkfTqTWuZCsyIMm0HXQxLpGuH1hEg6yEZOo8j/bdyNSsqB6y3+bSOJ8HdRafM5mnaVG/NmRh3YmGzdtD1372IAerjjTuyyAKOb6a3rQTkcjejdYev0NPGSIqjqdz68dSW5GYHCdtoQuJ5URUSaln19KEvs40YponffjBTPL6OoRyGdKr83pU3qfPexmS3YCpNO+jpbTso/dpsvtndC5NtUVMp7zbblFm/DlaP7YticQdaPIXFymxnKttHXpugs2UWb/T+vFdqbW5JTmOXEoBgevJxaRqYyERPbtBm0e3J0tLe3Keso2uXVxJfTsPp9kbjtLtpwxRSTwd9R5FTtZGZGjZngbPP0RqUbTA1SfdfqgTHW3Lo0/RGldbEhlIaNqOixSXeJ0OLBpEVkJTcp63j25kquT29x5FktYW1MLehabvuE55DBExmXR6UT9qY2FNnYbNoz3XfiYPByvqOO5LCgo5TqvftCORyJ7c1h6nO09VgjOZx+h9ByMSAASBgIQGxmRp25mGex2hhwqGMk8von5tLMi60zCat+ca/ezhQFYdx9G2yzebGBdNj2ntMJR57H1yMBIQABIIhGRgbEm2nYeT15GHqg0mOnRNipu0ZlAn6v2mB32ywYdWzZ9PvlfVm1qUSXTwvxKybimhSTvCKafaxx1p0pYLpAq/VDq7dgL1dR5B0zw/pA9metHXIbmq6/XmjQyduv0yKISOr36T7EQisndbS8fvPNW50aY25SFLqO/4HymzIYV1+RDp6RfneYak97T7GTEyivzegwY4WJOVowuN/3gDzR3QgQZO/4wO3kqm+HPraWxbEYkdJ9GWC4n64yAjo9G+Xp8ySji/jtzaiEjkMIm2nIklIqLK1LO0dkJfch4xjTw//IBmen1NIaqk2ugcVXn/c+plaEcDps6jj5Yuo4/en0zun52jNCURI72n085cMtRGl825Yqgk3p+8R0motUULsneZTjuu56nbVVLSwf+SxLolSSbtoPAiat4xptljv4mxzTEGaaU5x8ZnuuRiKPPgZGpj1YpsB/toSlAHXfbjkkOuR/eZGVzX6oBjfL0W+gt3/GYyHHmEA848kt1o25YlnKd1bm1IJHKgSVvOUOwzrvymz68ajoDor/6+C88LRxmFdS4DcWZ8GO5uctZ+5/+Sw8RvxgCXkxgdch9fvPFP7MFfD5t5Fj5+RXjHwxnsUxkKi0tRLMvCg5OHke0ZiN2jtT4TeIlgkXnWB35F78DDmcVTWSGKS4shy3qAk4ez4Rm4Gy99F5oFFul7PbCl9bfwe9da8yTP34Qyah1cBp7B+LC72OTc3DmJt/lfwl85NlbcwJqFd/HFT4s1z/D8i2jCcg6efw7aX8Tz/AthM3HEewkedPwPenbsht79BmP4qNF4+90pcHN5A69zvAJ7WWAzj8B7yQN0/E9PdOzWG/0GD8eo0W/j3SlucHnjdR1Lc/5FMMUokJWDLQ7Dnst2eP9tfjL1UtKcaZW3+d9EcxpRC6wUYT+eR8v3Z2me4fmXwU+i/40oC1DwjEGhVKZa+/YPRPn0KQqVxZA/078SkgcAxLBqY4I/FvfHqPcXY63PFmxe/wkWzPwQv3Wcj3mdtG18eskQW6GNyR9Y3H8U3l+8Fj5bNmP9Jwsw88Pf0HH+PPwTutB0lIjeMgJ2trZo89oiFMxaisEv1aeFeZQFBXjGFEIqa66sytv8L+cvGRtZyGKiwI7bgOUj+Juifzv8co5/G4okXD70C0JTC6EUW8FxxFTMce3I/enWlwwm8yaOHLuERGklDKw7YpT7Bxjh+K+eQTUTCmRGnMfZ4BhklYpg7dAHoyf+Bz1a/oN0p8hExPmzCI7JQqnIGg59RmPif3rgn9SFpqJMu4S9/rFoNWYWprq05p9wvEQoki7j0C+hSC1UQmzliBFT58C14/NnVd7mfyH/grGR5+WDn0Tz8PDw8PDw8PDwNBL+xpeHh4eHh4eHh4enkbyEk+hyZMY8RO4LXvf/ImGLUhCTJH9hWxfYwlTcuXELsTm1vsTD81JTknYfDzJeMnsxMjyKeYwSzeO1KM+MwcNmCcYSpN1/gJdNBTw8PDw8PE3lJZpEs5DfP4plrk5wGrEZN17cqv8XB5OBP3Z4oF+H1+H+Y0IDPg7QWBg8DvgEXlvP4daZz+Am6YH3jzzWLMTzssGm4sdZAzHI8zBymmM++twwSPtjB2b16YCec/2RpuWrVKz8Po4uc4WT0whsboZgZFN/xKyBg+B5OOeF3Vzy8PDw8PD8lbxEk2ghrJynY+lECf6xq7RF7TDK2xPDWxLnJzabCpt7DMuXxuGNFd7w3hqAn1cOgIWykd+orIZF/t07SNYygeJpZoSOmP/zLYTtm402L0XEieAw6mPMGWqt81uwQitnTF86EZJmCkah43z8fCsM+2a3eZmSDg8PDw8PT5N5ycYzISwtzLg/u/qyI7KCleWL6UFF+BXcKDGDpTEAYUu4fn4Ee+a8plmsYZRE4Nt1h/Co+R+X82jBzMEZvdq9TL9fJYKZhRlnAhBaWsCs2VzZDA7OvfBSqYCHh4eHh+c54BpD9VKRl4BbwcGISJKBAcBmR+FyUCACg64jQc4CTBbuXgpEYOAlhD8urblQKcWjiGu4GnwbKfK6j0KFAm2jdimyYm4iOPQu0opqvwxmIU+OQMj1KKQXSpGVrWt1J4uix3FIKWLByJIQHhqBJHW7DZYZQGlWDG4Gh+JuWlG9V9LKgiREhoTifkaZxhkVXNfWQatuFEiPvITfw5NRyDxF/JVAXApLQlH1Rbr0AwAVyEu4heDgCCTJ1H3OD8eu2e9jR2Qqon4PwrXYfJVMWttWU5qOmIR8MOVZeBCZgAIdT7CV0keIuHYVwbdToFmFChbZUZcRFBiIoOsJUKn8Li4FBiLwUjhqVF6C9JhESFmgIjcOYWHxyNOY8OtvqzYMZCl3cD00HAl5upYnsCh4GIqgwEAEBgYi6EYiClkARUm4eSkQgUE3kChX6Vd326VIj0lAPlOOrAeRSKhSVHkmouPrLmXQXUcD/ZotwuO4FBSxDGRJ4QiNSNKiB939FlTFGimR/zAc4XE5qLNkWSjQckOrhPRRBK5dDcbtFDnqNVeRh4RbwQiOSILa3aopz4xGvMZ6FkaWgjvXQxGekFfvd1tL0mOQqHIAxIWFIV7TATjiipUnIyLkOqLSCyHNyuZc983Dw8PDw9MUmjaJZvMRvGUWPL66grS8aOyeIIGL9xnkWrXHq7k/Y/5ET+yPVwIiG7SzTcSuGROwLCALDAAm5ShmD3gX3z54ipwwX7hJhmDjrbqT1dqw2UHY5LkcfiHRuH1yOYZIhmHtFSlYVCB6lwe8j2VAWR6PAzMG4L2fUuutQ2YyQrF7Xj84dJuO3f4bMaZPf4x+cyC6SkbB52YhhDb6ZQabjaBNnljuF4Lo2yexfIgEw9ZegZQFgFLE/DgTbvP2IyozCefWeMPvUa3ZA+e1ddGtG0JFSSHkJZUAVaKkUA75s3IwLJd+ADY/GFtmeeCrK2nIi96NCRIXeJ/JREGWFCbW5mBZBUrkchSWKnW3zeYh/MBijHSSYPSGvdj63hAMGtgPc45INaVHytHZGPDut3jwNAdhvm6QDNmI+qYVwqb9q8j9eT4meu6HSuXtYJu4CzMmLENAViXyIw9jyUgnSMb64vj++XB7ezpmvt0bPSb5IYlpTFtq5OH4xsMdqwJikJ54FsuHdoObzzXk17OBEGYtjZDww1yMn7gF96zawkwIwPQVmEfuxI47YtiYko62WeSFH8DikU6QjN6AvVvfw5BBA9HPYy+uHf8EY5w6YdjGUPUklUv+hvg1g4zQ3ZjXzwHdpu+G/8Yx6NN/NN4c2BWSUT64Wagu1pB+Uy4ueA+C8yBXDOnhiK4Tv8Wd4lrna8Ok4OjsAXj32wd4mhMGXzcJhmy8BZXaWeQHb8Esj69wJS0P0bsnQOLijTPZLFjZfRz/ZAycOg3DxtCqaboc4d94wH1VAGLSE3F2+VB0c/PBtXwWbH4kDi8ZCSfJWPge34/5bm9j+sy30bvHJPipHIAzriqid8HD+xgylOWIPzADA977CamaiYGHh4eHh+d5oUbDUPYxd3Jy+57SGCKiSordPpxs2s6m08VEyvjN1M+4C624qVAVV9ykFV1MaOCXf5KSlPTwi/5k2ncjxVQSUWUkre5uTL3X3adKde3PDo4nY+vp9GsZETG5dHzGSFoVrq6LSaOdww3JwHkd3S8JoxXde9On4WWqUzn+tHl3XHU9tVGEraAuBnY0an0QPakkKonfR5PtRWTYdwM9qNQnM0O5x2fQyFXhpDrLUNrO4WRo4Ezr7ldSyY2V1LPjHDojUzdWfJ7m2hvQaytvkULPtXXRr5uSnyeSsZU7BZSoD3DpR5FNx9ydyO37NFKZKZa2D7ehtrNPUzExlPWdKxnbz6OL5Q1om0mjnSMMyaTHYvo9T0ZxV4LogZRRC6FG+ZC+6G9KfTfGkKqK1dTduLeWfhIRKSl+cz8y7rKCalS+grqYDKQv/1QSkZKStw8mQ0sXWnwmhRREJP91BtkaDaHtycpGtiWjiwsk1HVJCKk8hajkxnLqamhH007kqHSjQWXMJnrDxJ7mnJGrDjBZdPCjlRRYpK+fDKXtHEGGJj1o8e95JIu7QkEPpMQw2fS9qxFZTj1JJaSnDkVD/VpBYSu6kIHdKFof9IQqqYTi900me5Eh9d3wgCr19ruSIld3J0P7CbQrUkpKKqaYfVPI0cCIXHyiVe09O0jjja1p+q+qGpQPv6D+pn1po8pJKHJ1dzLuvY7uVxIx2cfI3cmNvlclBaqM3U7DbdrS7NPFRETEZH9PrkaWNPWkynllFxeQpOsSCqkRjpZ3NSS7aScohyFSJm+nwYaW5LL4DKWoHIBm2BrRkO3JemKyhMJWdKfen4ar+s3kkP/m3RRXX4E8PDw8PDzPRROeRMsQeDwIRs4u6k1SYry+IhjSzEOYZKZZVhMRJF6HEervDceMYBzYehDhMhaKsnLtSxxKg3E6KBOPzu+Ar68vfLf6o8xtA3xm9YWJ2B4ShzR8PWEYZn9xCnEG7lj7cTeINesAIDQxgbGoNQZNdIW9GDDt6oGNnr1BMSEI0fvzXaUIPh2EzEfnscPXF76+W+Ff5oYNPrPQ16QYQXsOIaXHCIy0Uhc37gBHu6rPq3FdW6sJoPG6gR79yAJxPMgIzi7qjVzi17EiWIrMQ5NQ30x62haawMRQCEsXVwxtbYVurm7oaaPhOiIJvA6Hwt/bERnBB7D1YDhkrAJl5Tql50AEc3MziCx6w82tAwwBmEk6o52wEPICalxbBeew70QGnHo5o2o5rml/d0ySPMX5Y4GQaxQHAHG3ufB6sxSn/QKQyQLMo+OIeGUqRpnr66cQJiaGEFq6wHVoa1h1c4VbTxsIhRawMK+1MIKrjgb7tRAmJsYQtR6Eia72EMMUXT02wrM3ISYkBLlPG9Zvkd0bcO1jAxHM0P2DHVg2RICY0Ot4qkWVIokXDof6w9sxA8EHtuJguAysogzlLCALPI4gI2e4qHdOil9fgWBpJg6pk4LQwgI1KijAuX0nkOHUC841wsF9kgRPzx9DoBwQmZvDTGSB3m5u6KByAHRuJ0ShvADEGVdi2EsckPb1BAyb/QVOxRnAfe3H6FZfgTw8PDw8PM9F4yfRjBR5T8shL5Dp2tjPiVBchqhdnvA6kIVeH3hhlJ1QZz1sUT6kZUboOmklVq9eXf1v1ZIJ6GLYHnOPXMZedwuEbJmKPl0GYfHp9PprNLUiRqfXO8MMlVAodLWuhi1CvrQMRl0nYWUtGVavWoIJTtlI+FMOiMTaFcl1bZf6o3pjdAM9+nEqzMPTcjkKZFw11KC37fqLYzUQQlwWhV2eXjiQ1QsfeI2CnbBhbWujer1u1d8iEQQgsIRGtcXkpuNJKYuKilqrfcWOcLAXokIuwzMtk0UI7TDV611YXPPD/tgSRJ5IRvcZzurPw+prW5uiBBr94ahD+Bx+Le6E1zubAZUKlOY0pd+t0bGDFQSMEpWa5wBAKEZZ1C54eh1AVq8P4DXKDiqxGUjznqJcXgCd7iYQoFoFTC7Sn5SCraiotQZbDEcHewgr5JA9Y1Xlq88BEIggEgDEkp64MkT7uUdwea87LEK2YGqfLhi0+DTSG6RAHh4eHh6ehqN17seJ6BW0tzdBbuBJXCqoOshCGugH/0QGEIkhqp7s1EDEACjGxaUTsUY6Bd9tmo6+tlUTSe0jr9CyLexMExCw/ypk1UcZpAReQLQiA7FP2sFj11UkxJ3Dmp7p2OO9BVd0/uIbgWpNHCpLy8HadkX3tiJumYWWaGtnioSA/bhaIwSYlEBciLFEKxsxymPvIkqjXWJZ7mujNRdpNk430KOfuJbtYW+Si8CTl1BjJikC/fyRWG9C0fi261F8EUsnroF0ynfYNL0v9FUhEosAYjVOE6iebFpoRFuitp3RyZJB3J276rW7ANgKKCqEeLWXM+x0RID5GC94SOJw8GsfHC8cjmkd1W8XGtG2TrjqYBrp10S13lRUorSchW3X7mjXrin9LkX+0zK0790Hr2g5X3xxKSaukWLKd5swva9t9dNxggivtLeHSW4gTtYkBbDSQPj5J9a/ARC1RedOlmDi7uBujXCoUFRA+GovOGsXrgbOuFIgI/YJ2nnswtWEOJxb0xPpe7yxRacCeXh4eHh4moae0UobLTB2zlS0yzmCBe8swQ8Bv8F/x0fwCBBjkJMIIlt7tDHMRPjv95Cb9xAX9hzCTakS+RmP8bQwF8kpuShOT8Tj4nJkhJzDrWwGpYXZiIqIBQAwDAMQC5YFYDYac6Z3QKqfO0bM8MFPAadw2HcePg0zQ0dBBgK2+eFeKWDs+BbWfD4FjqZGMNb2IBAA2Hykpap3TLFZOHs2Gt29FmKUMbhlLhJh9Jzp6JDqB/cRM+DzUwBOHfbFvE/DYOZkh/Ezx6FVyn4sXXMe6RWAIu0eYvMYyDLTkFMo0H1tR40n0WyhXt1UVFSCKiqgqJo1cemn5VjMmdoOOUcW4J0lPyDgN3/s+MgDAeJBcBIJYWxsBDzLRlZBPiJCb+GhnrZBgLJSc+JfA1uYjJTcYqQnPkZxeQZCzt1CNlOKwuwoRMRq7lQTwda+DQwzw/H7vVzkPbyAPYduQqrMR8bjpygqZ8EwShBb68aGSO0XbOPaajEOi7x6QHZqJw4kqn7/gc25jOCMwVi0cCiM6pauQeyMufOHQnrsFGj8OLRUH9bfNgHKSo2NgCwYllQ3VvrqiE5slF+z+WmoceuzOBvdHV4LR8G4gf2m0kLI1fPL8pj9OJr8H3y+eKDqqTvDgAGBZVkALAqTU5BbnI7Ex8UozwjBuVvZYEoLkR0VgYyhczC1XQ6OLHgHS34IwG/+O/CRRwDEg5wgAgCWAUukimu0wLhFXughO4WdBxJVv8rB5uBycAYGL1qIoUYAyzBQEqt68qySFKSWhYUZR1wJkBGwDX4qBeKtNZ9jiqMpjIwFACvF5Y3u+O/ma7VuOnl4eHh4eJqI5iLphlFC8f7eNErSmixa2JPL9B10Pa9qi9YzurF5NLW3tCR75ym07dpFWtm3Mw2fvYGO3s6jzNOLqF8bC7LuNIzm7blGP3s4kFXHcbTtlpzKEs7TOrc2JBI50KQtZyj2GRGVxNNR71HkZG1EhpbtafD8QxRbotr8t2ZQJ+r9pgd9ssGHVs2fT75XdWwUu/859TK0owFT59FHS5fRR+9PJvfPzlGasqoEl8xPVf096k2jnKzJyNCS2g+eT4di1bv7GBlFfu9BAxysycrRhcZ/vIHmDuhAA6d/RgdvZXNfWweGQzdPKeXqD7RoSEsSCm1p5Eo/+uXWE1ISh37U5/y9R5GktQW1sHeh6TuuU5WZlEkH6b8Sa2opmUQ7wgt1t33zMd07vpretBORyN6N1h6/Q0+1KZnJpNOL+lEbC2vqNGwe7bn2M3k4WFHHcdvolnp/Xh2e3aDNo9uTpaU9OU/ZRtcurqS+nYfT7A1H6VroL7TG1ZZEBhKatuMixSVepwOLBpGV0JSc5+2jGxkZjWurMpXOrp1AfZ1H0DTPD+mDmV70dUiuVl+pg+w3mjvOhx7U3pSms59fUlDIcVr9ph2JRPbktvY43XnKEFExxZ9bT2PbikjsOIm2XEjkqGMb3cprqF9X0v3Pe5Gh3QCaOu8jWrrsI3p/sjt9di5N5Rekv98lf56lze8PpzeGTSSPjxaR58JNdC5ZvdOvLIHOr3OjNiIROUzaQmdinxGTeZoW9WtDFtadaNi8PXTtZw9ysOpI47bdIjkRlcT7k/coCbW2aEH2LtNpx/U8VVvF8XRu/VhqKxKT46QtdCGxnIgqKfXsWprQ15lGTPOkDz+YSV5fh1AuQ0TyaDq1xpVsRQYkmbaDLsYl0vUDi2iQlZBMnefRvhuZHHGloJtrBlGn3m+SxycbyGfVfJrve5VyGCJSJtH3Y1+hNuP2Ukq1knh4eHh4eJqGgKiZPkn2EqOMWgeXgWcwPuwuNjnXX4vMw/PPQ4modS4YeGY8wu5uAu/WPDw8PDw8fy1NWM7xD0bbZioenn84vFvz8PDw8PD89fy/mEQrCwrwjCmEVKb5TTQenn8qShQUPANTKAXv1jw8PDw8PH89//rlHIqkyzj0SyhSC5UQWzlixNQ5cO2o+rEyHp5/JgokXT6EX0JTUagUw8pxBKbOcQXv1jw8PDw8PH8d//pJNA8PDw8PDw8PD09z8/9iOQcPDw8PDw8PDw9Pc8JPonl4eHh4eHh4eHgayd84iWYgexSDxyWax18A5ZmIeZj7Uv+KAVuUgpgk+Ustozb+qXLzNJGSNNx/kFHrc92asChKiUGS/AV5hM72WRSm3sGNW7HIKQdK0u7jQUb9Us/PC+6fJi86d+nUZ0N5Pn3w+aMZedG+wvOP4MXlPh5tNHkSzeZHYP+ns/Hee+5w/+88fLLjEA5t2YOrDfi6LpP2B3bM6oMOPefCP63eR4GbD1aO+0eXwdXJCSM231B9Ge1lg8nAHzs80K/D63D/MUHjS3cvMf9UuXmeAxapP87CwEGeOJxTf6hmMv7ADo9+6PC6O35MeBEeoaN95jECPvHC1nO3cOYzN0i6T8L8KQMwyPMwtIjZZF58/2rxl+QuHfpsIM+lj5c9fxT+Dx/26oqxW8JRpHnuZeMv8RWefwRsKn6cNRCDPA9rnuF5QTRtEl1yA5+NnYULjsuw/9eTOP7jSgyW/YxVvr8juwFzYpHDKHw8Zyis8YL3NAqt4Dx9KSZK6EW31HRE7TDK2xPDW77EMmrjnyr3C4DNv4s7yQ1w/H88QjjO/xm3wvZhdpv6qUPUbhS8PYejZTPuVa6rW23ts8g9thxL497ACm9vbA34GSsH2mGo702E7ZsNLWI2mRfRP538JblLmz4bznPp4yXPH8XX/ofrdl7YtnwALDRPvmz8Jb7C81yw+bh7JxkvfJQQOmL+z7cQtm+25pmm81fJ/g+l8ZkTQPnVn3AgYwBmz+mFFgCEFl0w0ec4vprUEgLNwjoQmVnArEmtNxKhJSzMGirV34TIClaWL7mM2vinyt2slCDi23U49Oile5b2YjBzgHOvdjDWPK5GZGWF5nMJLbqt134Fwq/cQImZJYwBCFu64vMje+Dl6oJe7XRJ2XSat396+CtyVz19No7n0sdLmz8qEC/tg2+PeKNHUxXzV/NX+ApPkymJ+BbrDj36S964mDk4N2vu+ytl/yfSpGmswNAQ4oLz2PHFH8ipfkj0Ct6eMQH2orplGVkK7lwPRXhCXt3XTAKBesJNUOY/RHh4HHI0lvGUpscgIZ9BedYDRCYU1NwJlWYh5mYwQu+moUjvW0ghBFpyi1L6CBHXriL4dgrkdW6xWMiTIxByPQrphVJkZetbtM1VvhRZMTcRHHoXaVoEVRYkITIkFPczyjRPAQBKs2JwMzgUd9OK6qxzY+XJiAi5jqj0QkizsqFXQq7yjdKlihciN4ccum2lg9IMRD/MBQsG8pQ7CLufXt1WRW48wm48QJbmkjGlFI8iruFq8G2kaDRSkh6DRCkLVOQiLiwM8XnqdMLmI3zXbLy/IxKpUb8j6Fos8qtk19WfknTEJErBogK5cWEIi8+rn5x0XYtSpMckIJ8pR9aDSCQUaFMGi+yoywgKDETQ9QTIWYDJuotLgYEIvBSOx6VV5UqQHpMIVbfiEBYWj6pucVOOzOh4jWUSShQkRSIk9D60u4TuOGi8bmu1r0hH5KXfEZ5cCOZpPK4EXkJYkvrle3kmouNzNNaHViAv4RaCgyOQJKurO24f09c/jjzHlcf0oi13KSF9FIFrV4NxO0Xe8Loq8pBwKxjBEUmo2/UqfTbUb6BXH9y61J8/amAhjQtGUGAgAgMDcSkiFaUAUJqKiEuBCAwKRpxUd9Jiix4jLqUILCNDUngoIpI09aVLl4boN3c+XstJRG6t6jnzlw505UKdft8AtNepzVe4KEFm9A2E3nqIPEUFclNSUcRmI+pyEAIDg3A9QQ4WDLLuXlLpPvyxSvdV6MxR2uHUXSPrAjiuaUh+1YyF5ui3znZZ5Ifvwuz3dyAyNQq/B11DrHqQ0J4XdPlkI1BkITo+p+H9aoLs0JPzdKM7BwMMZCl3cD00HAl5mjU2cbxi5UiOCMH1qHQUSrOQXdKYPNcwmjSJNhrljeXDhQjb/B84D52P70IzUQHAeuwEjDCqKiVH+DcecF8VgJj0RJxdPhTd3HxwrZYRAELuBW8Mch4E1yE94Nh1Ir69Uww2LxwHFo+Ek2Q0NuzdiveGDMLAfnNwRMoiO2gTPJf7IST6Nk4uHwLJsLW4wpFI68Mg5ehsDHj3Wzx4moMwXzdIhmzErVIAqED0Lg94H8uAsjweB2YMwHs/pdYPwmp0l2ezg7DJczn8QqJx++RyDJEMw9orUnXSK0XMjzPhNm8/ojKTcG6NN/we1XIoNhtBmzyx3C8E0bdPYvkQCYatvaJyoOhd8PA+hgxlOeIPzMCA935Cqm4BOco3RZcvQm4uObhspQW2AHeOLsebks4YviEAp9bPwDSPD/DuwK4YsDwId44sxLjJc7BgygB0Hbq+uh4m5ShmD3gX3z54ipwwX7hJhmDjrVKw+ZE4vGQknCRj4Xt8P+a7vY3pM99G7x6T4JfEgJVnQWpiDXOWhaJEDnlhKZS6+pOfi8jDSzDSSYKxvsexf74b3p4+E2/37oFJfknqZKnjWqkSeeEHsHikEySjN2Dv1vcwZNBA9JtzBNK6GgAghE37V5H783xM9NyPeCUgsmkH28RdmDFhGQKyKpEfeRhLRjpBMtYXx/fPh9vb0zHz7d7oMckPSZp5rRoWsvvH8ckYJ3QathGhVTchpTH4caYb5u2PQmbSOazx9kNdl9AeB8pG67YYTzXbpwqUFMpRUglQZQkK5XI8K5Xi7vFPMMapE4ZtDK3eMMfmB2PLLA98dSUNedG7MUHiAu8z2WD1+Zie/nHlOd15rPb1jYBJwdHZA/Dutw/wNCcMvm4SDNl4q+4gXw8W+cFbMMvjK1xJy0P07gmQuHjjTLZSw576/EbdaU596NGlvvxRDyFMzEtw+fOpGDd9D1JtW6uemBu3hOjmZqw5XwIrcy1DGJOB0N3z0M+hG6bv9sfGMX3Qf/SbGNhVglE+N1EILl3W8vPhm3FDPZbrzl860JEL83O5/Z4THXVypmwtlMYdgtfbM7H1UhwSQr/GNOcO6Db5RySwNmj/ai5+nj8RnvvjoYQINu1skbhrBiYsC4DKBXTlKN1C6NZd4+vSeU0D86vWWMi1anq/9bXLypElNYG1OQtWUQK5vBDFOTryQp4un2wocjw4+Sn+07kTBn3+ByDUY8/K/EbLXqpUtaMr53GhOwcDkIfjGw93rAqIQXriWSwf2g1uPteQz7JNHK8AVERjl4c3jmUoUR5/ADMGvIefUtmG5bnGQE2lOI6OLxtJrxoJSCBsQa9N3kjnU8qrT8suLiBJ1yUUUqY+UHKDlnc1JLtpJyiHIaqMXE3dDe1pwq5IkiqJimP20RRHAzJy8aHoSiImbSeNMDShHot/pzxZHF0JekD52cdpxshVFK5QVcmk7aThhgbkvO4+VVa3rMkzOjjemKyn/0plRETKh/RFf1PquzGGKkkth3FvWne/kkgRRiu696ZPw1VCMzn+tHl3nO66dZVncun4jJG0qkZQ2jnckAyc19H9SqKSGyupZ8c5dEamrqf4PM21N6DXVt4iBTGUe3wGjVwVTqqrGUrbOZwMDZxp3f0SClvRnXp/Gq7qC5ND/pt3U5xuAXWWZ3Ibr8sXITenHFy20gWTRd+5GpHpgNUUkq0kIgXd+7w3GbQYSJ/+/kRVz/3PqbdRR/K+Vk5ESnr4RX8y7buRYlSN0OruxtRbrQdl8nYabGhJLovPUIqCiOS/0gxbIxqyPZmURMRkfUeuxvY076LK97n7k0zbBxuSpctiOqOqjH6dYUtGQ7ZTslLPtcRQ2s4RZGjSgxb/nkeyuCsU9EBKTK2u16Ck+M39yLjLCrqprktxcwV1MRlIX/6pJCIlJW8fTIaWLrT4TAqpujWDbI2G0PZkpWZltWAo+3tXMrKcSidLiIhK6MbKntRxzhmqcYm5ZG/wGq28pSDSEweN1W399lUy/DzRmKzcA6j6EJNN37sakeXUk6pjTDYdc3cit+/TVPqqjKXtw22o7ezTVMzpY3r614A8py2PSbUbTQt1c5fy4RfU37QvbVQ5KkWu7k7GvVW61AWTfYzcndzo+zRVo5Wx22m4TVuafbpYiz71+Y0efXDqUl/+0E1JyBKSGHWllWFqP2By6PDMabQ3nUORijBa0cWA7Eatp6AnlUQl8bRvsj2JDPvShgeVenSp1ov1dPq1jDjzqHa4cmGlXr/XDnedmr6ik6I/aEl3Z1p5sypaFBS24jUy6r6aIiuJSBlPm/sZU5cVN9XtKOjmii5kMvBL+lNvjtKGbt01vi491+jLr1yx8Dz91tOuakwyJvt5F6k6k2nJC3lxXD7ZUJ6S33+MyOwdf9WfevpFTZBdX87TClcOJhldXCChrktCqn235MZy6mpoR9NO5BDTxPFKEbaCuvf+lFTTM4Zy/DfT7rjKBuS5xqHlNr6BmHXDtB1/IP7eL/h8oh2yzmzApMHv4Id4JYACnNt3AhlOveBctTTHtD/cJ0nw9PwxBMrVx0R2eMO1D2xEgFn3D7Bj2RAIYkJx/SkLoYkJDIWWcHEditZW3eDq1hPGoacRlPkI53f4wtfXF1v9y+C2wQez+prUEkwPIgm8DofC39sRGcEHsPVgOGSsAmXlLCC2h8QhDV9PGIbZX5xCnIE71n7cDWLNOqrQVb40GKeDMvHo/A74+vrCd6s/ytw2wGdWX5igGEF7DiGlxwiMtFLXY9wBjnZV62BKEXw6CJmPzmOHry98fbfCv8wNG3xmoa+JGPYSB6R9PQHDZn+BU3EGcF/7MbrpFlBn+dLgxuryxcjNKQeXrXQhNIeZqQCGHfrApY0IgCEkTg4Qox36DLaHGIDY0QFtBYWQyQiACBKvwwj194ZjRjAObD2IcBkLRVk5WAAic3OYiSzQ280NHQwBmEnQuZ0QhfICrZt4uPtjDnMzESx6u8FNVRkkndtBWChHAem5FkKYmBhCaOkC16GtYdXNFW49bZr2KgkimJubQWTRG25uHaDqVme0ExZCXqCtV1UIYWFhXrPvoTgIew6loMeIkahxCUfUuARXHDRet/Xa14XQAhbmtUrJAnE8yAjOLm1U+hK/jhXBUmQemgQzLh/T178G5DltecymaUaDSOKFw6H+8HbMQPCBrTgYLgOrKANXOMgCjyPIyBku6o2D4tdXIFiaiUOTzBquzyr06YNLl3rzh25MB3vj4yGZOPz1KeSyAJMWgAsGkzGlHYcihSYwMRah9aCJcLUXA6Zd4bHRE70pBiEhuRBw6lKll5radecv7XDlwqb4PfTW2VAKL+zF0aL+GNPXVH1EhBYtaveVG+4cpQ3dumt8XXqu0ZNfuWOBm+dpVxva8kLr17h8sqGYwNxUp2PWp9Gy6895WuHKwQXnsO9EBpx6OVfvzTDt745Jkqc4fywQ8iaOV2J7CRzSvsaEYbPxxak4GLivxce6g7bJNKlGJvkOoi37wLm1EBbd3sXG397GzGPz8ZbHMXyx8zIW7nVE+pNSsDYVKAfUu5vFcHSwh7BCDtkzbV4hROuOHWAleAxlJQARNJI7i6J8KcqMBmDSytXo2yTJAUAIcVkUdnnuhM07S7HQKwv/O+ivPtUec49chmj9J/DZMhXHdrpg4Y+/4OvJ7aE11eso/9WAfEjLjDBg0kqs1hSUeYhTf8qBV8XaExdbhHxpGYwGTMLK1X3rG6jzEVwWrccnPlsw9dhOuCz8Eb98PRnttQuI9nO1lZ8Ig8bqkslAQrPLrV8OnbbSiaDe2kCBUIA6o5NACCFqdrILxWWI2uWJnTbvYOlCL2T97yCqW6leu1/1twgiAUCstuDV56P5GrIJIFJVBtJ7LaAZEc+DQENJApEIAhC0dqsWglr6YDISoHIJrR4BtogjDtBY3aqo3b5uBHX6x0jz8LRcjgKZtnp15wN9/QOTqz/PmTWj1YRilEXtgudOG7yzdCG8sv4H7nBgIM17inJ5AbR2vcH6VKFXHxy61Js/uBB1xKylU/DVlK+xN+YdTD57Da9MOwobzXJ6EHd6HZ3NgCcKBUhoyanLuvGhK4/qyLv6cmF+4/1eb50NgkFWciqKxW1g0FCj16EhOUoTXbrTn/vro699rvyqPxZ08zzt6qaeCRod39oRCDTGO040x0s9sjck52l5SsCVg5ncdDwpZWFTUVMjxI5wsBeiQi7DMxYwa8J4JWw/F0cui7D+Ex9smXoMO10W4sdfvsbk9poln4/6vW0AyqRfsD8ov9amBmM4TfOB10ARnsnkgKgtOneyBBN3B3erF/SwqFBUQPhqLzjbaW+2NP8pytr3Rp9XtJ0XwrKtHUwTArD/qqzmMJOCwAvRHOuWNSi+iKUT10A65Ttsmt4XtlUBQapEH/ukHTx2XUVC3Dms6ZmOPd5bcEXXb1/rKP+HUVvYmSYgYP9V1EjKICXwAqIZG7SyEaM89i6iNOollgWElmhrZ4qEgP2o281AXIhWICP2Cdp57MLVhDicW9MT6Xu8sUW3gDrKVzZel4IXIbceObhs1WwU4+LSiVgjnYLvNk1H3+dq5Hl89HmurY9ILNKSCAnUhCVfuhDYtIKNuByxd6NQ1yUIKpfgiIPGdug5EL3SHvYmuQg8eQkFVQdZKQL9/JFYqNvH9PWvqXmuqRRfXIqJa6SY8t0mTO9rWz2R0u2pIrzS3h4muYE4eam652ClgfDzT9S6aYnLb/Tqgyte9eUPPbRwW4IFPR9i35c++P7e63h/ZNWTVG6IatVdWYpy1hZdu7dFWaN0qSuP6si7nLmwiY7fLHUKYGXdAnhyB+GPtVkfAERQuYCGJojANClH6dKdntxfu4pqmtJ+Ffpiobn73XgaH98NgatfTaCJOY8rBye90hmdLBnE3blbs/6brYCiQohXezlDR5V6YTJi8aSdB3ZdTUDcuTXomb4H3luuQKEnzzWWpolHMlzcshLHEmqWvDOZYYh43AYTp7kCaIFxi7zQQ3YKOw8kqnZusjm4HJyBwYsWYmjV5kMqRaFcnYjKY7D/aDL+8/liDDRUn4YSlbU81Gz0HEzvkAo/9xGY4fMTAk4dhu+8TxFm1pHjzpwBw6gSNQuALUxGSm4x0hMfo7g8AyHnbiGbKUVhdhQiohMRsM0P90oBY8e3sObzKXA0NYJxvVtGNUyG9vLmozFnegek+rljxAwf/BRwCod95+HTMDN0NGyN8TPHoVXKfixdcx7pFYAi7R5i8xjIMtOQUyjA6DnT0SHVD+4jZsDnpwCcOuyLeZ+GwayjABkB2+CnahBvrfkcUxxNYaRbQJ3lG61L4YuRm0sOIZetYos1JVTDgGU1BmZSJY3qgCECgQXLAGALkZySi+L0RDwuLkdGyDncymZQWpiNqIhYsAwDJbG1khCBQGDV/iQ0NoYRniE7qwD5ETeQPFh3f8QsA0ZJYGsFL5HaN9mG+DcBysoGJG0RbO3bwDAzHL/fy0XewwvYc+gmpMp8ZDx+iqJyFgyjBLG17uRVgoDVM6FhGRZE6r63Ho+Z41ohZf9SrDmfjgookHYvFnmMDJlpOSgUcMSBGI3WbXRp3fZVVKCiklBRoah1jAXDUo0PtBiLOVPbIefIAryz5AcE/OaPHR95IEA8CB2LdfvY7dxR3P0rbVie08xjKL2N3bPH4b8+l5DNqe7auYtFYXIKcovTkfi4GOUZITh3KxtMaSGyoyKgKxxajJ2Dqf/H3pmHRXFlbfylu9kXwYWIREHFNriCEhfcJcpk3DBGcVwxgjpJUIxLXBJF1BDNGBONo2jc4hbJOH6uYNQIiAiuyCYYRBbZabpRQBq66nx/NEvTdFcDEuPE+j1PnidSVfeee857zr3ddaurYx6OLPwAfv8Oxn+PbcMnXsEQuTpAqBZPXbopM+eOtzRPuy9jkox11A8dj0+JesDHbzyqfvkOiYNnafg2UBMsCjPSoXQNi5yzZxHXaxE+Hm2g05cswyonWRacdVQzphy1UKRT95rhblN9ntOMANZ/+wAjjWPw9cyPsfvSLdz97RAO/pZbt6ASWsO2vQGyo3/FvfwCPLywG4duSKAozMKToucQ6qxR6mj3ne561xDOa3TUV85ceJlx6+gXAiMYGQLPcnNQXBiDyDil1uvXBR35XdDYmqGGjnFVNNl2/UbVvAZw1GCH1uOxeFFvSE9tx4EU5ZO8bN5lhGUNweKPh8EQzZuvmKxgbA26h3IYwf7va/DlVHuYGBpBT0ede67+y126UN8k3Rgqfl1LU2b50D8mvE8Tp3jS9KkTafTwv9OnBx/Q89qzqij97Fqa2N+ZRk73oX9+NJsWfRtO+TUbz8t+p7ObZtGId4fTJK9PaLHPx7Tx3GN6QUSM5B6dWP0e2QiFZOu+lk7cKap9gKos6Sj5jnYgK0MDsug0hBYcSqh7oKgBLyj5/Dpyby8koZ0HbT6TQMRk0+nFA6i9uRV1He5Nu6/9RF52ltRl/Fa6WXCD1rh2Jaf3vGilfwCtWrCAAq/maXl4i4jkHOeXJdFR39HkYGVIBhadaMiCQ5RQYygjpVu7vGiQnRVZ2rvQhE/9af6gzjR4xhd08GYuEZVR0lFfGu1gRYYGFtRpyAI6lFCmfChgjSt1dXqPvFb6U8CqBbQg8Kr2zfw6zm+aL/84u7XawRUrmZptRERUSkln19P7tkISdZlCW87FU0bsf2njxE4kFHWhyYH/Rw+e3KHgdX8nW6GIOk8OpJDUF5R9ejENaG9OVl2Hk/fua/STlx1ZdhlPWy/foFNr3MhaqE/i6dvoYmIKXT+wmFwtBWTi7E37IrOJFKl08B9ismojJo9t0fRc63hkFHdqDblZC0lfPJ22XUyklOsHaLGrJQlMnMl7XyRlM9quZUhy7wStfs+GhEJbcl97gu4UaQ26kmeRtGlMJ7KwsCXnqVvp2sUV1L/bCJrrf5SuRfxCa9ysSagvpunbLlJiynU6sNiVLAUm5Oy9jyKzNbddmnSO1r/fgYQie/LYfIFSKogY6S3a5TWI7Kwsyd5lAn3qP58GdR5MM744SDdzGe15IItrsm/z1PsvTaOr/15MQ9sISGA9ilYE/UI3n5ZQ0rn19H4HIYnsPWjzhRSl8WVJdMx3NInbmVMrWxease06FTC6NaZzfBx1TlsdY7IP0uT2ltTWeggFxGt7aqhh7WKyT9PiAe3J3KorDffeTdd+8iI7yy40futN0pgO1ZQlHSPf0WJqZ96KbF1m0LbrBcRoiSeXbm4XMdz+yM7i9KXu+qGDinDy6z+B9mrRZz2q7tOXfQ3IZtA08v5kKX32ySya7PkFnctQPjjE5cvsWr90pslfXaSUCu76pRkttbAxuteKljY1aEU7Csr5dT1NcGxHZhb2NGppMIWsdyHjmgcLiehZ5CYa08mCLGydaerWa3RxRX/qNmIu+R+9TUVaa5Q2uH3XtLaUaL6msfVVcy5Qs8fdmH4VlHrwHyS2akNij20UlaGtLmjXZHGjagYRURkdn2JGZjUPFnKO6xpF/NI026OfE2fN40RbDSYiqkqns2snUn/nkTTd55/00exF9G14PjFEJIs71az5Sn5jDbl2daL3vFaSf8AqWrAgkK7WCE9HnWsKekTNed0UDw8PD0/zqUTkmo9x1zsIS7po2ljLow6buQdem9vh+6ApsFI/qI4iFutcBuPMhCjc3eis9ZtNHgZJmwbB5eQYhN//Cu/yjnqNaUzNKMeJD9vD1/gwio5MVj/I8wfQvO0cPDw8PDzNhIUkai/Ot5mFOVonQx4lDEqLpahgSxG1+zJsZo3TvYCuh/bbvTw8/zs0tmawqFII0L1XT/UDPH8Q/CKah4eH5xXCSuMRy46H/7KRTVwQvnko4jZjpI01rNu/g8XFc7B0SCNfZ6woRvEzBiUSaRPepvYmokBRUQkUpTI80/2wBc+fBHfNUCDxm5F4u9dM7Dj/f4ipnIblcx3UT+L5g+C3c/Dw8PDwvJ4oMnBpzzEktB2LOdNc0K4xX/vIU3H50C+ISC+BQmQJ+5HTMM+tC6qfV+ephUH2jSM4fikFkip9WHUZDc+PRsKe64tOntcSReZv+PFwGAosemPcjA/Qvx0fxFcFv4jm4eHh4eHh4eHhaSKN+VzPw8PDw8PDw8PDw6NCiy2i2edpiE+V1T7GUZZxHw+ymvqDey3Dn9n3q6cC2fEPkd/E52fYknTcibyJhLw/30/q2uH5Y6nIjsfDpgrmD4OB9FE8npSp//0PhH2OtPhUyBrlgqbmF4vnafFIrW28DBn3H+CNKUdNQt1Xr57XvvaUZeD+gyzw8tHF659nr73WeJrFyy+imSz8ts0LAzr3hOfeZOWLINh07J0zGK4+h5H3qhXD0bf8+lq4dh+O5aEFfwEhs5DdP4rP3BzgMHITItWfnmEe4QeP7ug35zAe13tghMGT4JVYtOUcbp75Au7i3ph15InqCa8OTdrh+cNgZfdx9DM3ODiMxKYGgnn1MBm/YducfujcZz6OZTTjVVFNhkHWb9vgNaAzenruRTKn4HTklwaYrN+wzWsAOvf0xN7qxtn0vZgz2BU+h/P+92sOU4yEM9uxYsF8eC/8FH6frcbWE9F48uAwDl/T8vY+LWjy1Svlf6L2sEjfOweDXX1wWH0y46mHap69dvxPaI2n2aj/cHSzkEfSZ2JDemfFTZJX/6k0/R7FZr5QO/HVoLlvOd1Y7kKD10ZwvpjgdYApuEO3U5UvBeCGoczvR5Gh1Qz6j9pwmSff0dhe8+g/T+v/cDiT9xNN7vB32ishIqaIrgTMokUHHtY755WiQTuvC42Pgy4YKrhzm1qkqZeEyfyeRhla0Qx1wfxJVPz2CdkbutDGxFflHDlFfiYmw3dW0E2dgtOeX9qQR35GYsN3aEVt46WUfi+WGpSjFuPVaIvJ/ZXWjuxMvf6xg8IzK6r/Wkq/n/2CRr1lTGN356tdoZuGvnrFvIa1p0HNKU2ne7GZ9IfJ5y9Dy+dZg1i8DK+h1v4wmAK6czuVWshzrz0v/000AAgtYWlR/xWopnbO6NuxkT9H1MJo7JvJRMbbK3F8wzC0qn/kNaMMMd+vw6FHjfm8KoCFuSk0vXy2JEmIKUd/wBTb+iGujL6CyDJTWBgBELSB25dHsHveO/XOeaVo0M7rQVPioIOyGHy/7hBaoqmXRWBhDtPXyN1CU3OYtkwVaiRCWFpaaMyZhmjPL20ILS1RX86msHPuC/Vy1GK8Cm0pkrBjpie+l/vg+CFfDO9Y825fUzhM2ICTQbNg+UyqdpFuGvrqFfPa1R4NNcfUDs59O+KPks9fh5bOMw2xeBleO639cZTFfI91hx69Md+4v9T0pShOxa3wCNzPeqF+CKjIRlyS6i3McmTGJ6OQqUDOg1tILq67fVueE48bYRG4m/G8wS3PyoJk3AwLQ0yqFOo3fLUea9A3ALTBwCHtkXk7GQXqt2bLMhGfIgGLSuQnRiEqqaBRAmBzY3E5NAQhodeRLGMBJgd3L4UgJOQSop+U155XlhmPFAkLVOYjMSoKSQVaWmcLEb1jLmZtu4X02F8Rei0BhTWDKM9B/I0wRNzNwHOVgQn0NCemodMI9JTeUfGpHJm3LuHX6McoYYqQdCUEl6JS8bzmAkaKtDvXERHdTP9wXa8BTu3o0IQ6WnUAgJGm4c71CEQnFzT4vVitcdEaBwUkj2Jw7WoYbqfJGvQFVKIg+SbCwmKQKlUeZQujsWPuLGy7lY7YX0NxLaGwdjxctilhIUkMQ2hICEJCQnApJh3lAFCejphLIQgJDUOiRJt3ypETfwNhEXeRUV8wOhaFZciMT4HSLYmIikpCQ7kykKbdwfWIaCQ3CHY5suKUe4gZWRruRN1HZs1+58p8JEVF4kGOysZFvRp7CIrCh4iOToT6Nv3yzHgkFzKoyHmAW8nFKn7XMkZNKIqReiscEfezoFFxTcyv+ihQnHoL4RH3oUnOFdlxSFK9HV+eifjkQjAVOXhwKxl1pZBrPC2nLe3+1Iz0zFfYEs7CbaE3ejf4nTgB2o37DPP61P1FIXmEmGtXEXY7DbIGjXP7CgoJHsVcw9Ww20hreLEKLGSPYxB+PRaZJRLk5NbfVM9VP1qu9lQgN+EGwiNjkVGi6Uzt8WRljxETfh2xmSWQ5OSiTGvNqUB2XFKDrYlc8dVa12rQ6WMWubGXERoSgtDryVBObXdxKSQEIZeiUTe1NaZWqNNQx3Vw1RXdfclzlHn20vOy1lj8WfMci+dPEpH2nAUjTUV0RAxS1eKmNac12ctKkBgWipAQpU9i0pU+KU+PwaWQEISGJaJ2WtFSFwEAlQVIvhmGsJhUKEPJojB6B+bO2oZb6bH4NfQaEmodx63ZBvmgdlw7XHri7lNr/JtIMxfR5YjfOxvu3vsRm52Kc2t8EfSoegCsFPdPrMRYh64YviECFWBREH0AS0Y5QDzGH3u2fIihroMxYN4RSNhchG70wbKgcMTdPollQ8UYvvaKMoBsIcI2z4HXv64goyAOOyeK4eJ7BrlcxxTqfSuRRX8HL89VCI7PRMrZZRjWwx0B1wrBsoW4ddgPoxzEeD/wBPYvcMe4GbMxzqk3PIJSdU4ugtad8Hb+T1gwyQf7kxSAsDU6Wqdgx8yJ+Cw4B1WFt3DYbxQcxO8j8MR+LHAfhxmzx8GptweCUhu2zspyIDG2ghnLQl4mg6ykHAqwyA3dCJ9lQQiPu42Ty4ZCPHwtrmhbPGn1KaGyrASysiqAqlBWIoPsWQUY9uX9o/V6NdOUcGgHXPartlFzrhYdsAAgQ/R3XvBcFYz4zBScXTYMPdwDcK2QBasjLhrjwKTh6NxBmPL9AxTlRSHQXYyhG24qF7UA2MIwbJ7jhX9dyUBB3E5MFLvA90w2inMkMLYyA8vKUSaToaRcwWlbfQQwNivD5S+nYfyM3Ui3bqf8RsqoDYQ3NmHN+TJYmjVMYTY3FBt9liEoPA63Ty7DUPFwrL0i0RKPGlgU3joMv1EOEL8fiBP7F8B93AzMHueE3h5BqJWrLBrfeXliVXA8MlPOYtmwHnAPuIZClkXxnaNY9p4Y3Ub4I/jUesyc7oWPpgyG46BlCL1zBB+Pn4x5C6dikOMwrL9ZN5kBhPwLvnB1doXb0N6wd5yE7++Ugi2IxoElo+AgHgP/PVvw4VBXDB4wD0ckTRtjefxezHb3xv7YbKSeWwPfoEcqud3E/FKnPB57Z7vDe38sslPPYY1vEOpK4X2cWDkWDl2HY0NEBcAWIPrAEoxyEGOM/x5s+XAoXAcPwLwjEs7xtJS2uPypnXJEnP0VBQIxXN5trX5Qiegd/O1v3QEwSDs6F4OmfI8HRXmICnSHeOgG1Iaaw1cAwKQdxdxBU/D9gyLkRQXCXTwUG+rppIZKxO3wgu/xLCgqknBg5iB8+GN69fM4XPWjBWtPyU1s9ZiA9dFVMCy5gE8GOeLdUWMxbsomXCvn1mdl3A54+R5HlqICSQdmYtCHPyKtSL3mlKLo/gmsHOuArsM3IKL2gyVHfHXUNTTaxwK07vQ28n9agEk++6Gc2jrCOmUHZk78DME5VY2rFWpo1nGuMmc56orOvmQPcPLzv6FbV1d8+VvFS8/LGuv/nzTPMVkR2Ok9AHY9ZmDnsQ0Y228gxrw3GI7i0Qi4UcKZ01rtFRjDrOwyvpw2HjN2p8O6nfLre6M2QtzYtAbnyyxhJuCqiywKwzZjjte/cCWjAHE7J0Ls4osz2cXIkRjDyowFKy+DTFaCcgU4NQst+ZDeiPUsp544+mxMnjQJ9f0djaEscgX16TKPzkir/1B6nubb6tft92FyaZebIVlMO0llRETEUMb2kWRg3JuW/FpA0sQrFPqgkHJPzKRRq6Kr9wgxlLF9BBnoO9O6+3LKPe5JDu67KIMhIqqihG9GUOsOc+l0KcNxTEPf0ou0UOxIfuE1m6XKKHKZIxnYTKef8xgixWP6ZogBWbgsoTNpciKS0X9mWpPh0G/ocSM29SiSNtEAo+60/Eb1Tif5DVre3ZgGf/07KYhI8fgbGmJgQS5LzpCy+f/QTGtDGvrNY417hpicH8jNyJa8Lyr3HTL5J2jmqFUUXd08k7GdRhjok/O6+1RFRM8OTiCj2j2bDOVr9WkVERGV/TSJjCw9KVgZmJf3j67r1eDWjm776+DWgfTiQhI7+lGdWZG0zNGAbKb/TMphccdFPQ6Kh1/RQJP+tCG+ioiq6NbqXmTktI7uVyk1d9zTgdx3ZZDSlAT6ZkRr6jD3NJUSQzk/uJGRrTdVN6XTNnXKwv1IbOhIK6KqG2Dy6PDs6bQnU8PJTD6dmDmKVtUJhraPMCB952pbnx2kCUba9kQr6PE3Q8jAwoWWnEkjpVtmkrXhUPpGGWy6uFBMjn7htXs0yyKXkaOBDU3/OY+Y6rEamgyi1eG5pCAi+b0vyUm/FQ3+/Fd6WkVEVffpSydD6uJ7jSqIqOrWauplYEsTd9wiiYKoNH4fTbXXJ0OXAIqrUup9pIEx9V7yKxVIE+lK6AOSVOkYoyplkbSiTxeaVyc4Oj/flvSr90Q3Lb/UKaPIFX2oy7wzVCfn+WSrX7fPl8ndRW6GFjTtZHXCMRm0faQBGfdeQr8WSCnxSig9KMzVPh55y2pLoz81yKgWJpO+G2VAMBxLewrUD6qheEhfDTSh/hviqaomtkZO1bmry1cKevjVQDLpv4GUKXaLVvcyIqfqONRDHkXLeznR59HKQTJ5x2jTzkSq0lE/Wq72VFH8xnfJzGUjKbfyV9G9L/qQYdfFFCbXlYNyilrei5w+j1bmEJNHxzbtpMSqhjWHiKHcXW5kaDGNauSjK77cda0JPiYFJW0aQEbdl1Pd1LacuhsPpq9/VzSiVqjBWSN11ZVG9FUURH8zNKUPjikd9bLzcoNY/GnzHJE8ajl117eh0etD6WkVUVnSPppsKySD/v70QFuNlOiyt4zC/cRk6LiC6qaVwzR7+h7KZLjrojz3OHk6uNMu5cRLVQnf0IjWHWju6VIiJod+cDMiW++LVKNibs1qzwdOOPWkq0/d8W8KDb/G0kkpQncfQlrvkRhlWf0no86wt1F5Q47AHOZmqrdBBTA2NoDAwgVuw9rBsocb3PsYIeJ0KLIfnce2wEAEBm7BsRfu8A+Yg/7GUoScCIWhswvaCwBAhJ7LwyDJPgQPU65jDfsuPrcPP2c5oK9zzWYpEwz09IC46DyOh8gAoRnMTIUwd3KHe2cDAKYQd+sIQYkMxS3wGhqhmRlMheZwcneHsnkxunUUoERWjMY0Xx52GqHZj3B+WyACAwOx5dgLuPsHYE5/Y/VTAZQjTKtP1c9V8rL+0Xl9PXRppyn2c+mgGOf2/Ywsh76oM2sgPD3EKDp/HMphNS0uQvEiHI44Bl/7LIQd2IKD0VKw8heoYAFIQ3Ai1BDOLu2Vt3ZEPbE8TILsQx4wVW8Ium1Tx2SILz4dmo3D355SbpPICMYF/cmY2lFD+paH4XRoNh6d34bAwEAEbjmGF+7+CJjTHw1c2AAhzMxMITR3grt7Zyjd0g0dBSWQKYONfT9nwaGvc+0eTZOBnvAQF+H88RDIIICZqQn0DDqjn0t7CAEYiB1gJwI69hsCWxEAkT3sOuihRCqt87PQBu+69UNrIWDa6yNs+2wo9OIjcL2IhcDYGAYCC7i4DUM7yx5wc++D1hWNH2Np6G4cSuuNkXWCQ2d7G9Qqrkn5pUZpKHYfSkPvkaNQJ2d71C+F5qhfCo1hbCCAhYsbhrWzRA83d/QxitA+nhbWlkZ/apBRLQITmBgKoEdVqKjQ/J1bLUIxFh2OwDFfe2SFHcCWg9GQsnK8qGAb4SshxIsOI+KYL+yzwnBgy0FES1nIX1Q0/KZPZAuxXQa+nTgcc786hUR9T6z9tAdEnPWjJWuPAulpWais3RolQufOHYGcdKS/0JWDItiK7ZDx7UQMn/sVTiXqw3Ptp+ghUu8DAAQwNzdT2X6lO77cda0JPtaJjlqhDpeOddaVRvRlbAYTjT7UDLefGvLnzXPKnDUStoPrJDfYigATRy9s8HECxYcjPF9zjcQFXfaaYIjvpxiafRjfnsoHCwYZwRegP3kqOgq466I05ARCDZ3hopx4Ieq5HGGSbBzyaFiRdGu2KfmgApeedPbZ9PhzwVU+NcNkIfl3GSAUcVysB70GewnV/s0+R6HkBQwdPbBi9WqsrvlvlR8mOpSgoKgCsmKVibYGRqL9GKDWN4P8zKcoZytRqbLPUmRvB1tBJWTSZ2Chh/qm6kEo1AOI1dJ+E6nd81nzbyGUzTemdRbPCyV4YegIjxUqPlq9Cn4Tu6OBzrh82r3B2S3gn8Zcr4Iu7TTFfi4dMPnIfFoOtrJS5fdVRbC3s4WgUgbpM7bpcRGI8CJ2B3wWHUBO34+waLQNBNWnMpICFFXIUCzVcq0qjbFNHWEXzFk6FUYXvsWe+AokHr2Gt6aPh6ab6+zzQkheGMLRY4WKXlZjld9EqLtQE+p5qycUQg8ElgAmPxNPy1lU1g827GwFqJRJoXSrWp7rCaBXL0J6EAgA7e9JFaBdl86w1GOgqFL+Rb2SNH6MDLKSf4cMQog0C65p+aUGk5UMpZw1Nq5ETz1/Gg6IazwOJS2vLXVzuGmFfv3FEDGPkJCgvqtQHQFEL2Kxw2cRDuT0xUeLRsOmOkka4yuB6AVid/hg0YEc9P1oEUbbCBrmNgAIOmH+kcvY42mO8M3T0K+7K5aczgTDVT8ccluu9sAAA8ePxVspV3HpCQNAjofJGbBym4ARZtzx7C4SoNP8I7i8xxPm4ZsxrV93uC45jUwtd5H1VOtUY+Kro6412seNQD3XVWuFOlw1sjl1pWFfGvKMCx1+qs+fOM9pRISuPbvBFFWQy5X21h964+wVdpmDpVONcOHbPYivSMTRa29h+vjWOuqiA0oKilAhK4aGUDZEp2bRpHyogUtPuvvUnSdNQWOMOdFrjbatRahIuItYtZ8GJVbDAkAbAgt0sDFBcvB+XFV5sJtJC8GFxDboZGuM/JCTuFRcc4SFJCQIx1Lbaj+Wou55ITp06woLJhF37tbt+2Ir5agUvI2+zjbNcIAaQhGEGgoHkbotzUEAiw42MEkOxv76TkLIhbiGD/dx+TSuwdkt4J8mXq9LO02xX/iWdh2kvoVuXS3AJN5BnVksKuWVELzdF8423KPSROnFpZi0RoKpP2zEjP7WtQssAiB8qxNsjfMRcvIS6kyRICToGBpKskOzbGvl7oeFfR5i39cB2HWvJ2aNMlE/BQAgsOgAG5NkBO+/ijoXMkgLuQB1FzYVYYdu6GrBIPHO3dq94GArIa8U4O2+ztBiepMpLyzCi05O6PeW5gYbP0Y9tG7bGqKKBNxtKDiwTc0vNfRat0VrUQUS7saifuuEppVC7eNJbPPHa4sbEZy8vDHCPB/nDpyqft5AjcpHuHghDii9iKWT1kAy9QdsnNEf1ipJottXpbi4dBLWSKbih40z0F/1YnWYLCQ87QivHVeRnHgOa/pkYrfvZlyp4qgf8RYtV3sgQDuP7djtZYir323E9m1f4bTxSoQc8Ya9kDuecQoGWQlP0dFrB64mJ+Lcmj7I3O2LzVca8TvbLx3fJvgYgFAk1PBlEqE5UxtXjUx96w+oKy06L/+J81wtBFLJvaryCrDWjujVQeW2Vy2NtbcV3P0Wos/Dffg6YBfu9ZwF5bTCVRcT0aaTLYzzQ3CybuIFKwlB0LGUhs+R6dQsNSsfuPSUAl19NkdQ2ml6a4J2mDB7PNqm7cfSNeeRWQnIM+4hoYCBNDsDeSXlAFgwLKktqglQVKlMTKYYM28GOqcHwXPkTAT8GIxThwPh/XkUTLu0wfvzpqFj3hEs/MAP/w7+L45t+wRewSK4OrTmOCZs0Her8YuxqLcUp7YfQEolALDIuxyGrCGL8fEwQ4BlwCgIrEqxIFKKnWUBlN/Gzrnj8Y+ASxonEKG1LdobZCP613vIL3iIC7sP4YZEgcKsJyh6XgGWYaAgVuUTDoFAYFlW4y00gZERDPEMuTnFKIyJxOMh8zCjczqCPEdiZsCPCD51GIHenyPKtAtEABiGUS4IWOjwqbJgVlZWgSorIa/u/GX9o/N6VXRqR0+n/XW04tBBa4xfvAi9paew/UCK8qlcNg+Xw7IwZPHHUA6LOy714xCBmw/TkF+aiZQnpajICse5m7lgykuQGxuDBOH7mDetI/KOLMQHfv9G8H+PYdsnXggWucJBKICRkSHwLBc5xYWIiczAaB22aUTUAz5+41H1y3dIHDwL/dXdUYPpGMyb0RnpQZ4YOTMAPwafwuFAb3weZYouSsGAqR5nQ1gwjALEqkw+ymArz281HosX9Yb01HYcUAYbbN5lhGUNweKPh8EQAMOy1QvUGkjp29rJTPn/LKtSbqkcJbLqolkRj/1HH+NvXy7B4OpfgiAoUKU6t+gaYy0CtJswG+PbpmH/0jU4rxQc7iUUgJFmIyOvBHpjmpJf9RG0m4DZ49sibf9SrDmfiUrIkXEvAQWMFNkZeVCWQgYsqS2qCVCoDohrPG1aXlsN/MlKcHmDJ/6x6ZrKoq8OocM/EbRzGszO+2Ha6v/Do9K6Y6z0Dg5/dQbk3AtsyWOk5ZciM+UJSiuyEH7uJnKZcpTkxuJ2/mhuX5WW4HFaPkozU/CktAJZ4edwM5dBeUkuYmMSVM0BmCwEbw3CvXLAyP7vWPPlVNibGMJIj6P+Odi0YO0BpBdXY33WZHy3eRV8l27A1g2z4VRz654rniIGWcFbEaQ0Hn9f8yWm2pvA0EivQe2PKwdYhgXV5lOrl6trbBN8DCGsbdvDIDsav97LR8HDC9h96AYkikJkPSnC8wodtUKdVhw6bq2rrjSxrxaYl9VjkTH6z5rnqmELkZFenXhsDs6ejUOvRR9jdPV2BfWcbuy8LOrhA7/xVfjlu0QMntW/9sshU4662Ob9eZjWMQ9HFn4Av38H47/HtuETr2CIXB0gFBhBWZJyUFwYg8g4fR2a1Z4P5bd3Yu74fyDgUm6tvbVw6Un4knlSvyfdqG+SbhSMlG7t8qJBdlZkae9CEz71p/mDOtPgGV/QwZuPKencenq/g5BE9h60+cJDktw7QavfsyGh0Jbc156gO0U1G/HLKOmoL412sCJDAwvqNGQBHUqoeeKtjJKO+dJocTsyb2VLLjO20fUCles0HitV6zuFiIiq0s/S2on9yXnkdPL550c0e9G3FJ7PEJGM4k6tITdrIemLp9O2i4mUcv0ALXa1JIGJM3nvi6SsrIM0ub0ltbUeQgHxmna7P6PITWOok4UF2TpPpa3XLtKK/t1oxFx/Onotgk6tcSNroT6Jp2+ji4kpdP3AYnK1FJCJszfti8xWb4xIkUoH/yEmqzZi8tgWTc+JqCzpKPmOdiArQwOy6DSEFhxKoDIiepF8nta5tyeh0I48Np+hhGfE4dMqSrv6b1o8tA0JBNY0akUQ/XLzKSle0j/ZDNf1GuDUTi6H/ZrQpgMioipKP7uWJvZ3ppHTfeifH82mRd+Gk3JYcbrjohaHkuzTtHhAezK36krDvXfTtZ+8yM6yC43felP58p6yJDrmO5rE7cypla0Lzdh2nWpMUaQepH+IraiN2IO2RT/nto2LinDy6z+B9mbrOLEsiY76jiYHK0MysOhEQxYcogSlYOj8OndqLxSSncdmOqMUTC2yuFO0xs2ahPpimr7tIiWmXKcDi13JUmBCzt77KFIZbDq7diL1dx5J033+SR/NXkTfhucTQ0SlSWdp/fu2JBR1oSlbzlF8Riz9d+NE6iQUUZfJgfR/D57QneB19HdbIYk6T6bAkFSSl/1OZzfNohHvDqdJXp/QYp+PaeO5x/SCiBjJPTqx+j2yEQrJ1n0tnbhTpHyIhGuMDWBIemsXeQ2yIytLe3KZ8Cn5zx9EnQfPoC8O3qRcpqn5pda69Bbt8hpEdlaWZO8ygT71n0+DOg+mGV8cpJuPE+jc+vepg1BE9h6b6cLDHLp3YjW9ZyMkoa07rT1xh+pKIcd4WkhbWv2pSKVd779F7cfvoTStT9UoKP/Gblo88V0Sd+tNg0a9T5OnzyWflbvpRo0xTDadXjyA2ptbUdfh3rT72k/kZWdJXcZvpZsyHb7KraLs04tpQHtzsuo6nLx3X6OfvOzIsst42npT7fVY8hu0xrUrOb3nRSv9A2jVggUUeDWvWhsc9aPFag9D2cdnkZ2hHgEgPT0B6RtZkHW3EbToyEPlw2Ja4ymnG2tcqavTe+S10p8CVi2gBYFXlQ8Uq9WcvKRztP79DiQU2ZPH5guUUkGc8dVd17Ia72MiomeRtGlMJ7KwsCXnqVvp2sUV1L/bCJrrf5SuRfyiu1aow6FjrrrSqLpUdpymmJnVPlj40vOyhnn4z5rnqu5/SX0NbGjQNG/6ZOln9MmsyeT5xTnKUHDkdBPsrQj3o/4T9pJ6yLTVReWxY+Q7WkztzFuRrcsM2na9oLpfBaUe/AeJrdqQ2GMbRT8nbs1qzQeGsg9OpvaWbcl6SICKVSpw6YmrT515omFdxoEekfbdiTw1VCJyzce46x2EJV003T7h4fnjYTP3wGtzO3wfNAVW6gd5eHheESyyzwYg6PkH8HJmUSQtQWl5KaQ5D3DycC58QnZijLY7Sjx/DOUn8GF7Xxgffoojk2ueJvtroIhdB5fBZzAh6i42Omv5prrZsMjc44XN7b5H0JTXcFapjMSaj+/iqx+XqB95bWj6do43DhaSqL0432YW5vALaJ5XDoPSYikq2FJE7b4Mm1nj+AU0D8+fCJt9BL5+D9Dlb33QpYcTBgwZgdFjxmHKVHe4vNtTbUsRzyuBrYJC0B29euqrH/nr0OR9BhwwpSiWVoAtjcLuyzaYNe41nFVYCaL2nkebWXPUj7xW8ItoHbDSeMSy4+G/bCS/eOF55SjiNmOkjTWs27+DxcVzsHTIX+tbFh6e/zlElmhv/BuWDByNWUvWImDzJqxfuRCz//lfdFngja78dy2vBkUivhn5NnrN3IHz/xeDymnLMdfhr+d8RXExnjElkEh1/TpOY1EgbvNI2Fhbo/07i1E8Zylev2mFhTQ+Fux4fywb+XqvvPjtHDw8rzOKDFzacwwJbcdizjQXtOM/9vLw/PnIsxFz/izC4nNQLrSCXb8xmPS33mjz11vDvcYokPnbjzgcVgCL3uMw44P+aPcX87889TIO/RKB9BIFRJb2GDltHty6VD9x/RIoMi5hz7EEtB07B9Nc2vHfpr4E/CKah4eHh4eHh4eHp4nwH0B4eHh4eHh4eHh4mshfchHNPk9DfKqsdh9+WcZ9PMhSeXUPj5KKbMQ/zG/R5xUAAGwJ0u9E4mZCnsobg5pKGTLiklHY4sZxo66dptB0nZUh4/4DNPaSprffcrAl6bgTeRMJeRVAWQbuP8h6idjWpyI7Hg/z6zz+asbZNN//8VQgO/4hVNzA8zrQwlpvKi9Tj1qcP2q+aDYMpI/i8aRM/e9/IOxzpMWnQtYoJ7zpOd2I+Lx2mmo6/0OLaDmur3VF9+HLEVqgxeVMFn7b5oUBnXvCc2+y8sUubDr2zhkMV5/DyNNy2f8iJf/3T/R1fB+bo5+rH9INK8P9o5/BzcEBIzdFKn+MvIVgngRj5aItOHfzDL5wF6P3rCN40uA1RlywKIjeD98RDug+diuiW9I4LjRppyk0Q2ds+l7MGewKn8N5uotIM9pvGRg8CV6JRVvO4eaZL+Au7gWPBVMx2NUHh1/SEFZ2H0c/c4ODw0hsiqwO9CsaJ5fv5dfXwrX7cCwPLWhwrOVhIbt/FJ+5OcBh5CbUuIHndYBF+t45LaL1JvOy9agl+QPni+bCZPyGbXP6oXOf+TiW0aQJppkwyPptG7wGdEZPz71I5gwIn9M649OimmKRG30S3/t9gBFDh2LYhI/xr6PXUdutPBW/HdgE778Ng9vML7DvaqraW1NfEvUfjn5tkd+g5S6DaW2Ehh+FV0UeSZ+JDemdFTeVP3pPRKXp9yg284Xaif9LMFRw5zal1r4I4TmdntuT3L+Lo9pRMQV053YqaX1XgjpMJn0/ypCsZvynro2XhcmjnyZ3oL/vlRARQ0VXAmjWogP0sNFG1aCg1K1DyPCteXS2xYxrBBq00xSarrNSSr8XS429pOntvzxM3k80ucPfSRnSIroSMIsW7b5C92IzW0Q3TOb3NMrQimb8p661VzNObb6X043lLjR4bYTyJTqvBIYyvx9FhlYzSMUNPPVQr4GviNL0FtN6k3nJetSi/BHzxUtS8dsnZG/oQhsTX5Uo5BT5mZgM31lBN3UGhM9pnfFpYU0pEjfRu/oiEn8WqSFfXtB5737kfV7zC21ehv+Zb6KZzAy8vfI4NgxrpX6oPkJLWFro1fuTqZ0z+nZ87X7DpfGUxeD7dYfwqObTb2USJP2+xxHf3qgZVVnM91h36FHjv7EQWMDctL6fXprKaFyJLIOphREAAdq4fYkju+fhnSY/MS2EubkpWtg63WjQTlNous5MYefcF429pOntvzyV0VcQWWYKZUjbwO3LI9i9yA3OfTvWau9lEFiYQ12Gr2acWnzPZCLj7ZU4vmEYdFSaFkQAiz9D7/9LqNfAV4WpXYtpvcm8ZD1qUf6I+eIlEZqaw/SVrmCEsLS0aGSe8jmtMz4trCm9tm1gpacHc0tLDVssBGhl9Tbatmn5H3Fv2JcO2NxYXA4NQUjodSTLWIDJwd1LIQgJuYToJ+W155VlxiNFwgKV+UiMikJSge7qV1mQjJthYYhJlaLBDYA2AzGkfSZuJxdo/OpfUZyKW+ERuJ/1Qv0QUJGNuCT127YVyE24gfDIWGSUaLpVx0CadgfXI6KRXKCpR02wyI29jNCQEIReT4bSPXdxKSQEIZeiUeeeMmTGp0DpnkRERSVBm3vYwmjsmDsL226lI/bXUFxLKARrMADzF7yDvJR8sGBRGL0Dc2dtw630WPwaeg1xCfcaESMB9DTpl5Ei7c51REQno9HDBiDPvIVLv0bjcQmDoqQrCLkUhdTanSblyIm/gbCIu8h4ru7rShQk30RYWAxSpXVR11MxrjIvATc0+UghwaOYa7gadhtpsvqKYWWPERN+HbGZJZDk5IJrWxandgCU58TjRlgE7mY8576930BnuuNckR2HJLVbxVrzoEH7aKROWUgSwxAaEoKQkBBciklHOQCUpyPmUghCQsOQKFEfmRyZty7h1+jHKGGKkHQlBJeiUqEMaQWy45JUtlvoHqdC8ggx164i7HYa6oVKoNdwoqk3zhI8unEJIdW21/4XGomU6o2JWtsGtOoLWnwPtMHAIe2ReVuD/ssyEZ8iAYtK5CdGISqpoPEfWmsoz0H8jTBE3M2AaioINCajCuxzPElMw3OWgTQ1GhExqWpjLUdmfDIKmQrkPLiF5OK6g9r02yBH2FzEXg5FSEgorifLwIJBzl2l7y9FP1FqBgD7/AkS056DZaRIjY5ATKpMqdNGXg9o9wNYGR7HhON6bCZKJDnILdNSA6tPZ6RpuHM9AtFa5oV6cNQLTf0qUdd69V9zE3AjPBKxGSUNaoLOuY/LjkbUo8aMmZUkIiy0OlcuxSBdmfBIj7mEkJBQhCVK1C+pRbNetMwX9dBdB7jrVTmy4pR7iBlZGu5E3UdmTRwq85EUFYkHOSq70/VqagdBUfgQ0dGJyFPbvF6eGY/kQgYVOQ9wK7m4rp5q058mFMVIvRWOiPtZ0BgRLW3pzOnm2KdNpzrrA3T4XlfsWMgexyD8eiwySyTIqUsQ7XrWGR8tmtI29hZGZ542kiYvogWtO+Ht/J+wYJIP9icpAGFrdLROwY6ZE/FZcA6qCm/hsN8oOIjfR+CJ/VjgPg4zZo+DU28PBKU2iKoSthBhm+fA619XkFEQh50TxXDxPYNcFgBkiP7OC56rghGfmYKzy4ahh3sArtU+cVaO+L2z4e69H7HZqTi3xhdBj6r7YaW4f2Ilxjp0xfANEXUPh5TcxFaPCVgfXQXDkgv4ZJAj3h01FuOmbMK1cgCyaHzn5YlVwfHITDmLZcN6wD3gWiMechOgdae3kf/TAkzy2Q+lezrCOmUHZk78DME5VSi8dRh+oxwgfj8QJ/YvgPu4GZg9zgm9PYLQ0D0sZDkSGFuZgWXlKJPJUFJaVDumEZsiUcnKkCMxhpUZC1ZeBpmsBBVm3DFq0E01sujv4OW5CsHxmUg5uwzDergj4FrdhMUFVZahRFaGKhCqykogkz1DBcOCzQ3FRp9lCAqPw+2TyzBUPBxrr0jAAmALw7B5jhf+dSUDBXE7MVHsAt8zuSr9VeLJz0sxbeYiLJjkjN6T9+FxtfFM2lHMHTQF3z8oQl5UINzFQ7HhpnKarozbAS/f48hSVCDpwEwM+vBHpGvMDw7tQLkoCN3og2VB4Yi7fRLLhooxfO0VNFhvNtAZqzPOrPQ+TqwcC4euw7EholqZ2vJAod5+NY3WqQDGZmW4/OU0jJ+xG+nW7ZTfrBm1gfDGJqw5XwZLM/VSQKgsK4GsrAqgKpSVyCB7Vg7J3RNYOdYBXYdvQESF7nECDNKOzsWgKd/jQVEeogLdIR66AdWhqk8DPwKofIjDm4MQk10MmUwGWdEd7PGZiCmrz6NASJxta9OXQpPvufTPFuLWYT+MchDj/cAT2L/AHeNmzMY4p97wCErVmk/1YZEbuhE+y4IQHncbJ5cNhXj4WlxpICZ1GGRF7IT3ADv0mLETxzaMRb+BY/DeYEeIRwfgRgmLgugDWDLKAeIx/tiz5UMMdR2MAfOOQMKhX405wrZGp7fz8dOCSfDZnwQFhGjd0RopO2Zi4mfByKnMQsRObwyw64EZO49hw9h+GDjmPQx2FGN0wA2UCHRcr1xpa/dDZRx2ePnieJYCFUkHMHPQh/gxvbJhDSxXNGJeqA9XvdDWr/S+qtZrWirBza0emLA+GlWGJbjwySA4vjsKY8dNQcDpCJ1zH6cduupRE8YsMDZD2eUvMW38DOxOt0Y7ZcKjjfAGNq05jzJLM/VLGl/vGtCYOsBVr1gU3zmKZe+J0W2EP4JPrcfM6V74aMpgOA5ahtA7R/Dx+MmYt3AqBjkOw/p6xYOQf8EXrs6ucBvaG/aOk/D9nVKwBdE4sGQUHMRj4L9nCz4c6orBA+bhiIRDfxooj9+L2e7e2B+bjdRza+Ab9Egl35vWlirNsk+jTuU66kN1hxy+1x27SsTt8ILv8SwoKpJwYOYgfPhjOhQ69Qyt8dEMx9hbELY5a1Qu1Pd3NAZF0iYaYNSdlt+o3nkiv0HLuxvT4K9/JwURKR5/Q0MMLMhlyRlKkxOR7D8009qQhn7zWMOeXYZyj3uSg/suymCIiKoo4ZsR1LrDXDpdSiS9uJDEjn4UXrNppiySljkakM30nymPISqLXEF9usyjM9Lq46Xnab6tft0+MiaXdrkZksW0k6TcDVNF8RvfJTOXjaTcqlNF977oQ4ZdF1OYnIhIShcXisnRL7x2n05Z5DJyNLCh6T/nEVP9N+0oKGnTADLqvpzq3LOcuhsPpq9/VxCRgh5/M4QMLFxoyZk0UrpnJlkbDqVvHjf0DhFDOT+4kZGtN12sqPmTcky1e4mYHPrBzYhsvS9SzSm6YkT0jA5OMKprQ3qRFoodya/O0RS5zJEMbKbTz3m6R01ERGU/0SQjS/IMrt53xOTTiZmjaFV0tQ1MBm0fYUD6zuvovjyXjns6kPuuDKVPqxLomxGtqcPc01RKRAV73MnIfDCtDS8ghoie/99csjEaQd+mM0SkoIdfDSST/hsovoqIqm7R6l5G5LTuPlWRnKKW9yKnz6OrfZNHxzbtpMQqFTur4dYOQ/knZtKoVdHV+6sYytg+ggz0nWndfQ2NNdCZ7jgzubvIzdCCpp0s05kHDdtvuk7Lwv1IbOhIK6KqVcLk0eHZ02lPpqazlZT9NImMLD2pJqREDOXuciNDi2l0sox0j1PxkL4aaEL9N8STMlSrqZeRU50Pnx2kCUYqe6LVx1mVQOfPJ5Py7OcU9UV/MrMcRl/fr+Bum+HWV33fN0L/isf0zRADsnBZQmeURY3+M9OaDId+QxrTVg0m/wTNHLWK6lJhO40w0CfndfepioieHZxARlr3T8opanl30rcZTetDn1IVlVHSvslkKzSg/v4PqIoYytg+kgyMe9OSXwtImniFQh8UUq5W/ZZpzxFFEm0aYETdl9+ovk5ON5Z3J+PBX9PvCiKSR9Hy7vpkM3o9hT6tIipLon2TbUlo0J/8H1TpvJ7LD2VRy6mX0+cUrTSK8o5top2JVaSpBuqaF+rDVS+I5Bz91tc6UVX8RnrXrG6fZ9W9L6iPYVdarJw8dMx93HZw16OmjpmIysLJT2xIjiuiqucFhvIOz6bpezI11Add9U5tvmiAjjqgs14pY2xoMohWh+eSgojk974kJ/1WNPjzX+lpFRFV3acvnQypi+81qqjJdwNbmrjjFkkURKXx+2iqvT4ZugRQXJVSWyMNjKn3kl+pQJpIV0IfUGGudv01qOplkbSiTxeaVxcQOj/flvSr90RzaVl3TjfdPu35oas+6PK9jtjJo2h5Lyf6XNkxMXnHaNPORKrSoWdd8VHXlC5/6oLJ301jDfSpf0CChvPldH3FRFpVvZmdO0+bhvrXTy2C0MwMpkJzOLm7o7MBAFMxunUUoERWjIZvdpEi5EQoDJ1d0F4AACL0XB4GSfYheJgW49y+n5Hl0BfONZvSTAbC00OMovPHESIrRejuQ0jrPRKjLKuPG3WGvY3KJlyBOczNVO8ZKJCeloXK2tvIInTu3BHISUf6CwDF57Dv5yw49HWu3QdnMtATHuIinD8eAplKS81DCDMzUwjNneDu3hlK93RDR0EJZMUNvaMRgTnMG3xz+HIUn9uHn7Mc0LfO0Rjo6QFx0XkcD2nmqMvDcDo0G4/Ob0NgYCACtxzDC3d/BMzpD2NpCE6EGsLZpb3ydoioJ5aHSZB9yAOmNdebvIOBA5RvUzLq1AnWkEEqZQEIIV50GBHHfGGfFYYDWw4iWspC/qICLESwFdsh49uJGD73K5xK1Ifn2k/Ro8FWKF3aKUfY6VBkPzqPbYGBCAzcgmMv3OEfMAf9jVWaqaGBznTHWWBujrpLuPJAQ/vN0KnJEF98OjQbh789pbxlmhGMC/qTMbVjU7QkgLm5mcoWDB3jFIqx6HAEjvnaIyvsALYcjIaUleNFhZZvF9THKeqJceO6QwQWktDPMe9fTzFq60EsdzLkbluHvur7vhH6F5rBzFQIcyd3uCuLGsTdOkJQIkNj0rY87DRCsx/h/LZABAYGYsuxF3D3D8AcjWJSRwBjYyMI27likpstRDCBo9cG+DgR4sPDkc8KYGxsAIGFC9yGtYNlDze49zFChFb9NjZHNCAwhrGREO1cJ8HNVgSYOMJrgw+cKB7h4bp/qorLDyJbMewyvsXE4XPx1alE6HuuxacajdI1L6idzlkvwNGvutYBRXoasirrbkOLOndGR+QgPV15o5977uOyQ1c9auqYAZgMge+nQ5F9+FucUiY8gi/oY/LUjhpuQTex3jVARx3QWa8EMDM1gZ5BZ/RzaQ8hAAOxA+xEQMd+Q2ArAiCyh10HPZRIpXXrCKEN3nXrh9ZCwLTXR9j22VDoxUfgehELgbExDAQWcHEbhnaWPeDm3gdGEdr1p05p6G4cSuuNkXUBQWd7G9TOEBxabgxNtY9Lp5z1oUiX73XETmQLsV0Gvp04HHO/OoVEfU+s/bQHRJx6roYjPuq8tD/19JR5qeX9gSwDCKuFz52nTaNhLrUEtXthav4thFAPIFaDeYwEBUUVkBWrJEbtsXxkPi0HW1mp8judItjb2UJQKYNUmoHk32WAUMQxEL16+2sBAwwcPxZvpVzFpScMADkeJmfAym0CRpgBTH4mnpazqKxU2bwjsoedrQCVMimeNYx9k6lvD6AnFEIPBE3u0Uy1WFoMBvmZT1HOVqL+sO1gK6iETPpM5+SoCfZ5ISQvDOHosQKrV6+u/W+V30Q4lBSgqEKGYmkjBy0UQAgGiirlPwWiF4jd4YNFB3LQ96NFGG0jqNaPAJ3mH8HlPZ4wD9+Maf26w3XJaWSq36Vhsri1wz5HoeQFDB09sELF9tWr/DCxu6aJXV1njYhzTdJDRx4ADdpvlk6FXTBn6VQYXfgWe+IrkHj0Gt6aPh6t1c/TgZ5afnOPUwDRi1js8FmEAzl98dGi0bARaB6hkoZ+BAA2Oxi+C/ZDPm0XguZ3rZ7ItLfNSHToS9X3jdK/es7pQagsalripQqL54USvDB0hMcKFS2tXgW/id2hSU06EXVFz26mQJUccgKgvrOcU78GjcuRRiLq2hNKU+Q6fMHtB4NO83Hk8h54modj87R+6O66BKc1GaVrXtAgfu31AhBw9KuudYOB4zH2rRRcvfQEDAD5w2RkWLlhwojq7RE65j6tduiqR80YMyBElzlLMdXoAr7dE4+KxKO49tZ0jNeU8Jx6aZxC1fNWtQ40pl6pXw89AfTqKUoPAoHWNRIAAdp16QxLvbp5on6L3PqrP0oGWcm/QwYhRBoD0pS2tNMU+xqdH6hfH8rzmu77ejVc0Anzj1zGHk9zhG+ehn7dXbHkdCYYLj1rpGF86uAee6P8aWwCIwGhvKxMw3qFxfNSwNS8+iOQjjxtChrloROhCEINiz4iLQHlQvgWOtkaIz/kJC4V1/yRhSQkCMdS30K3rhZgEu/gbu02GxaV8koI3u4L5w5t0ba1CBUJdxGr9sN/xDZ0oxIB2nlsx24vQ1z9biO2b/sKp41XIuSIN+yFgLBDN3S1YJB4527dgzBsJeSVArzd1xk2jfCYUCTUMLkSmuOeZtOkGAnRoVtXWDCJuFPnaLCVclQK3kZfZ5tmCUVg0QE2JskI3n8V0tq/MkgLuYDENp1ga5yPkJOXUBd2CUKCjiFFk4n1KMXFpZOwRjIVP2ycgf7WNSlGyuKX8BQdvXbganIizq3pg8zdvth8RU0geq25tSOwQAcbEyQH78fVOuPBpIXgQpzGDdYvB1ceaHBIc3Xayt0PC/s8xL6vA7DrXk/MGmWifkrLUnoRSyetgWTqD9g4oz/qhaqxKFIQ5LMY/2fxT/z43RTYCABWWgCJTHvbwreaoq8/Rv91CGDRwQYmycHYX19MCLkQ1/iHE4lUJocqlFewsHbshQ6afv2GU79yjhwRQlm+GhSOenu/iVTqa1U5KlhrOPbqACHn9dx+kGcl4GlHL+y4mozEc2vQJ3M3fDdfafibrsIO3PNCA/Fz1QuAaWy/AATtPLB9txcMr36Hjdu34avTxlgZcgTe9pqCoA6HHbrqUZPHXE0rd/gt7IOH+75GwK576DlrFDRmPKdeGq1QrTS3XjWV8sIivOjkhH5vaWqQW3/1R6mH1m1bQ1SRgLsNAwK2SW01Fu42deaHlvrQseNL+p7JQsLTjvDacRXJieewpk8mdvtuxhU5h561oD0+3GNvlD8NOqNLRz1kP0pBg13XTDrinrZG906NydOmoT6SRiG0tkV7g2xE/3oP+QUPcWH3IdyQKFCY9QRFzyvAMgwUxKoUUgKBwLKshk8IrfD+vGnomHcECz/ww7+D/4tj2z6BV7AIrg6tMX7xIvSWnsL2AynKJ5HZPFwOy8KQxR9jmHE7TJg9Hm3T9mPpmvPIrATkGfeQUMBAmp2BvJJyACwYluotqqUXV2N91mR8t3kVfJduwNYNs+FUc8em1XgsXtQb0lPbcSBF+QQrm3cZYVlDsPjjYTBEOW7vnIvx/wjAJeWTj2oIYW3bHgbZ0fj1Xj4KHl7A7kM3IFEUIutJEZ5XsGAYBYhVWeASKRNT48JfACMjQ+BZLnKKCxETGYdysGBY5UTFAoDACMpTclBcGIPIuHKdMQIYMIyyQLMAWo1fjEW9pTi1/QCUw2aRdzkMWUMW4+NhhkD5beycOx7/CLhU/cCnBiorUUWVqJRXn2A6BvNmdEZ6kCdGzgzAj8GncDjQG59HmaJLm/cxb1pH5B1ZiA/8/o3g/x7Dtk+8ECxyhYOw2hcNPohU/50tweO0fJRmpuBJaQWyws/hZi6D8pJcxMbEISt4K4LulQNG9vj7mi8x1d4EhkZq33IIdGlHD2PmzUDn9CB4jpyJgB+DcepwILw/j4JpF02fi9V11og4swxYIij/yZUHwobt69SpFkQ94OM3HlW/fIfEwbPQX9NQVKisrAJVVqImpADAMiyIanKZe5xsyWOk5ZciM+UJSiuyEH7uJnKZcpTkxiImoRRgGDDVtaG6dTU/luPO1x9h9Y2uWHVwM9yslH+VhpzB5VyOtrOGcehL3feN0D/LgFEQWBVNKofJKtvQkR+mY+ZhRud0BHmOxMyAHxF86jACvT9HlGkXiAAwymSstUcTbGEG0qtnBzbnLM7G9cKij0dX36IlQFGlMtmYcuhXT3uOCK1h294A2dG/4l5+AR5e2I1DNyRQFGbhSdHz6m9BWRRmpFdPVCxyzp5FXK9F+Hi0kc7rhRx+0MsKxtageyiHEez/vgZfTrWHiaER9BrUwAyM5poX1MXPWS8SwGjtV13rAKQXsXp9FiZ/txmrfJdiw9YNmF07eYB77uOy43a+jnqkzz0Xqo+5FhF6+PhhfNUv+C5xMGZpTXguvYgazBcN4a4DjalXTHXNr2uflP6rnQSU/8+yKh/nqBwlsuplZEU89h99jL99uQSDDWquUKBKZQWmKw/rEKDdhNkY3zYN+5euwXllQHAvoQCMNBsZeSXQ09FWY3K6KfZpzw8lWuuDTt/riB2TheCtQVCWi79jzZdTYW9iCCPi0HNMQnU7XPGprymusYvAQnJ5Azz/sQnXVNbY9TAYhPkLh0BwZQe+uppf96G/MgfXAlfiai8vjK3eK8qZpzXXNRb1TdKN4xlFbhpDnSwsyNZ5Km29dpFW9O9GI+b609FrEXRqjRtZC/VJPH0bXUxMoesHFpOrpYBMnL1pX2S2emNEVEZJx3xptLgdmbeyJZcZ2+h6Qc2jD1WUfnYtTezvTCOn+9A/P5pNi74Np/yaw4yUbu3yokF2VmRp70ITPvWn+YM60+AZX9DBm48p6dx6er+DkET2HrT5QgoRMZR9fBbZGeoRANLTE5C+kQVZdxtBi448VD5UUZVOZ9dOpP7OI2m6zz/po9mL6NvwfOXDGEw2HZzcnizbWtOQgPjaEdTjWSRtGtOJLCxsyXnqVrp2cQX17zaC5vofpWsRv9AaN2sS6otp+raLlJhynQ4sdiVLgQk5e++jyOyGj3woUg/SP8RW1EbsQdui8+rG1HkyfXUxRflykoP/ILFVGxJ7bKPo58Qdo9tPKfn8OnJvLyShnQdtPpNARERV6Wdp7cT+5DxyOvn88yOavehbCq92NJN9kCa3t6S21kMoIL7htv2qtKv078VDqY1AQNajVlDQLzfpqYKIypLoqO9ocrAyJAOLTjRkwSFKqHlIrSyJjvmOJnE7c2pl60Iztl2nAoZI9uAX+nyU0kee35ynhOQI2r9kCFkKTan/wgMUnVdF2acX04D25mTVdTh5775GP3nZkWWX8bT1ZgHdWONKXZ3eI6+V/hSwagEtCLyq+cEbTu3kKnV51JdGO1iRoYEFdRqygA7VGq9KaQOdyeJOccf59wQ6t/596iAUkb3HZrqQUsGRBw3bJ9KhUy4qwsmv/wTaq0FrdVRR2tV/0+KhbUggsKZRK4Lol5tPqSTpHK1/vwMJRfbksfkC3bmjY5xZWXR68QBqb25FXYd70+5rP5GXnSV1Gb+VbuYl0/l17tReKCQ7j810JiG3wTgrolZTHyMBWfafQcs//5w+//xzWuk3l4a/8w868Txbe9sy7fqi0iQNvufSv4ziTq0hN2sh6Yun07aLiZRy/QAtdrUkgYkzee+LpKws7vwgIipLOkq+ox3IytCALDoNoQWHEqiMiF4kn6d17u1JKLQjj81nKOGZ+pVVdP/LvmRgM4imeX9CSz/7hGZN9qQvzmWQghiS3DtBq9+zIaHQltzXnqA7RTVx1aZfOWeOPIvcRGM6WZCFrTNN3XqNLq7oT91GzCX/o7epSH6fvuxrQDaDppH3J0vps09m0WTPL+hcRt3jOJzXM9r9IL+xhly7OtF7XivJP2AVLVgQSFerjapfA5/rnhfqwXDUC5nWfkvVtJ5SQcRkH6dZdoakBxD09Eigb0QW1t1oxKIj9LAgTsfcl8Vph+561JQxq1JB4X79acLebB21QZteXmicL1TRWe+yGc56VZp0lta/b0tCUReasuUcxWfE0n83TqROQhF1mRxI//fgCd0JXkd/t1XOe4EhqSQv+53ObppFI94dTpO8PqHFPh/TxnOPlQ+pSe7RidXvkY1QSLbua+nEnaLasWvTX0MYkt7aRV6D7MjK0p5cJnxK/vMHUefBM+iLgzcpl0PLunK6OfZp0yl3faiGw/c6Y/fkOq1x7UpO73nRSv8AWrVgAQVeVT4Myqlnjvho05S2sRMpKHXX+/RW+/G0J43j0T+miG78sIDe6+tITkPcaOwYNxox7D2a/dWvlFlTlmW68lTTGlU7ekTadxj9NWGRfTYAQc8/gJcziyJpCUrLSyHNeYCTh3PhE7ITY7R+qq+jMnINPr7rjR+XdFE/9BemEpFrPsZd7yAs6dLyt0V4Xg1s5h54bW6H74OmoPqLXZ4W4Y/KDwVi17lg8JkJiLq7Ec7avkx8FShisc5lMM5MiMLdjc6N26v4F4LNPouAoOf4wMsZbJEUJaXlKJXm4MHJw8j1CcHOxkwerxo2E3u8NqPd90GYwif8X5DXqD68gTRrO8f/Mmz2Efj6PUCXv/VBlx5OGDBkBEaPGYcpU93h8m5PaLxTrwYricLe820wa86btIBmIYnai/NtZmFOiy4QeF4NDEqLpahgSxG1+zJsZo3jF9AtyqvJjybfavzDeH0seWWw2Tji64cHXf6GPl16wGnAEIwYPQbjpkyFu8u76NmYyeMVwpQWQ1rBojRqNy7bzMI4PuH/8ryBWfmn88YtoiGyRHvj37Bk4GjMWrIWAZs3Yf3KhZj9z/+iywJvdNU1/7FSxMeyGO+/DCPfoKLESuMRy46H/7KR/OLrfxBF3GaMtLGGdft3sLh4DpYO+VNeZPyX5Y/NDwWKi5+BKZFAqv6isVeNohjFzxiUSKRa35b310UEy/bG+G3JQIyetQRrAzZj0/qVWDj7n/hvlwXw1jl5vEIUcdg80gbW1u3xzuJizFk65M95dTnPK+A1qg9vIG/gdg4A8mzEnD+LsPgclAutYNdvDCb9rTfavEY1kIenRVFk4NKeY0hoOxZzprmg3Zv38fl/FDlSLx/CLxHpKFGIYGk/EtPmuaFL9YNTrxR5Ki4f+gUR6SVQiCxhP3Ia5rl1wZ9hyp+HHNkx53E2LB455UJY2fXDmEl/Q+/XbvJQIOPSHhxLaIuxc6bBhU/4vyivUX14Q3kzF9E8PDw8PDw8PDw8LwH/8ZSHh4eHh4eHh4enifCLaB4eHh4eHh4eHp4mwi+iXxkVyI5/iPzX8fFZ9jnS4lMhex1te20oQ8b9B8hSeXPqq4R9nob4VBn/9PUr4c+NdeNh8TwtHql84v51+Z+rzbwmW4KyjPt48NoWoNc4xmUZuP8gq/qlUK8GfhH9h8NCdv8oPnNzgMPITYh8rZ6eZZD12zZ4DeiMnp57kdyId2tWRq3HsO5D4Xc+741a0LHpezFnsCt8Dr/icTNZ+G2bFwZ07gnPvcmNe/0pDwCAzdiLqd37Yvre5Cb9ksSfFusmwGT9hm1eA9C5pyf2NiZxef7HaHpt/rPhNdlCsOnYO2cwXH0OI+81K0Cvd4xZpO+dg8GuPjj8Ch33Ziyi2ULcvfO47jWQrxQBLJ1nYOkkscrrS18XhOg42hc+I9o00rZK3D8bgqoPNmP9+PZ/bfGoaUZgvwA/3YzCvrmveNzCjhjt64MRbUjtFeg83LDICzmLJJfPsWX+O036BYk/LdZNQNhxNHx9RqBN4xKX53+OptbmP58W1eSfOme/algU3r2Dx3WTDRb8dBNR++ai/WtWgFo0xi2OAPYLfsLNqH2Y+wod9+p6+hMpi/ke6w49+hO/xRPAwty09h33rxdCWFpaNM425imedFiGE5tG/AG/hft60VAzprBz7ouOf8aPrQotYWnRqAjx1FKORHYcDgXNgF2Tf33sT4x1ExBaWoKXxV+ZJtTm14SW0mTD+vsXpiwG3687hEcqgzW1c0bf17QAtVSM/xBM7eDct+Mr/U10ob+/v7/6H3XD4vmTJGSL2sKi/DFu3f4dFa1s0Nqobk1enhmPx5VtYVYSj3vZBmjf1li5YmekSLt3B/GZL2Bs3RamQgCsBInhEbj78HekpqahWL8D3rbUR3l6DH67GY/U7EpYdbKGiR6A8hzE37qLlEI9tG5vCUPVYFYWIPnWbSTkKNDKpjWMBSwKo3fCe1YAovS7o1drBapa2cHaVHkRI03DvTvxyHxhDOu2pmjUXMvK8PhWDBKLBLDUL4OUzGFe+zUXA2naPdyJz8QLY2u0Na1rserBz/jmkiE+WDYFPVRebNUcG9jnT5CULUJbi3I8vnUbv1e0gk1ro/qfiDT5WRVFMVLv3EJCgR70Hv2Cg/Gd4fXPMXhbCKA8E/GPK9HWrATx97Jh0L4tjAWAQlqIF1CgSAJYtreCSri1wsoe41ZMIooEltAvk4LMzeu+FdQWSy39c1GRm4CYe49QrNcK1pZGDSae8px43LqbgkK91mhvaVh7vKF9pijRopmK7Dg8Km+HdmZ1rXPFrywzHk8U7dBWVIDEmDgUGdqgnanKQBQSPLodg9jUIsCyPazUHKooTsWdWwko0NPDo18OIr6zF/455u3aPrj61gr7HE+SsiFqa4Hyx7dw+/cKtLJprRZL7ToGypEZ/xiVbc1QEn8P2Qbt0VZDcNjcWFy5cR+PUvPAtO2Itvq5uHs5Eg9+T4NE1AFvW+kDLeCj+rDIjb2CG/cfITVPiIEfvA97yV1cjnyA39MkEHV4G8puy5AZ/wSKdm0hKkhETFwRDG3aQbVbTbGuLEjGrdsJyFG0gk3r6nqGptpYDWcdKUdO/C3cTSmEXuv2sKxX5BQoTr2DWwkF0NN7hF8OxqOz1z8x5u2aGHFd20g0jKfF4gkAZdmIuxWLtDJjWLcqRWYWodWLh41qHxy53BBVPTBo27Et9HObpweF5BFux8RC6ZKXr32cY+CqzcqLNddNbWjN+cb6Bzp01ZKa5JqztbWjO37ar21cPatHRS4SYu7hUbEeWllbwkh9ONrioyHnTUuisdN7FgKi9NG9V2soqlrBztoUehXZiHtUjnbtzFS0wVWXdftAu4Z1X6s7xly2NYQtfojr4XeQ9HsqUh/ng233NtoalSL1RhhiElORz7ZFp7ZGGmtRDZrXmBXIjnuE8nbtUFe6uWxjIXt8CzGJRRBY6qNMSjCvK8SNQodaGsJkRWCn9wDY9ZiBncc2YGy/gRjz3mA4ikcj4EYJ2IJoHFgyCg7iMfDfswUfDnXF4AHzcEQCyKK/g5fnKgTHZyLl7DIM6+GOgGuFYAXGMCu7jC+njceM3emwbqf8HGHURogbm9bgfJklzAQsckM3wmdZEMLjbuPksqEQD1+LKxJWmXhhmzHH61+4klGAuJ0TIXbxxZnsYuRIjGFlxoKVl0EmK0G5AgBkiP7OC56rghGfmYKzy4ahh3sArhXq2EdTGYcdXr44nqVARdIBzBz0IX5Mr/74KIvGd16eWBUcj8yUs1g2rAfcA65Be5PNsIHJQsRObwyw64EZO49hw9h+GDjmPQx2FGN0wA2UVJ+m1c/Vx8vj92K2uzf2x2Yj9dwa+AY9Ut42YwsQfWAJRjmIMcZ/D7Z8OBSugwdg3pECpB2di0FTvseDojxEBbpDPHQDbpbXmaaJyrgd8PI9jixFBZIOzMSgD3+E0l1aYlmYp6V/iXrTKpTg5lYPTFgfjSrDElz4ZBAc3x2FseOmYNO1coDNRehGHywLCkfc7ZNYNlSM4WuvQMJqsa9S1kAzpUX3cWLlWDh0HY4NETWPLGiPH1t4C4f9RsFB/D4CT+zHAvdxmDF7HJx6eyAoVXnPjkk7irmDpuD7B0XIiwqEu3goNtQ6tBzxe2fD3Xs/YrNTcW6NL4Ieqd7Y1N63dhhkReyE9wA79JixE8c2jEW/gWPw3mBHiEcH4EadeLTomEVB9AEsGeUA8Rh/7NnyIYa6DsaAeUegKTqC1p3wdv5PWDDJB/uTFICwNTpap2DHzIn4LDgHVS/tI00I0LrT28j/aQEm+eyHstuOsE7ZgZkTP0NwThUKbx2G3ygHiN8PxIn9C+A+bgZmj3NCb48gpDIAK9UQa7YQYZvnwOtfV5BREIedE8Vw8T2DXLY5NnLXETY3FBt9liEoPA63Ty7DUPFwrL0iUeZueTz2znaH9/5YZKeewxrfIKjKgvPaRqJtPC0RT6AciYcWYdzsLbiUmIyIb6fDuXMPTN6bDFZH+8r6pD2XNfPyegCYlq19OsagtTYD2uumVgfoynld/lH2zKmrltYk27D+liu0tVOIfJ3x035tXhPqWQ0lN7fCY8J6RFcZouTCJxjk+C5GjR2HKZuuoZwrPhpzvhKyHAmMrczAsnKUyWQoKS3C/RMrMdahK4ZviKh7QI6jLjdfw425VneMtdumco4aAtM2MEz+N+ZPmITN9yzRwVQAwARvmd3C9m13IGptorUWaV5jemHPtRNYOdYBXYdvQN00zWVbJeJ2eMH3eBYUFUk4MHMQPvwxvel3P6gZyKOWU3d9Gxq9PpSeVhGVJe2jybZCMujvTw+qiJiM7TTSwJh6L/mVCqSJdCX0AUkkF2mh2JH8wl9Ut1JGkcscycBmOv2cxxBRGYX7icnQcQVFVSjPYPIO0+zpeyiTIWLyT9DMUasoWl59LGM7jTDQJ+d190mee5w8HdxpVwZDRERVCd/QiNYdaO7pUiImh35wMyJb74tU3SxJLy4ksaMf1ZkSScscDchm+s+Up2xCI/Ko5dTL6XOKfkFExFDesU20M7GKiKR0caGYHP3Cqa7JZeRoYEPTf84jhoieHZxARlYz6D/VJzTXBpJH0fLu+mQzej2FKp1P+ybbktCgP/k/qCKS6vBzWSSt6NOF5p2RVh8vpfPzbUn/nRV0U05ETAZtH2lAxr2X0K8FUkq8EkoPChLpq4Em1H9DPFURUdWt1dTLyInW3a9SMUwdOUUt70VOn0crfcLk0bFNOymxijuWVZr6l2h3SFX8RnrXzIU2JiqU/773BfUx7EqLw+RExFD+iZk0alU0KbtiKGP7CDLQd6Z198u02qdJM0zuLnIztKBpJ8uIGhE/xeNvaIiBBbksOUNpciKS/YdmWhvS0G8ek4IU9PCrgWTSfwPFKx1Kq3sZkdO6+1RFRGWRK6hPl3lUF6LzNN9Wn95ZcZPkjehbO3KKWt6d9G1G0/rQp1RFZZS0bzLZCg2ov/8DqtKpY4Yyto8kA+PetOTXApImXqHQBxLS1qUiaRMNMOpOy29UB1p+g5Z3N6bBX/9OCno5H2lHQUmbBpBR9+VU1+1y6m48mL7+XUFECnr8zRAysHChJWfSSNntTLI2HErfPFZqqH6sGco97kkO7rtIWV6qKOGbEdS6w1w6Xdo8G7XWESafTswcRavqEoO2jzAgfed1dL+qjCJX9KEu885QnSzmk63+O7TiplzHtTU964J7PC8XT6Lnv/lRL+cVdEOZQspa9o4h9Vp9qxHtc+Uy1wBfUg+Khy1Y+3SMQUdt5qybtX2royvndfiHU1d/kCbV6y9nOzrix3lt0+oZVcXTxnfNyGVjIimIiKru0Rd9DKnr4jCSE3d8yrTlPDGU84MbGdl608W6yYZ2uRmSxbSTVD3b6KjLOnzAqWEd15KOGOu0jYOqeNr4rjHZzjtDMiKlLw5+QitCnuusRRrXmAxDubvcyNBiGimnaR22yaNoeS8n+lwZFGLyjtGmnYkcuaSZJn8TDQACY2MYCdvBdZIbbEWAiaMXNvg4geLDEZ7PQmBsDAOBBVzchqGdZQ+4ufcBLuzDz1kO6Otcs1vFBAM9PSAuOo/jITIAJhji+ymGZh/Gt6fywYJBRvAF6E+eio4CoDzsNEKzH+H8tkAEBgZiy7EXcPcPwJz+xpCGnECooTNcqjeTi3ouR5gkG4c8TOvZraQY5/b9jCyHvqgzZSA8PcQoOn8cITK101UQ2Yphl/EtJg6fi69OJULfcy0+7SECis9h389ZcOjrXLsXx2SgJzzERTh/PAQNm2y+DRAYw9hIiHauk+CmdD68NvjAieIRHp6PonPcfi4N3Y1Dab0xcpRl9XEjdLa3qdsKIDCGsYEAFi5uGNbOEj3c3NGn3TtYdDgCx3ztkRV2AFsORkPKyvGiguOjJkSwFdsh49uJGD73K5xK1Ifn2k/RQ8QdS439t9YuU0V6GrIqBdCrvnUj6twZHZGD9PQXAMoRdjoU2Y/OY1tgIAIDt+DYC3f4B8xBf2Pt9mlCYG6ucntId/yEZmYwFZrDyd0dnQ0AmIrRraMAJbJiEIQQLzqMiGO+sM8Kw4EtBxEtZSF/UQEWpQjdfQhpvUeiLkSdYW9TEyHdfWtHAGNjIwjbuWKSmy1EMIGj1wb4OBHiw8ORX6RLxwIYGxtAYOECt2HtYNnDDe59Wjf9dlY1zffRyyCEmZkphOZOcHfvDGW33dBRUAJZsfJhmfqxliLkRCgMnV2qH/IRoefyMEiyD8HDtHk2aq0j5WE4HZqNR+e3ITAwEIFbjuGFuz8C5vSHcWkodh9KQ++Ro1AnC3vUyoLrWpW+uWneeGrgjmcJLuw5iucDx6K/Sc0FrdDKrLHq4cpl9XObgg49CMUtWPu4x6CrNnPWTa3oyHmuYUCHrl6JJnW1oyN+nNc2sZ4p0pGWVQlB3WSDzh2BnPR0vNARH605rwmBOcxVtpHpXl/o8AGnhnVcqyvGOm3jQNQD8xe9h/LTQQjOZgHmEU7EvIVpo8101iJNa8zWAgHMzVW2v+iyTWQLsV0Gvp04HHO/OoVEfU+s/bQHtERFK1r10jRE6NqzG0xRBblcORHV3ybEID/zKcrZSlSq/ICfyN4OtoJKyKTPwAIQdpmDpVONcOHbPYivSMTRa29h+vjWAFg8L5TghaEjPFasxurVNf+tgt9EB5QUFKFCVgxpYx4YZfKR+bQcbGWlym8JimBvZwtBpQzSZ9qriqDTfBy5vAee5uHYPK0fursuwelMBkx+Jp6Ws6isPzjY2QpQKZOiQZMvYYMmRF17opspUCUvRx6nn6XISP4dMggh4oq8+h4vCCB6EYsdPotwIKcvPlo0GjYCXc4WoNP8I7i8xxPm4ZsxrV93uC45jUyGK5bdlQJu0L92DAaOx9i3UnD10hMwAOQPk5Fh5YYJI8wA9jkKJS9g6OiBFbX9rMbqVX6Y2N1Ai33qPVSjp1e7UG9U/PT06g9DTwihHkBs9UJN9AKxO3yw6EAO+n60CKNtBMpf32CykPy7DBCKNCdnY/puCqKu6KkUD8rzGqPjJgRHF8310UuiVxvI6n8LhdADobpbtVhLUFBUAVmxVGPfzbFRWx1hnxdC8sIQjh4rVPJiNVb5TYRDbjKUstCoCs5ruzdhVmjOeGrhiieTg8fppRAZ6DdPQZy53IQBaoBbDy1Y+6q4xqCHLM7a3Ii62VhUcr56utYKl65elSZ1tcMVP13XNqmeGQzE+LFvIeXqJTxRTjZIzrCC24QRMNMRHwMtOa8ZvXpjasz6gssHujTMdS2TxR3jxtimHQFspi3CFPNrCNqfgLJbP+Nxr5lwrt6SrKsWaYqcnkoN0mkbOmH+kcvY42mO8M3T0K+7K5aczmzyL8Jo9kyjIJCKg6rKK8BaO6JXB00byoXo0K0rLJhE3Llbt5mMrZSjUvA2+jrbVBvSCu5+C9Hn4T58HbAL93rOwigTABDAooMNTJKDsf+qtK5ZJg0hFxLRppMtjPNDcPJScV3bkhAEHUtp6BBhB3TragEm8Q7qTGFRKa+E4O2+cLbR7hImKwFPO3phx9VkJJ5bgz6Zu+G7+QoUHbqhqwWDxDt3UddkJeSVArzd1xkNmnwJG2qg+s5HBWsNx14d0ZHTzx3Qtm1riCoScDdWXnc9ABCr/dum0otYOmkNJFN/wMYZ/WFdUwA5CzCDrISn6Oi1A1eTE3FuTR9k7vbF5itVHLGMa/J+JEE7D2zf7QXDq99h4/Zt+Oq0MVaGHIG3vRAQWKCDjQmSg/ejflchuBAn12Kfml808dLxK8XFpZOwRjIVP2ycgf6qDtVrjbatRahIuIuGIWJboG8ARCqxrkJ5BQtrx17o2LGJOtaFUASh6uK0GqIGWakBDh/pQCgSAsSqnUloVLfqCN9CJ1tj5IecRF15YSEJCcKxlJJm2aitjlRZdICNSTKC919FnVwZpIVcQLxFW7QWVSDhbizqy4LAsoCA49q4RieVDp+/TDz1LGHVCnh6J1q5ANEEV/ucucw9wJfSQ0vWvt8MOcbAoDVnbeaaAxtRN7XkfAcht3+4dPVqNPly7bzMtQ0QtIPH9t3wMryK7zZux7avTsN4ZQiOeNtDqCM+ci0534jZBsKmri/UaZaGlei15o7xS9tmNhaLvMRIPPgtAk6UYMT0LtV3XnTUokag0zbKQsLTjvDacRXJieewpk8mdvtuRmOWAKroGqJ22EJkpJdW/38Ozp6NQ69FH2N09ffmBAWqVETaavxiLOotxantB5BSCQAs8i6HIWvIYnw8zLD2PFEPH/iNr8Iv3yVi8Kz+tZ+wTcfMw4zO6QjyHImZAT8i+NRhBHp/jijTLmjz/jxM65iHIws/gN+/g/HfY9vwiVcwRK4OEAqMYGQIPMvNQXFhDCLj9DF+8SL0lp7C9gMpypcwsHm4HJaFIYs/hoopDWCygrE16B7KYQT7v6/Bl1PtYWJoBL1W47F4UW9IT23HAeXgwOZdRljWECz+eBgMATAMoyyGLAC0arYNSlgUZqRD6X0WOWfPIq7XInw82kiHn43RbsJsjG+bhv1L1+B8ZiUgz8C9hAIw0mxk5JUoxUaAQiV4bMljpOWXIjPlCUorshB+7iZymXKU5MYiJqFaAw1gkBW8FUH3ygEje/x9zZeYam8CQyM9zliK0LB/TqQXsXp9FiZ/txmrfJdiw9YNmO1Uc+PJFGPmzUDn9CB4jpyJgB+DcepwILw/j4JpFz2t9qGBZsoBlgFLysLRmPixDAMFsbXfqgIEAoFlWbBsCR6n5aM0MwVPSiuQFX4ON3MZlJfkIvZ2PibMHo+2afuxdM15KEN0DwkFDKTZGcgrab5+a2ALM1CXumdxNq4XFn08GkaN0HF1cHRP2gCE1rZob5CN6F/vIb/gIS7sPoQbEgUKs56g6HlF830Uk6DWkypCWNu2h0F2NH69l4+Chxew+9ANSBSFyHpShOcVLBhGAWJVFmtE1blZvcxQi/X786ahY94RLPzAD/8O/i+ObfsEXsEiuHYpbZaNWuuI6RjMm9EZ6UGeGDkzAD8Gn8LhQG98HmUKB5sJmD2+LdL2L8Wa85mohBwZ9xJQwEiRnZGHEj3t13YRleP2zrkY/48AXMrV+lEZ0OHzl4qnwBp/+2AkjGO+xsyPd+PSrbv47dBB/JZbt5Llbl/IkctcX2u+nB5atvaZcYzBQGdt1tNVNznQmvO6/CPUrquX06S6hSqo19/HQzja4Y4fOHJKaUPj6xkgxcXV65E1+TtsXuWLpRu2YsNsp9ptDlzzmp62nIcARsrBIqe4EDGRcSgHC4Yl5ZcmAKCzLnP7gFvDzzivFbTTEWN9XbbpQgTn+QswTHIcp2gCxrep/rOOWgQNa0wAYBkWVPOFoC6/MVkI3hoEZZr+HWu+nAp7E8OGv7aiC/VN0o2h6v6X1NfAhgZN86ZPln5Gn8yaTJ5fnKMMBREjuUcnVr9HNkIh2bqvpRN3imo3l1eln6W1E/uT88jp5PPPj2j2om8pPL/h1vOKcD/qP2EvZasdKks6Sr6jHcjK0IAsOg2hBYcSqjfeE5UlHSPf0WJqZ96KbF1m0LbrBdX9Kij14D9IbNWGxB7bKPo5EVEVpZ9dSxP7O9PI6T70z49m06Jvw0mDKfWQ31hDrl2d6D2vleQfsIoWLAikqzVPclWl09m1E6m/80ia7vNP+mj2Ivo2PJ8YInqRfJ7WubcnodCOPDafoYRn1GwbqOo+fdnXgGwGTSPvT5bSZ5/MosmeX9C5DOVDUaTTzwxJb+0ir0F2ZGVpTy4TPiX/+YOo8+AZ9MX+UPr12Gp6z0ZIQlt3WnviDhUxRMRk0+nFA6i9uRV1He5Nu6/9RF52ltRl/Fa6qXwiQANyurHGlbo6vUdeK/0pYNUCWhB4tfbBN42xZCR074SG/jlgso/TLDtD0gMIenok0DciC+tuNGLREXooJyIqo6SjvjTawYoMDSyo05AFdCihTId9aprJS6Jz69+nDkIR2XtspgspFdzxk8XRqTVuZC3UJ/H0bXQxMYWuH1hMrpYCMnH2pn2RWZR9ejENaG9OVl2Hk/fua/STlx1ZdhlPW2/KiBgp3drlRYPsrMjS3oUmfOpP8wd1psEzvqCDN3O5++akiu5/2ZcMbAbRNO9PaOlnn9CsyZ70xbkM5YMyxKVjhiT3TtDq92xIKLQl97Un6I6u4NAzitw0hjpZWJCt81Taeu0irejfjUbM9aej1yJezkdcPIukTWM6kYWFLTlP3UrXLq6g/t1G0Fz/o3Qt4hda42ZNQn0xTd92kRJTrtOBxa5kKTAhZ+99FPl7goZYl1HSMV8aLW5H5q1syWXGNrpewBAR0ywbOetIWRId9R1NDlaGZGDRiYYsOEQJ1UWOkd6iXV6DyM7KkuxdJtCn/vNpUOfBNOOLg3Qzl9F+LZNNBye3J8u21jQkIL6eLfXRNZ6XiWc2kSKHfl0/gRzbmZGF/ShaGhxC612Max8s5Gz/dhFHLuvgZfSQldXCtY9rDBy1+eBNUoZYQ92s37kajch5Dv/cLuLQ1ctokhMNc7aWdmRxp7jjl63NhmbUMyabjs+yI0M9EKBHegJ9MrKwpm4jFtER5WSjNT5cOa9IPUj/EFtRG7EHbYvOo6Rz6+n9DkIS2XvQ5gspyr611uVG+IBDw5dv6Lg2m9EdYw7bGoeU/jt/PAU8UH2kT3st+jo0XOMaszTpHK1/vwMJRfbksfkCKadpDtvkN2iNa1dyes+LVvoH0KoFCyjwqo6HITWgR9T0V88oYtfBZfAZTIi6i43OXB8pmwOLzD1e2NzuewRN+au/0qMZKGKxzmUwzkyIwt2Nzjq/gfirw2afRUDQc3zg5Qy2SIqS0nKUSnPw4ORh5PqEYOcY3Z+F3xwUiF3ngsFnJiDq7ka0eOryvNZURq7Bx3e98eOSLuqH/hyYJGwa5IKTY8Jx/6t33/ha9sfA53yLwWbjbEAQnn/gBWe2CNKSUpSXSpHz4CQO5/ogZOeYRnzzyvNXo/nbOQBo30TbDJhSFEsrwJZGYfdlG8waxy+guWlJ5/+PwmbjiK8fHnT5G/p06QGnAUMwYvQYjJsyFe4u76In5z3DNxtePW8WrCQKe8+3waw5r8kCmueVw+f8y8Ai+4gv/B50wd/6dEEPpwEYMmI0xoybgqnuLni3p+4tNTx/TZq1iFYUF+MZUwKJVLnP5OVRIG7zSNhYW6P9O4tRPGcphrzK9zb+L6EoRvEzBiUSqXI/7BuNCJbtjfHbkoEYPWsJ1gZsxqb1K7Fw9j/x3y4L4N1V00OubzIKFBc/A1MiQYulLs/rDytFfCyL8f7LMPJ1+m5CUYSiEgVKZc8auSeVp+nwOd9SiCzbw/i3JRg4ehaWrA3A5k3rsXLhbPzzv12wwLtr494Yy/OXo8nbOeSpl3HolwiklyggsrTHyGnz4Nalaa9J1IQi4xL2HEtA27FzMM2lXfNW93915Km4fOgXRKSXQCGyhP3IaZjn1qXuNdpvJHJkx5zH2bB45JQLYWXXD2Mm/Q292/AlrT5ypF4+hF8i0lGiEMHSfiSmzXNDC6QuD0/TYbJx48hxXEqRoErfCl1Ge8JnpL36WTwvBZ/zLY08Owbnz4YhPqccQis79BszCX/r3YZfQL/BNHkRzcPDw8PDw8PDw/Omw3/hy8PDw8PDw8PDw9NE+EU0Dw8PDw8PDw8PTxPhF9E8PDw8PDw8PDw8TeTNWESzhbh753HDV4Dz8PDw8PDw8PDwNIM3YhFdFvM91h16xP+MEg8PDw8PDw8PT4sg9Pf391f/o25YPH+ShGxRW1iUP8at27+jopUNWhvVrcnLM+PxuLItzEricS/bAO3bGitX7IwUaffuID7zBYyt28JUCICVIDE8Ancf/o7U1DQU63fA25b6KE+PwW8345GaXQmrTtYw0QNQnoP4W3eRUqiH1u0tYaj6nvPKAiTfuo2EHAVa2bSGsYBFYfROeM8KQJR+d/RqrUBVKztYmyovYqRpuHcnHpkvjGHd1rTez9Swsse4FZOIIoEl9MukIHPzN/yn5Hh4eHh4eHh4eGpo8jfRTFYEdnoPgF2PGdh5bAPG9huIMe8NhqN4NAJulIAtiMaBJaPgIB4D/z1b8OFQVwweMA9HJIAs+jt4ea5CcHwmUs4uw7Ae7gi4VghWYAyzssv4ctp4zNidDut2yjetGLUR4samNThfZgkzAYvc0I3wWRaE8LjbOLlsKMTD1+KKhAXAojBsM+Z4/QtXMgoQt3MixC6+OJNdjByJMazMWLDyMshkJShXAIAM0d95wXNVMOIzU3B22TD0cA/AtULlO50q43bAy/c4shQVSDowE4M+/BHp/NfYPDw8PDw8PDw8NVAzkEctp+76NjR6fSg9rSIqS9pHk22FZNDfnx5UETEZ22mkgTH1XvIrFUgT6UroA5JILtJCsSP5hb+obqWMIpc5koHNdPo5jyGiMgr3E5Oh4wqKqlCeweQdptnT91AmQ8Tkn6CZo1ZRtLz6WMZ2GmGgT87r7pM89zh5OrjTrgyGiIiqEr6hEa070NzTpURMDv3gZkS23hepulmSXlxIYkc/qjMlkpY5GpDN9J8pj5FT1PJe5PR5NL1QGkHHNu2kxKrqc3l4eHh4eHh4eN54mvxNNAAIjI1hJGwH10lusBUBJo5e2ODjBIoPR3g+C4GxMQwEFnBxG4Z2lj3g5t4HuLAPP2c5oK9zzfu8TTDQ0wPiovM4HiIDYIIhvp9iaPZhfHsqHywYZARfgP7kqegoAMrDTiM0+xHObwtEYGAgthx7AXf/AMzpbwxpyAmEGjrDpb1yOKKeyxEmycYhD9N6dispxrl9PyPLoS/qTBkITw8xis4fR4hMBFuxHTK+nYjhc7/CqUR9eK79FD1Eas3w8PDw8PDw8PC8sTRrEd0QEbr27AZTVEEuV74AUXWrMsAgP/MpytlKVFbU/VVkbwdbQSVk0mdgAQi7zMHSqUa48O0exFck4ui1tzB9fGvlHuxCCV4YOsJjxWqsXl3z3yr4TXRASUERKmTFkDbm3YtMPjKfloOtrESdKSLY29lCUCmD9BnQaf4RXN7jCfPwzZjWrztcl5xGJv/THjw8PDw8PDw8PNW8xCKaQMotxACAqvIKsNaO6NVB01vkhejQrSssmETcuVte+1e2Uo5Kwdvo62xTbUgruPstRJ+H+/B1wC7c6zkLo0wAQACLDjYwSQ7G/qvSumaZNIRcSESbTrYwzg/ByUvFdW1LQhB0LKXhz9oJO6BbVwswiXdQZwqLSnklBG/3hbMNISvhKTp67cDV5EScW9MHmbt9sfmKvH47PDw8PDw8PDw8byzNX0SzhchIL63+/xycPRuHXos+xujqLRIEBapUHsZrNX4xFvWW4tT2A0ipBAAWeZfDkDVkMT4eZlh7nqiHD/zGV+GX7xIxeFZ/1OyiMB0zDzM6pyPIcyRmBvyI4FOHEej9OaJMu6DN+/MwrWMejiz8AH7/DsZ/j23DJ17BELk6QCgwgpEh8Cw3B8WFMYiM08f4xYvQW3oK2w+kQGlKHi6HZWHI4o8xzJBBVvBWBN0rB4zs8fc1X2KqvQkMjfTASi5jg+c/sOmaykKeh4eHh4eHh4fnjUOPiBqzCaIeith1cBn4I4w9xqG/rQVQ+ARF9h9hq/94vF1yH8H/WonPtl6D4L1V+NfmpZjWvw0EABQZ5+C/eAMuPusGF0cTVFAveG9YguHW9dfy8oilGPKvHjj7fz7ooHKo/OExrPrUH0dvZIJ5611MDwjC9rk9YQKg/OFxrPp0A36+nQ+D7uPw2fbv4De0HQRg8PjQbPz9s1+BEWvw05HPMNBMgYxz/li84SKedXOBo0kFqJc3NiwZDmtBJaLWjsKciyYYNnYoughy8LSVJwJWjkbbJ//GhCEbIdwQhXMLO6uazMPDw8PDw8PD8wbR/EX04DOYEHUXG51b+ok7Fpl7vLC53fcImmKlfpCHh4eHh4eHh4fnT6f52zkAQGVP9EvDlKJYWgG2NAq7L9tg1jh+Ac3Dw8PDw8PDw/N60qxFtKK4GM+YEkikleqHmokCcZtHwsbaGu3fWYziOUsxpObn53h4eHh4eHh4eHheM5q8nUOeehmHfolAeokCIkt7jJw2D25dXv6F2IqMS9hzLAFtx87BNJd2zVvd8/Dw8PDw8PDw8LwCmryI5uHh4eHh4eHh4XnT4b/w5eHh4eHh4eHh4Wki/CKah4eHh4eHh4eHp4n8ZRfR7PM0xKfKWvQHRHj+apQh4/4DZKm8ip6HR5WyjPt4wAuEm4psxD/Mr6u1ZRm4/yALb7zX2OdIi0+F7FVPQowUj+KfoEz97ypUZMfjYX4LGPY6xVpdh28if5jmKpAd/xAtIZkWoREaf1U0fRFdnoLL+zfgI/ehGDJkKIa/Nx5TPD0x5YMpmLnwc/zrRDRyWupHO5oDk4XftnlhQOee8NybDJWXJvLw1INN34s5g13hczjvzS68fwTMI/zg0R395hzG4//VJGTTsXfOYLj6HEYeL5CGsDLcP/oZ3BwcMHJTpPLtr2CRvncOBrv64PAb6zQGWb9tg9eAzujpuRfJr0z/DDJ+24Y5/Tqjz/xjyGDUjwOs7D6OfuYGB4eR2BT5shM1R6zl17HWtTuGLw9FwR8tA406fNP4ozTHQnb/KD5zc4DDyE14acm8NLo1/qpp+iLapDvGzF8BD5vfEZNog4//7zxOnTyJU8d34tPBcpzxG46egz/Bf/+s0Qk7YrSvD0a0Ifz1n5hkUXj3Dh7/Sa7+X0dgvwA/3YzCvrntm5EIPFywWSE493gI1gbORtcWfx9TIe7eeYw/XPYCeyz46Sai9s1Fe14gDRFYwnnGUkwSq9ZaAewX/ISbUfsw9411mhAdR/vCZ0QbvNrH9oWwG/0p5g2zgrbJT2DpjBlLJ0HcIoZpj3Xl3bP4FVOx+cu/Qe2FxC2PRh2+afxRmhPA0nkGlk4St3C7zUW3xl81zZS3CJatzKGnJ4SwpgWjDhjs9R1Cz32Bd34Pwkde3yPpD5/ltCC0hKWFnvpf/3qUxeD7dYfwqMU+db5pmMLOuS868r9J3uKUJAkx5egPmGLbzBLDQVnM91h36NEructkaueMvrxAtCOwgLmpWq01tYNz3454s70mhKWlBV79LCSEqbkp58QusDCHesiajcZYM8jMeBsrj2/AsFb1DvxxaNLhG8cfpTkBLMxN/4B2m4tujb9KWtwO0wHL4D/jbZRe/w7fXylXOVKOnPgbCIu4i4zn3Pd3KguScTMsDDGp0vrfNikkeBRzDVfDbiNN1nCFrihOxa3wCNzPeqF+SOe1NbDPnyAx7TlYRorU6AjEpMrq21CeifjkQjAVOXhwKxnFtQcZSNPu4HpENJILau55sJAkhiE0JAQhISG4FJOOcgAoT0fMpRCEhIYhUVLjCy7/VKIg+SbCwmKQKlV2yBZGY8fcWdh2Kx2xv4biWkJh7ZYERpqGO9cjEJ1coPvWVnkO4m+EIeJuBup1y8rwOCYc12MzUSLJQa7GzUdlyIxPgYQFKvMTERWVhIIGKxuucXHEGkB5TjxuhEXgbsbzetstWNljxIRfR2xmCSQ5uSr7ohSQPIrBtathuJ3WuLhVZMchSe1WZJP8V1mA5JthCItJRXVo6mCkSLtzHRHRyaiVRA1lmYhPkYBFJfIToxCVVNBwUch1PXT0rS2uKEdmfDIKmQrkPLiF5DoB16csG3GREbj5sADyynykpT8HmxuLy6EhCAm9jmQZCzA5uHspBCEhlxD9RDXXAUOnEegpvdMgdvXhiBc0jY9FYfQOzJ21DbfSY/Fr6FVc++0SQkNCEHo9GUqT7uJSSAhCLkWjnkk68l+rDiuyEZekvt1HU67X8DI5wUL2OAbh12ORWSJBjuak49A/V9xV0a4BbTmnkDxCzLWrCLudhvruE0Cvwexagey4pOotMCV4dOMSQqprYO1/oZFIqdm4yRGbssx4pCidicSoKCQ1dGZ9tI2/MfmmSgPt1aBDs4pipN4KR8T9LGiYhTj8qAqL508SkfacBSNNRXREDFI1nKytTunVBIQUKHwYjejEvPp7lgV6GhZEOsal1R+qsa6jzcAhaJ95u5n5wYFWrWjQYXkW4h7mgwUDWdodRN3PrM2VyvwkREU+QI76Zm6t7SvRWic4cke3hjl83xjd6tCcznlEFS35I2jgXDUaYyeXHU2MlU6NN6PGNZcWX0QDphg6xhWtKBeR1xIAAGxuKDb6LENQeBxun1yGoeLhWHtF0nAAbCHCNs+B17+uIKMgDjsniuHiewa5LMCkHcXcQVPw/YMi5EUFwl08FBtu1syS5YjfOxvu3vsRm52Kc2t8EfSozmnc19aclIWInd4YYNcDM3Yew4ax/TBwzHsY7CjG6IAbKGELEH1gCUY5iDHGfw+2fDgUroMHYN4RCSCLxndenlgVHI/MlLNYNqwH3AOuoZAVwNisDJe/nIbxM3Yj3bqd8hO7URsIb2zCmvNlsDQTcPqHLQzD5jle+NeVDBTE7cREsQt8z2SjOEcCYyszsKwcZTIZSsoVAGSI/s4LnquCEZ+ZgrPLhqGHewCuFTbwNAAWuaEb4bMsCOFxt3Fy2VCIh6/FFQkLVMZhh5cvjmcpUJF0ADMHfYgf01VTgkXhrcPwG+UA8fuBOLF/AdzHzcDscU7o7RGE1GrXc42LK9ZgcxG60QfLgsIRd/sklg0VY/jaK8rCG7cDXr7HkaWoQNKBmRj04Y9IVwBg0nB07iBM+f4BivKiEOguxtANN1GuJW5ee67hxMqxcOg6HBsiatKvaf4rDNuMOV7/wpWMAsTtnAixiy/O5CrPlUV/By/PVQiOz0TK2WUY1sMdAdcKwbKFuHXYD6McxHg/8AT2L3DHuBmzMc6pNzyCUmsLqNbrdfatLa4KFEQfwJJRDhCP8ceeLR9iqOtgDJh3BBKVUQHlSDy0CONmb8GlxGREfDsdzp17YPLeZLCtO+Ht/J+wYJIP9icpAGFrdLROwY6ZE/FZcI7Sdo7Y1UNbvADt48suRo7EGFZmLFh5GWSy59Bv/zbyf1qAST77oTSpI6xTdmDmxM8QnKP0Jmf+a9OhQor7J1ZirENXDN8QUVegteb6y+ZEJeJ2eMH3eBYUFUk4MHMQPvwxvcFEpFX/WuOu6nhWuwa0xo1B2tG5GDTlezwoykNUoDvEQzdAvXwqYSG9fwIrxzqg6/ANiKgAUPkQhzcHISa7GDKZDLKiO9jjMxFTVp9HgVCgNTZs4S0c9hsFB/H7CDyxHwvcx2HG7HFw6u2BoBpnqvWtcfyF+Y3KN9V2NGpPOQlxaBYoj9+L2e7e2B+bjdRza+Ab9Eil/cb5kcmKwE7vAbDrMQM7j23A2H4DMea9wXAUj0bAjZLqsxpRpygfF3xd4ezqhqG97eE46XvcKa07XA/OcWnzh6JhrPHy+cGFNq00gC3GnaPL8J64G0b4B+PU+pmY7vURpgx2xKBloTwb6QYAAI2ISURBVLhz5GOMnzwPC6cOguOw9bUx4GxfW53gmK8K8xuhYW2+b+Q8wa05XfOIKlryp0HhVqORdmq1o5mxArRpvDk1TqXN5kDNQk7hi7uSyNKTgsvUjxHJI/yom0hANvPPEzH5dGLmKFoVLVceZDJo+wgD0ndeR/erVK9iKPe4Jzm476IMhoioihK+GUGtO8yl06UKevjVQDLpv4Hiq4io6hat7mVETuvuUxURlUWuoD5d5tEZaXVTpedpvq0+vbPiJsmJ+9p6yKNoeXd9shm9nkKfVhGVJdG+ybYkNOhP/g+qlLaPNCDj3kvo1wIpJV4JpQcSCV1cKCZHv3B6Ud1MWeQycjSwoek/5xFDRGXhfiQ2dKQVURXKE5g8Ojx7Ou3JZLj9I8+l454O5L4rg5QuSaBvRrSmDnNPUykxlPODGxnZetPF6malFxeS2NGPwusMoWWOBmQz/WfKY6r/Vg2Tf4JmjlpFdd1upxEG+uS87j6VRS2nXk6fU/QLIiKG8o5top2J6t5S0ONvhpCBhQstOZNGciKS/WcmWRsOpW8eK7jHVcUVa4byT8ykUauiSXklQxnbR5CBvjOtu19GUct7kdPn0UpfM3l0bNNOSqwiUjz8igaa9KcNyiDTrdW9yMipWmMa48YQk7uL3AwtaNpJpYib5L/c4+Tp4E67lAOgqoRvaETrDjT3dCmR9CItFDuSX11DFLnMkQxsptPPeQyR4jF9M8SALFyW0Jk0ORHJ6D8zrclw6Df0WEE6r+fqmyuuVcRQxvaRZGDcm5b8WkDSxCsU+kCi1FY1z3/zo17OK+hGTV7Lo2j5O4bUa/UtqiIiRdImGmDUnZbfqO5AfoOWdzemwV//Tgriil19/XDFi2t8xOTQD25GZOt9kZSyV1DSpgFk1H051Zm0nLobD6avf1cQceY/lw6JiMmlXW6GZDHtJFUrREeuv0ROlEXR8l5O9Lky6YjJO0abdiaq1Si5Vv1zx10VTRoopFxtcbsTT18NNKH+G+JJ6b7V1MvISSWez+jgBCOymvGfap8wlLvLjQwtptHJMmXNOn8+udqG5xT1RX8ysxxGX9+v0BEbIsXjb2iIgQW5LDlDyjT5D820NqSh3zwmRe14lHCOX1e+qbbDoT0uzVJZJK3o04Xm1U1CdH6+Lem/s4JuyolI8VCHH+uQRy2n7vo2NHp9KCmnoX002VZIBv396UGVrjqltMvAdiLtuCUhBZVS/L6pZK9vSC4Bcco4PDtIE4ysaMZ/lA1wjYvLHw1i/bL5wQm3VhrokMmhH9wMyWTQagrPVRCRnO596UT6rQbT578+Vcbg/pfkZNiFfK/p0iJXneCuebo0zOV7nfOELs3pmEdU4cwfInp2cAIZWc2gasnUR5eduuxocqx0abyJNU5DDjaFP+CbaIBKS1FOAphbWgHlYTgdmo1H57chMDAQgVuO4YW7PwLm9IdxvaukCDkRCkNnl+qHeETouTwMkuxD8DAVQrzoMCKO+cI+KwwHthxEtJSF/EUFWJQidPchpPUeiVGW1U0ZdYa9jbD6H1zXqiEwhrGREO1cJ8HNVgSYOMJrgw+cKB7h4flgBcYwNhDAwsUNw9pZooebO/rgAvb9nAWHvs61+8JMBnrCQ1yE88dDIANgMsQXnw7NxuFvTyGfBZiMYFzQn4ypHQXc/pGG4ESoIZxdqh98E/XE8jAJsg95wLS+5QCKcW7fz8hy6AvnOkPg6SFG0fnjCJHVP7s87DRCsx/h/LZABAYGYsuxF3D3D8Cc/sYQ2Yphl/EtJg6fi69OJULfcy0+7aH+dJgQZmamEJo7wd29MwwAmIq7oaOgBLJi4h4XZ6zLEXY6FNmPzmNbYCACA7fg2At3+AfMQX9jEWzFdsj4diKGz/0KpxL14bn2U/QQAULxIhyOOAZf+yyEHdiCg9FSsPIXqGCr46oet9YCCMzNYVZ7l6pp/pOGnECooTNcqh+oEfVcjjBJNg55mKL43D78nOWAvnUNYaCnB8RF53E8RAYIzWBmKoS5kzvcOxsAMIW4W0cISmQoJui8nqtvrrgCAhgbG0Bg4QK3Ye1g2cMN7n1aq9yOKsGFPUfxfOBY9Dep/pOwFVqZNbZMcMWu/plc8eIaX9Phyn8uHQIQmMO8TiBA8Tkduf4SOSGyhdguA99OHI65X51Cor4n1n7aA/WzTrv+ueOuiiYNGCFCW9zMxFh0OALHfO2RFXYAWw5GQ8rK8aKiQfWsRgBzc7O67QKinhg3rjtEYCEJ/Rzz/vUUo7YexHInQx2xAYRmZjAVmsPJ3R3KNBGjW0cBSmTFDZ4p4hy/jnxThUt7XJotDd2NQ2m9MbJuEkJnexvUzEIQNt6PAmNjGAnbwXWSG5TTkBc2+DiB4sMRnl/UqDoltHkXbv1aQwhT9PpoGz4bqof4iOsoatgd57i4/NEg1i+bH5xwa6UBAjOYmujBoHM/uLQXAjCA2MEOInREvyG2EAEQ2duhg14JpFLS0T5XneCuebo0zOV7XbrVpTld84gqnPmjCx126rSjybGq7larxptY4xoxRC4aOzs2AQVS79xHAVnBZXBvsM8LIXlhCEePFVi9enXtf6v8JqK76gzBSFBQVAFZsbRBgQQAgegFYnf4YNGBHPT9aBFG2wiU5zFZSP5dBghFWgej9dpGIOraE91MgSq5XHmN2tYgJj8TT8tZVFaq7MgR2cPOVoBKmRTPWADCLpizdCqMLnyLPfEVSDx6DW9NH4/WAKd/HEoKUFQhQ7GKcLTC5CPzaTnYykqVvUEi2NvZQlApg/RZ/du6zwsleGHoCI8VdX2uXr0KfhO7w6DTfBy5vAee5uHYPK0fursuwenMhvfbavcl1fxbKIQeCCxxj6u7Hkes2ecolLyAoaMHVqhct3qVHyZ2N0Cn+UdweY8nzMM3Y1q/7nBdchqZDACBCC9id8Bn0QHk9P0Ii0bbQKDauKYtXXp6dfvomuQ/BpKCIlTIitEwNAzyM5+inK1EfUnYwVZQCZn0GVio9AsA0INQqAcQC9J5vRSFWvvmjqsy3TQ5ohomB4/TSyEy0Oc6SzucsVP7EKY1Xly+bR5a819HzQH06mm8Mbne7Jww6IT5Ry5jj6c5wjdPQ7/urlhyOlNtu4FAi/4bE3dV1KLLGTcDiF7EYofPIhzI6YuPFo2GTb3EaoieXsM9t2x2MHwX7Id82i4Eze9aO9FrjQ2q87OuCUBPCGWaqPeva/xc+aaKDu1xaDYr+XfIIIRI2yQEQZP9WIcIXXt2gymqIC/Pa0KdqkbQDl06W0KPUaBK/Ri4x8XpD7VYv2x+6IJTKw1QjzmgJ9Cr/4sOegIIUPeLHlrb56oTnLkj0q1hrb6HhjHUnye4NadrHnmm8uFDV/7ogttO3XaoX687Vg1ooPGm1DjdI+RCo/tfBlZyCd8degBhr/n4dJw5BBYdYGOSjOD9VyGtPYtBWsgFxKlu+BO+hU62xsgPOYlLxTV/ZCEJCcKxlBJcXDoJayRT8cPGGehvXTNoAvRao21rESoS7iJWXtccABDLAijVfq0WiFQKUVU5KlhrOPbqUPetggrCDt3Q1YJB4p27tXvjwFZCXinA232dYVPt4VbufljY5yH2fR2AXfd6YtYo5Vd9XP5JbNMJtsb5CDl5CXUukSAk6BhS1Ne0wg7o1tUCTOId3K0zBJXySgje7gvnGkMAAAJYdLCBSXIw9l+t6xVMGkIuxEGelYCnHb2w42oyEs+tQZ/M3fDdfAVq7uWEa1xxxBHr303RwcYEycH7Ud+0EFyIk+P/2zvzsKjK9o9/mWFHEDVJRAUVxzAXEDLFXTJey7VSDDfMjVfDJbUUc9fIetHUStHcUrToNX+KCm6xiGwuIJtgiCyyM8yggCxzzv37Y1iHmTMziC1v53NdXVdyznme597vOfOcOTlJT9DdYx9upCYj0Hsgsg94Yef1apRfXoUp3mJM/3Y73B0tGgJftZUV0Ep/QrzawwpGhUH4uVEAsOIg+Pmn49U+vWHGJONO40Bga6pRI+iGQQ6WaoJOiK6c13eDpcq5f4cJh10V99e2QMccHdoDT+5E47Gif9Uj1IVQSdEjYgCBGYftms+u2l5cuk1TsocVEOoKlTREBGLAHf+cOaflTJrGuio4Y6I6B0lPusNj3w2kJgfCe2A2DnjtxPVmQceo8P9aznhWa3cuu0UHYtUUb4inf4vt7o7QIH22RJYGv0XL8X9m/8YP37wPSwHASooglnHYRiu485la+Rvg9r0ylT6rg46vdIRuVRLutixC8mal/LKWeiQ0L0NVYC3s0L97dy3yVD2VKC55jh72g/GqksNtFYsvGh/ctJWvqIJjfK48wVmv1Hueat2rQ53PqasjTetQW8WPMrRZx4vA7eOcOU4DO3GhbDoNINTUKD5eCcjyQ7Bz5kKcrHoLXxzfiGGGAEzGY757T2T6uWHMrG34IeAsTvgsxGeRJujV7ANAe0yYPwPdC05iyXsr8X3Ar/D3XQaPAF049yrHo4xClGen4XF5FXLCAhGVz6CyLB/xtwsxac5EvJJxBKu8LyK7BqjOuoekIgaS3CwUSApUXxsjf/CxOSyKszIhfwaDRd6FC0jo74ml4+q+iiBAVttE6e0nYrnnAEjO7sHRtLrXDRRcQ2jOcCxfOhIG9efp9sOilRNR+8s3SB42G471snPpp9MEzJ/RHQUnl+C9ld8j4Fd/+C7zQICuM2yFAhgaGgBP85FXWoyYiCyMW+6JAZKz2HM0Tf60NluAa6E5GL58KUY2LKR+2vlw75kJP7cxmLXtBwScPQGfhZ8h0qQXdHIC8JXfPVTCEDbveGPjdBsYGxgqfLZjwTAyENukoSKSBzDLcsuly2FrWzOMn++Onpl+cBszC9t+CMDZEz5Y+FkkTHrpICfgK/jdqwQMbfCO90ZMtzGGgSGh7FEGCsuzkfa4HFU5YQiMygdTWYb8+BgklSuxGwCwDFgisCwAtMdELfTXfsJ8zOhegJNL3sPK7wPwq78vlnkEQNfZFh0nLofnAAnO7jkKuUuwKLgWipzhy7F0pAHAMmBkBLZJ4ydXHQuWBdqruZ5rbjMOu8pdjgBZrfLEKLDAv94bA6OYLzFr6QFcib2L344fw2/5jeVSaGGFLvq5iL56D4VFD3DpwHHcEstQnPMYJc+EHLZrGuwsp71yRqqWTygwhNzt81BaHIOIhGpYWHWBfm40rt4rRNGDSzhw/BbEsmLkPC7Bs8oyjvjP4fBDodzHWar7MK5JrL9ATOjkIOArP8hd+x14b5wOG2MDGDYLOkaF/+twxnOzNAso8QETlXYz6piJjMJyZKc9RnlVDsICo5DPVKIsPx4xSeUAGDBMne/WjcYyLKi+eUQl7nz5Edbf6o11x3bCpYP8HEnQedx4xmWbJLAMAxmxTe48EwgEtslc9XDKrybemqI6tnqhXKXP3kbhuDmY+EoGjqzyxkV5EcK9pCIwklxkFZShvOyRGj0qwBYjK7Pu72weLlxIQH/PpRhnqFmeosoySOt6q6rEIzj16F/YuGIY9AGAYcDU6fGFYlHR1i8aH6jE7f3zMPHDbbhS94B2Ayy3r7T0QwYsW38jrQ6Sz9fQoBKBwIJl1I3PlSe46pWuGh/m1n3SUy6/FaDzJG6f01NTR5rCGT8AGLlyW8QLgBeuZ1rbqv5PXD6uRY4z6aWLytv7MW/ih9h2Jb/hCo1R3CStlopUun50K0221iUdPUtynPwhzV+4gDzcJtJo57HktvYQReQpbNSuSKFTXuPItoMB6Zv1oOGLj1OSkgcSiSooxd+Lxok6k2l7K3Jy96WbRQwRMZR7bjkN6WJKHXqPooUHQuhHD2sy7zWRvoqSEjESiv3Og4ZadyBzGyea9PEWWjC0Jw1z/5yOReVyX9uU2jjaOEifLIfOoIXLVtEny2bTNLfPKTBLRsSI6d6Z9fSWpZCEVq604cwdKqnfm1+bSRc2TCZHhzE0c9G/6aM5nrQ7rLDZA1tERFQVRisdJ9GhXIUjXPqpSCF/r3Ek6mxK7a2cyN33JhXVXS5LP0YfijpQJ9FU8o1+RkS1lHlhA012dKAxMxfRvz+aQ567w6iwxULkVKScIq9xttTBQJ/MegynxceTqIKIqm95k3Nve3rL41Pasm0dLV7sQzcUHkSQJpwlbxcLEuqJaKbvZUpOu0lHlzuTucCYHBYepohchlsulbauO3bKi8bZdiADfTPqMXwxHU+qIKJquuXtTL3t3yKPT7fQtnWLabHPDSpgiJjcc7R8SBcy7dCbRi08QCE/epC1eS+a+GUwhSmzW3kKBW6eQF2FumQzdSddSpM/sKCd/vzJa5yIOpu2Jysnd/K9WdRg89rMC7RhsiM5jJlJi/79Ec3x3E1hhQwRSSnhrDe5WAhJTzSTfC8nU9rNo7Tc2ZwExg608HAE5TJc16ufW7ldGRLfO0Pr37IkodCKXDecoTsNDtwEWR5d3TyJ7Dq3IzObsbQqIIg2Oxk1PFhI9JQidoynHmZmZOUwnb4KuUxrHfvQ6Hlb6NTtEg7bNUelvb6KIimnfDJKP/YhiTp0ItFUX4p+RkRPI2jH+B5kZmZFDtO/opDLa8mxz2iat+UU3S6pVRP/qvywnFICN9OErkLStZlKOy+lyRfOEesvFBPVt8jbuTfZv+VBn27ZRusWLyafG/IHkxtR7f+k0u5N4fIBFXZjcunc8iHUxbQD9R61kA6E/Ege1ubUa+JXFCV9TqkXN5FrFyEJrafSzvNJVJ4SSJsndCWhrg1N3XmJEkPX00BDAZk7utOazz6jzz77jD5dOY9GvfYhnangyOvXbtFZbxeyEOqRaKYvXU5Oo5tHl5OzuYCMHRbS4YjcZpKRSvk1i7fm4yj3PW6fZUgS+x15DLWmDuY25DTpY9qyYCj1HOZOnx+LovxaLj02n782biMN0rekoTMW0rJVn9Cy2dPI7fNAymp49o47T1X8foF2zB5Nb4yaQh7LltOipdsp8FHdQ13PU+niJlfqIhSS9dSddD7pqRq5VOtD0dbyFPoC8ZGTQ8emdSHzVyxo+LbEemHr4PCVqAIFP4yllAubaYKVkHR7vU+7AhMpK/5X2j65Bwl1e9E0n/+j+4/vUMCmd8hKqEs9p/lQUPpzjvG58gSpjh1pglofVq37a3RLrd+q8TkN6khTlMcP0fPUi7TJtQsJhdY0ded5Snra9CrN4kv1OspbYatqDh9vRY4jhnKPTaMu5q+QxfBtTYXTCB2iv8Z7aP4SyOKxyWkYzk+KxN3tDkru4LwYbPZBeOzsjL1+76PuhgwPz18bJgU7hjrh5/FhiPvijTaPCR4enubI4jfBadh5TIq8i+0O/7yIq4nwxtK7C/HDil6Kh3h4Xh41EfBeehdf/LBC8QgnrdzO8b+Osu8sWguD8lIJqthyRB64BsvZ7/INNA8PDw8PN21Zhv4msOJIHLrYCbPn8g00zx8IK0bkoYvoNHuu4hG18E10U2SlKH3KoEwsUf+mOg2RJezEGEsLWHR5DctL52LV8H/2y3B5/mbISlBSJkO59KnyfdQ8PDxtiqy0FE+ZMoglbVWF/iawEiTGs5i4ZTXG8HeaeP4wWEgS48FO3ILVrXA8fjtHPdXpuHb8F4RnlkGmaw6bMTMw36VX3Sb1F0CWhSsH/ZH0ytuYO8MJnfmPLTx/F5hc3Dp5GlfSxKjV64Be49ywaIyN4lk8PDxtRHX6NRz/JRyZZTLomttgzIz5cOn1wlWIh4fnJcE30Tw8PDw8PDw8PDxawt8X5eHh4eHh4eHh4dESvon+H4F9loHEdGnrnkWpyEJCanGrrmUkD5H4uELxz41UZCHufk6Tt2v9r1OF3MQHKGyNMlGBrLj7yPnbK4vFs4xEpEs1UAIjwcPEx+DwIJ6/ABVZcbjP5ZjsM2QkpkMTk7cGlfOzZci8E4GopAJUvcz4ecnytRaVevlbo0X+aHMYSB4mgqukoSoXiQ8KW1Uvm/MS/fUl8UJ9xv8of0oTXfZ//8YguwnYGf1M8dCfBpt1CNP7DsLMQ6lt9lDhHwKTg998PTCk5+twO5Sq3cNfbBGij3hhtG1fvP1VtHZyM1n4zXcuBvcciAX+WS3eXiWHReahuRjmvAgnCv6+YcdkhuPk7o8xZdQIjHznQyzx9ISnpyc8PRdh3ntvY+zsA0iRsZDGncInLrawHbMDEVopUw6beQhzhzlj0YmCv22SYnJ+g6/HEPR83Q2HUrm8kUHWb76YO7gnBi7wR5ZyB2o9NZHYPLIvRqy8iL+x6/01YDNxaO4wOC86oUSXDHJ+84XHkJ543e0QOE3eWlTMzzwOwKeeuxAYdR6fu4rQf+piTB/a1vHzR8iXhUPT+2LQzENI1SZvqNDL3xnN80fbw2T9Bt+5g9Fz4AL4K0tIrBRxpz6Bi60txuyI0K5eKkF1vq/GzQ3O6DtqDYKLXq5ha25/j92Xm7zCTxUv0mdoSU3kZozsOwIrLyrq5S+K4g9Hv3ye0bl5r5PrNwlU9/PvfwEYyj3wLvVz96fMhh+0/xtRHUGfiAzotbVRVK14TB2ydPpquAG9Ov+C9vao+o2W2RiQ0/ZkUqm28ky6F5/dbGym6A7dTld5hXYwRXTndrrq+duKqhD6uKeQDCYdo2a/NV+VQt8s2EChVUREDGXvHUsGHdzpv1ork4ionDLvxVO2Jtf+UXK3guqIT0hk8BqtjVLnjVX02zIbMnDaTsltLEh19Gf0xpvrKLRU8QhPayjPvEfxKh2zmiI+EZHBa2tJrck1gqGiO7epaYpoMT9TQD9O60rvHBITEUMl17fRbM8DdP22hvGjFW0tX3OY3AP0bj938m9F8Wmhl/8BNM8fbU/Vb8vIxsCJtqtKSEw27R1rQB3c/6t9vWyBinxffYvWOA2jDeEKb+FpcyR0dk5XMnPZT49ViNuMF+kzNKaaoj97g95cF0p/l9T9x9+JrkmBePBenPQagL/Oj71VIpl9F8f93GEtVDz2N0BoDnOz5i/l1hihKUxNWnutCUxN1LiQiTUcBnVvYusKxOzdhOMP2+azbEXMXmw6/vClfjIGAAjboX07JbIa9MWcj6ehmy4ACGBmaqLwenRtMIG1wyB01yAw/jC5W4HQ3ByauaMQJqYmL+HrMAZPHnfF6jM7MFr7XyziUYKJtQMGqXRMIczNzV7A7xWoiMHeTcfRNEW0mL8mGtcjKmBiZghAgE4uG3HygCdcnDSLH+1oY/kUqExm8e5xP7i3ovi00Mv/AJrnj7ZHaGIKzpImMGt9vWyB8nzPZGeh26ensXVk++YH2hg26wyOXy1DZfgRHEvQoJK8SJ+hKcwTPO66Gmd2jP7bvE+Dy104YPHscTIynrFgJOmIDo9BulTh6w+ZGA9jQnAj9DYymh7TH4IFi19DQVrTPUUspI9iEHYzHtllYuTlK9mQxIqRHBqMoKAgBAVdQUxmJQCgMjMGV4KCEByaDLHSe/8VyE5Mg5gFagqTERmZgiIZALDIj7+G4KAgBN98gjc8/43BT+/iSlAQgq5E47F8eACVyEmQ73FlpBm4ExmH7Prl1RQiJTIC9/OUbGqqzEPirVCE383Cs6brqsxGYmoxmKo83I9NRWmDahhIMu7gZng0Uos0+6JIVpqO2LBwxOU8VzwEAKjMS8St0HDczXrG8bWIDnQa4qIGBUm3EJlSpNCcySB+GIOQG6G4nSFtsnWj8VqSFeNBdDSSCxR1UYXchBT5141sMaL3zcNs31hkxl9FcEgSillwjA+gIhuJaWKwqEFhcmSTtbEojt6HebN9EZsZj6vBIUiSDwZwyM5KHyEm7Cbis8sgzst/4b24lYkJKOzviN519U/QqEzVsFI8ignDzfhslInz0NTdq3ITkNLku9mW6+WSuxJ5ibcQGn4XWc2drhU+zGETpchQmh6LsPA4KHdH5WvTaXQgFD+IRnRygZL988qvBSqRnZiKYqYKefdjkVofTDIpZD0H4JWse81zjzLYZ3icnIFnLANJejTCY9LR/BIVcwBgJBm4czMc0alFDV/tsqUPEB4cJM9TwRFIK2MBPEP6rSsICgpGRJq0cWQVPqpaXqAyOxGpxQyq8u4jNrVUwS5Nc1oqpCzA5CnLaapyIgdVuUhIUfh6VVaK9NgwhMflQLnJVeRAjvnZ4mjsmzcbvrGZiL8ajJCkumc1msxfnR2LK1ej8aiMQUnKdQRdiUR63c5AxfgBANQUITUqFKEx6ZA0U5gaH1cnHyNBxp2bCI9ORYuUrTLPy2Hz43EtOAhBwTfx5A1P/HvwU9y9Iq9t0Y2GQkV2ItLkikJyZCRSFA2lzC6oQVFqFEJDY5DeXGDt64yqOq4S1XPLxA8RE3IDobczFGIMavMH97VN0aA3URG7AAAdnboPSwRZ8QNERyejeUkTNKmXjXCvT7VOlPprpzcxvEs2biuuTRN/0BgZ7h8NxCtbt+Nt4yT86Beishaq6zNUxnllDhIeFIIFA2nGHUTGZTfMUVOYgsiI+1AsOzKpDD0HvIKse4p61KBHVAVHveXKtZqidRPN5IRj/8IhsO7njv3+W/H24Dcx/q1hsBONw7ZbZfJzMk5h3tD3sfd+CQoifeAqGoGtUZUAK0HcmU/xtm1vjG7YU1SDhH0e8DqdA1lVCo7OGooPfshseYdNYIR2FdewccZEuB/IhEVn+cc3w05C3NrhjYsV5mh+o5BFcewJrBxrC9EEH5w5shiu77pjzrv2GDDVD+mMAB17dEPhj4sxZdERpMgAYcfusEjbh1mTP0FAXi1K75zC6rdE6DN6CwLObsasmR746P1hsBu6GsF3TmLpxGmYv2Q6htqNxOao+sTHIj94Oxat9kNYwm38vHoERKM24HpxAaKPrsBYWxHGbzmIXR+MgPOwIZh/UgxIo/GNhxvWBSQiO+0CVo/sB9dtIXUNpjIqkXhoDlwXHkF8bjoCvb3g97CJx7H5CN6+CKv9wpBw+2esHiHCqA3XVXzIqKPmMX5aNQOzPBdjisMATDv8SF5UmAycmjcU7++9j5KCSPi4ijBiaxQa0zxAhZfg5ewAZ5cRGGBjhyl776AcLCRxZ/Dp27boPWorwqsAVpoHsVEHtGNZVFdIIS2rhEzV+GwxYk+sxFhbESb4nMGRxa54130O3rUfgKl+6WBYKfLERujQjgVbXQGptAyVMm7ZaxL2wcPrNHJkVUg5OgtDP/gBmS0cTXNkZQ9wZu8pPFDMdFzUJGCfhxdO58hQlXIUs4Z+gB8yZWAlcTjz6duw7T0KW8PlmUXpemuUy83mB2P7otXwC0vA7Z9XY4RoFDZcL0ZJa3xYlU2aS9JIZSIOzXHFwiPxyE0PhLeXH5q7o7K1iRsLPxXikpczHJxdMGKADeym7MWdcq5ri1EQfRQrxtpCNH4LDu76ACOch2HI/JMoUpV7WsAgJ3w/Fg6xRj/3/fDf+jYGvzkebw2zg2jcNtwqY1GkYg4xpIj+xgNu6wKQmJ2GC6tHop/rNoQUsxCYdIJB6vdYMGkKdt4zR1cTAQBjvNouFnt870C3ozGnjyqXVwxZUTSOrhgLW9F4bDm4Cx+McMawIfNxUtxUJvU5jTsnNh2rjiY5e9TW8IYPOJWJhzDHdSGOxOciPdAbXn4PmzShKnKgWKZmfhbSPDGMOrQDy1ajQipFWXlJi/mppgJl0grUglBbUQap9CkqxXdbxA/Aojh0J+Z6/AfXs4qQsH8yRE5eOJ/PqvVxbvkAafQ38HBbh4DEbKRdWI2R/VyxLaQYLFukOs83QdCxB7oV/ojFUxbhiNxQ6G6Rhn2zJuOTgDzUFsfixMqxsBVNgM+ZI1js+i7c57wL+wFT4ZfOqLQLWxyKnXM98J/rWShK2I/JIid4nc+Xx5qWdUZlHVeB6rkZZJyah6Hv78X9kgJE+rhCNGIrGobizB9qrm2CJr0JOGK3EULhJS84OzjDZcQA2NhNwd76hNQC7vWp0olMSb7nWhurzh+0pfwqDkUNwEKP+Vg4uTOe/PcgzrXYf62mz1AV58UluHNqNd4S9cHoLQE4u3kWZnp8hPeH2WHo6mDcObkUE6fNx5LpQ2E3cnOdrrj0qGGPqAwV9RYqa0uTuqQpivs7NKE6cg311bOkcZuD6UktUUXKYZpmJSR9xy10v1ZGD754k4wdt1JiLRHVxtL6/oZkvymOaomImHz6zqXJnqLqSFrT354+i5ZvDGIK/GnH/mT5uS2ooLCVIjKwW0uRVfK/MAUnaM7Mg5TNKJ5LRCSjR18PJ30zJ1pxPoOqiUj631lkYTCCvn4kIyIZpewYQoZ919Ctuk0+1bfWUF+jYfTl7zIiYijvWxcyMB5K68PySUZE1fc2kr1eexr22VV6UktEtXG00d6AenmFUBURMYVnaNbYdRRdNx6TtYdG6+uRw6Y4qmWyaM8YfTIasIKuFkko+Xow3ReL6fISEdmtDGvYY1URsZrs9C1p5k8FpEysioi1NLDXfDovqftD+UVaYKVXt1eJocIzs2jsuui6fUsMZe0ZTfp6DrQpTplWi+igqyGZDttAYUUMET2j/5tnSYajd1MmQyR78AW9aexIW+XGpNj1/cnQfhPFNdhWn6wm76NYsYyoPJEOT7chPQMn2pZQS0QM5X/nQgZmM+jnCvlsTN635GJoRQsvyw3IOb7sEX09XJ/MnFbQ+YxqIpLSf2dZkMGIr+mRjIiYPPrWxZCsFl4m+WhcsldQ5Jr+ZP9ZtFzPTAH579hPycpUooza27RhgB7p9nyLFixZQkuWLKGF7uOoj5U7/VInGxHR02OTyJBjT3R15Brqb/8Zyd2doQL/HbS/bhFM/nfkYmBGM36uIKJq1etVlJsppDOzxtK6RqejPaP1Sc9hE8XVau/DnDZpQQVFrB1Iveafp0Z3XEBWenV7GjnXJh9b32oy7YsVk4zKKfHwdLLRMyCnbQlUy3ktQ1l7xpC+0QBacbWIJMnXKfh+ESVz5Z4WVFPkmr6kZzmONgc/oVqqoJTD08hKqE+OW+5TLSmbQ0ziy0tIZLeSwhoDllbb6ZPlzJ+ogCGi2kTa/oYRWc0/T/JdjQzlHVtGa4Oecfvo3VwOeeW5ZIy+EQ1YcZWKJMl0Pfg+iVskCHU5TV1OVEJdzjab8TNVkFzetQN70fzGBEQXF1iRXt2eYc4cqHZ+ub8aWi2kuhTRcn4iooofaYqhObkFNAZf8/ghYvJPk5utK32XJVdSbdLXNLpjV5p3rpzbx9XIR5LLtERkRysbHYAiVtuRvuVM+qmAkdutRZ5vYSiSpeygIYZ9aU2joWhNXyMa9uXvJCMi2aOvabi+GTmtOE/y9PdfmmVhQCO+fiR/FkJRL0w+nXazJdfvsuR1ozaJvh7dkbrOO0flJNGyzqip44pwzS17QF+8aUyOWxNJPtR66m9oX1eP1OQPzmtbwt2bEEnUxG5t7Hrqr29Fk/fFkrykHabpNnpk4LSNEmqJiJ7SsUmGjf0L1/q4dKLEX9WtTa0/aAxDeUdn0MSvU0lGRFXhq0ika0yjfOV+Vw93n6Emzpk8+tbFgIyHrqewfBkRVdO9jfak134YfXb1iVxXcRvJ3qAXeYVUcetRqx6xOSrrLWdtURhEDVrfiQYAgZERDIWd4TzFBVa6gLGdB7YusgclhiGsUAcizxMI9/eCTU4oju46hmgJi+rnVfIOX2AK06a3jHWtILLOwu7JozDvi7NI1nPDho/7QbfJfI0YY7jXxxiRewK7z8q/JsgKuAS9adPRXakkQrRrZwKhqT1cXXtCH4CJqA+6C8ogLdXkHTMCtDMxho5+Twx26gIhAH2RLax1ge6Dh8NKF4CuDay76qBMIgEBqAw9h+Dch7jo6wMfHx/s8n8O1y3bMNfRCBAYwUhfADMnF4zsbI5+Lq4YiEs4/FMObAc5NOwbNn7TDVNFJbh4OgiNX/7WU47gA8eRMWAMxprX/cmwJ2ws6/fTVSL0XDByH16Er48PfHx2wf+5K7ZsmwtHoybDKGD82psY0lkAwBA9elgAUgkkLCAUeeJEuD+8bHIQenQXjkVLwFY/R1XDxzUhLN9wweCOQsCkPz7y/QQjdBIRfrMELAQwNW3HuZeQc3xhO7QzEcLU3hWuPfUBmEDUpzsEZVIoNx+X7LqwElkja/dkjJr3Bc4m68Ftw8fop9zRVCLsPwt7Dh7EwYMHcdj/Cn5eNVCFrypH10oE66zdmDxqHr44mww9tw34uG4RAlNTtGtQlhbrrQzFueBcPLzoCx8fH/js8sdz1y3YNtcRRq3wYU6bKFIejAPHMzBgzFg0uqMNGt2Ra21yhJZvwGVwRwhhgv4f+eKTETpIDL+JknKuawUwMtKHwMwJLiM7w7yfC1wHdsZrXLmnBQIYGRlC2NkZU1ysoAtj2HlsxSJ7QmJYGApZZXMAlw7/hBzbQXBoDFi4TRWh5OJpBEkB6PbDAs+3UHnODwG5LMA8xJmYVzFjXDtuH0UYh7zyvKsvMIOTy0h0Nu8HF9eB6Kg073HRipwoMIVpo2OiPPgAjmcMwJjGBISeNpZoNDlHDmyD+VXRPH4ASdAZBBs4wKmLXEm6r69BqDgXx6eacPq4OvlKAw/jpxxbDGp0ALzpNhWikos4HSRVnue1NxSE7drBRGgKe1dXyNOfCH26C1AmLQVBiV4kQTgTbAAHpy7yr5h1X8eaUDFyj0+FSWmglnVGyF3HFeGaWyiC54lw+HvZICf0KHYdi4aErcZzubK58wfXtUrg7k1KEKgudgFAaIk3XAZDXtI+gu8nI6CTGI6bJUrm5Fofl05a+Gup2rWp9QdNYR7geIAOps/pAyEAg2ELMHcwg6ijP+BOw7eq6voMNXEuaAcTYx3o9xwMpy5CAPoQ2VpDF90xeLgV5GXHGl11yiCRELceteoRm6Oy3mpQlzRF+8hWii56v94HJqhFdTVBoPsc8fsWwfNoHgZ95IlxloImRm66BxeAoAcWnLyGg26mCNs5A4P7OmPFueyW+9PqEPaai1XTDXFp90EkViXjVMirmDmxo+JpDTTsuaz/t1AIHRBYDb1O8XroCKDTzGV1IBAA8vc+snhWLMZzAztMXbse69fX/7cOKyf3lRtdYTimMBtPKlnU1DTZHKRrA2srAWqkEjxVjFsmB6m/SwGhrnLjsc9QLH4OA7upWNsw/3qsX7cSk/tq4naAUCAEGBlqAUCgi+fx+7DI8yjyBn0Ez3GWEHDoTtC5F3qa64CR1QJ1+uMsf5zjK/gKdCAU6gDEKk8anLLro8eCk7h20A2mYTsxY3BfOK84h2xVjqYRuhg4ey6Ga/Fcj6DHApy8dhBupmHYOWMw+jqvwLn6Reg0lVeg8XrZZ8UQPzeA3dS1TXxuPdatnIy+utr6sDqbNIfJSYXcHZV6o9q1tUDQGb16mkOHkaFa7bUtPYs792iAbm+83scEqK1GNaHlHEwhsp9Ugq2pabJ3Wxc21lYQ1EghecoCEMByhifeNw2B35EkVMT+hEf9Z8FBn9tHJ1qWqpG3xWpahaI/qM+JOk2uYZCT+jukEEK5ydXnwBebn4Nm8cNAXFSCKmkpJMrGVenj6uRjUJj9BJVsDZqnbGtYCWoglTyVN5kaLFctirlTRwh5+qsXqLleGHERSqqkKFUisNZ1RstY4pobEED3eTz2LfLE0bxB+MhzHCzrEoq6/MF1rWY06U0qCzSIXUUE6NyrJ8x1GNSVNAVUr49bJwr+qkleUesPmlF58zAuPhPg1ual8p9q/Xg/six6Qy/tFA5dqXu4QF2foTbOFWs3oCPQQfOyI4AAVPcn1XrUtkdsiqp6q3Vd4kC5fjSCQE18rrayCqyFHfp3fY7Lq6bAWzwd3253h6NF/YpUGJrJQdKT7vDYdwOpyYHwHpiNA147cb1a8cR62sN15RIMfHAYX277Dvden42xxornaI5QV6ikKSOQJhZqgQBmXS1hnBqAIzea/PYik4GgSwlK9/AIu/ZBbzMGyXfuNu45ZWtQXSNAt0EOsFS0kE5HvNJRF1VJdxGvoCNiWUBghq6WxkgNOILmSwjCJU2ewFWg/PIqTPEWY/q32+HuaNHw6U+FNYHKYpQ87wH7wa9q5Fxaj88Fp+zVyEl6gu4e+3AjNRmB3gORfcALO1U7mkYIX7VEZ3qMC+dioMlITE4SnnT3wL4bqUgO9MbA7APw2nldybWMxusVmHWFpXEqAo7cQKPYDDKCLqEVJtfKJjodX0FH3Sok3Y1XkIEgd0dt11aJ4pLn6GE/GJbm2l5brl3uqYeoyd21WlRWsbCw64+uyn4sQdgVfXqbgUm+g7uNAYua6hoIug2CQ33Atnsbnh4iJB/bjW1nyjB6Zi/5nUwOHw3KelVLeZXTtjlNER10fKUjdKuScLdlAgLbihz4chDi1R5WMCoMws9XShv+yoqD4OefhjKVPq5OPiG69ukNMyYZdxodAGxNNWoE3TDIwVKjvAcAEOpCqOTDA7XSUMJXe8DKqBBBP19Bg8SsGEF+/kh/Vcs6o2Uscc2dVnYZq6Z4Qzz9W2x3d0TTodTlD5SrvlY1KnqT7t01i10FKotL8LyHPQa/quQ4x/o4daJoYk3zyovCFuP8Dw/g+t2P8Kv7RvXgwYM4dHIH3u9ciF8P/4J8VoM+o63jnEOP2veIjaiqt7Va1yXVtN4ybDGyMuuf/snDhQsJ6O+5FOP0y/AooxDl2Wl4XF6FnLBAROUzqCzLR3xMEgAWDCv/9MRCrqCAr/xwrxIwtHkH3hunw8bYAIYcn+R1+y3Cyom1+OWbZAyb7chxW58Fw8jkc9UHHZE8GbIsACEsrLpAPzcaV+8VoujBJRw4fgtiWTFyHpfgWRXAsGxd8qyH5EHaEMTy/2dZeVSYjJ8P956Z8HMbg1nbfkDA2RPwWfgZIk16yddJgKy2iZXaT8RyzwGQnN2Do2ny71LYgmsIzRmO5UtHwqDxTDmCzpg0ZyJeyTiCVd4XkV0DVGfdQ1IRA0luFgrKdDB+vjt6ZvrBbcwsbPshAGdP+GDhZ5Ew6aVEUywLuYgKWYmV66jsUQYKy7OR9rgcVTlhCIzKB1NZhvz4GCSVAwChskxalwCrkHjkFB79ayNWDNOXD8OwoCb6ExgawgBPkZ9XiuKYcEQ94Bj/KQNGRmCbNARy88nXDIEhDA2Ap/l5KC2OQUQCl+w6yAn4Cn5yR8M73hsx3cYYBoY6ACvGta1u+HBHSJOAUoCVoUZGAMMofAKuRuqRrbhWI4IBAIZh6vyr2UkNMDkB+MrvHiphCJt3vLFxug2MDQzldxhYBizVFQ8wqterKPej4Zjv3hOZfm4YM2sbfgg4ixM+C/FZpAl66Wrrw5rYvBFB50mYM/EVZBxZBe+L2ahBNbLuJaGIkSA3qwBlOuM51wYAVFkGaV1CrEo8glOP/oWNK4ZB30TdtQTIahsTNqsu9yiHLc5CYyq7gAsJ/eG5dFzd194Kc6A9Ji73xADJWew5miZ/OJotwLXQHAxfvhQjGwJWFw4LFmOk+DTO0iRM7FT/dxPVPtr/X2rkBQgyNE0fLVGX09TlRGWwYFhqKJ6dJ83BxFcycGSVNy7KExDuJRWBkeQiq6AMOpw5UN38AhjKnRt5pcWIiUhAZbP566ipQS3VoKa6yd+axQ/QfsJ8zOhegJNL3sPK7wPwq78vlnkEQNe5F8pV+vhtFI7jlk9v4nJ4DpDg7J6jkKdsFgXXQpEzfDmW1juAYp5XgtDCCl30cxF99R4Kix7g0oHjuCWWoTjnMUqeVYFlGMiIbZKbCQQCy9bHsoJe2k/A/BndUXByCd5b+T0CfvWH7zIPBOg6w7ajlnVG21jimLtX+SNkFJYjO+0xyqtyEBYYhXymEmX58bhdOI4zf0gKVF8bo5iM6lHVmxhqGLtUibLGhIQjpx7hXxtXQF7SGMhTvNwGbBnH+nJGqtSJrVDRX9WvTZ0/sOJr2Or2IXaEqKxikCUfwuGnUzB/gEIvYP4O5r/fA+VXv4dfQo0GfUalml6HqesrmsQnyWO9sewQCCxYRo0eE9JU9oiVt/dj3sQPse1KfuM8TVBZb9XWFi1Q3CStCbVxG2mQviUNnbGQlq36hJbNnkZunwdSlvxpB8o9t5yGdDGlDr1H0cIDIfSjhzWZ95pIX0XlUkrgZprQVUi6PafRF5fTiKpvkbdzb7J/y4M+3bKN1i1eTD43lD3o0JyqsJXkOOkQ5XKcKE04S94uFiTUE9FM38uUnHaTji53JnOBMTksPEwRuQzR0wjaMb4HmZlZkcP0ryjk8lpy7DOa5m05ReGR/0ebJ1iRULcXvb8rkBKz4unX7ZOph1CXek3zof+7/5juBGyid6zk8vgEpVM1EVWknCKvcbbUwUCfzHoMp8XHk6iCEdO9M+vpLUshCa1cacOZO1RSv/baTLqwYTI5OoyhmYv+TR/N8aTdYYWqdcBIKPY7Dxpq3YHMbZxo0sdbaMHQnjTM/XM6FpVPRBWUcsqLxtl2IAN9M+oxfDEdT2ry9FsDUrr/y2c01kJIeiI3+vpiEqWGH6EVw81JaOJIS45GU17OOVo+pAuZduhNoxYeoJAfPcjavBdN/CqKpFRBv1/YQbNHv0GjpnjQsuWLaOn2QHpU92BEeUogbZ7QlYS6NjR15yVKq5K/3OXYhyLq0ElEU32jqSxX1fjX6NZZb3KxEJKeaCb5Xk6mtJtHabmzOQmMHWjh4QjKZWSUfuxDEnXoRKKpvhT9jDhkr6Zb3s7U2/4t8vh0C21bt5gW+9yQPwgmS6fvJrxKXSYepAwlT2jIMn6jw1veI5GBDgk62NO0BfIHC5csWUCzJ7xOHV/5gPzFRM9TL9Im1y4kFFrT1J3nKanZW1nkVN/yJufe9vSWx6e0Zds6WrzYh24UMETlKRS4eQJ1FeqSzdSddCntqer1khK5K1LolNc4su1gQPpmPWj44uOUVEFUnnJBax9+rtImUXUPyjWHkcTSdx5DybqDOdk4TaKPtyygoT2Hkfvnxygqn1G5NiKiit8v0I7Zo+mNUVPIY9lyWrR0OwXWOxCpkosh8b0ztP4tSxIKrch1wxm6U8KoyT3KVl5LcRsHkb7lUJqxcBmt+mQZzZ7mRp8HZpGMVM0hvy7zwgaa7OhAY2Yuon9/NIc8d4dRYYuAldCvCybStvuKT6qo8lFV8hIx4nt0Zv1bZCkUkpXrBjpzp0R1fuDIaSHhv6jPic0ob8zZNlNp56U0ImJIEvsdeQy1pg7mNuQ06WPasmAo9RzmTp8fiyK5yZXkQA1zsiz9GH0o6kCdRFPJN7qgxfy1GTfo++UjqJNAQBZj15LfL1H0pEwxfuRPJVak+JPXOBF1Nm1PVk7u5HuziBgiYjh9XL18tZkXaMNkR3IYM5MW/fsjmuO5m8IKGSKuPN+CpxSxYzz1MDMjK4fp9FXIZVrr2IdGz9tCp0LC6ay3C1kI9Ug005cuJ6fRzaPLydlcQMYOC+lwxO8t9EIk9x9/r3Ek6mxK7a2cyN33JhW1qs5oG0scczO5dG75EOpi2oF6j1pIB0J+JA9rc+o18SuKkqrJH7k5nNcqwt2bkPrYrfidLuyYTaPfGEVTPJbR8kVLaXvgo7qHMZ9T6sVN5NpFSELrqbTzfJJa2VTqpEW+r+JemzRBjT/kkiz9O5rwaheaeDCjXtgmMJR/83ta4NiejF6fRV+dS2iSyxkqjfuZvMdbkhA61K7/h/RFYBpVq+0zVMV5OaVc2EwTrISk2+t92hWYSFnxv9L2yT1IqNuLpvn8H91/fIcCNr1DVkJd6jnNh4IePlatxyJVPSJDucemURfzV8hi+LYmsjaist6S6lyrLTpEjfejNEUWvwlOw85jUuRdbHfQtm1vC1hkH/TAzs574ff+3+UnuXl4eP5ayBC/yQnDzk9C5N3t+FNSGQ8PT5vx5/cmPH84NRHwXnoXX/ywQvHIH0Lrt3MAUP6Y7kuEKUeppApseSQOXLPE7Hf5BpqHh+fF+aNTGQ8Pz0uED+h/BqwYkYcuotPsuYpH/jBa1UTLSkvxlCmDWKLNWyZeFBkSdo6BpYUFury2HKVzV2n1qwg8PDw8zZGhtPQpmDIx/tBUxsPD81L4c3oTnj8HFpLEeLATt2D1mD/vhqrW2zmq06/h+C/hyCyTQdfcBmNmzIdLL/lDZC8bWdYVHPRPwitvz8UMp86t+wTAw8PDg2qkXzuOX8IzUSbThbnNGMyY74I/KJXx8PC0MX9mb8Lzz0XrJpqHh4eHh4eHh4fnnw5/M5eHh4eHh4eHh4dHS9qsiWafZSAxXcrv5//DqUJu4gMUvpDiK5AVdx85TV5m9dfhT1wb+wwZiemQaqTbtrADD89LRCt/bkv+CrHBQPIwEY8rFP/ehKpcJD4obIMa9ifmLJ6/KCyeZSQi/Y8OvoosxN3PafIWxBejIisO9/8Ux24b/VXlJuJBGyeiF2+imRz85uuBIT1fh9uhVO3fVMPTSlhI407hExdb2I7ZgYgXeI6CzTyEucOcsehEQRsUkLaFa23VNzfAue8orAkuanHsxWCQ85svPIb0xOtuh5DK6dRtZwcenpeDNv7clvw1YoPJ+g2+cwej58AF8M9SfFUcAFaKuFOfwMXWFmN2RMhfdPECqM5Z1bi5wRl9R61BcFHbZiyeF6AmA4FffoJV207idjELMLmIi8vT6LXSmsDk/AZfjyHo+bobDv1xwQeAReahuRjmvAgnCtrA39hMHJo7DM6LTqDFcNU3scG5L0atCUZbu3Zb6I+VxuHUJy6wtR2DHW2ciF68iRZ2xzivRRjdqcmbaHj+AAQwd3DHqimiJm+eax0Cm8X4MSoSh+d1aQOHaFtUr60Gdy9cBabvxMZ/WbTxuoXoPs4Li0Z30kC3bWeHvyRsMe7eedRmBYXnz0Abf25L/hqxIbQeh4/nj0QHVRVKYA4H91WYImqbGqYyZ9XchTxlbcS/LNo2Y/G0FhbF50/hN5k+sn/2wshBw/Hhok9xNscYQsVTW4mw+zh4LRqNTn94EAhgs/hHREUexrwubeBvAhss/jEKkYfnQXG4mrsXcBXTsXPjv9DWrt0W+hOYO8B91RSIXmAMVbSNuEJzmJtxvKeb5yUhgJmpifyV0S+ECawdBqH7X/InA1WsjclGVrdPcXrrSLRXONQ2CGFubqahbtvKDn89KmL2YtPxh/w3TH97tPHntuSvERtCE1OYcFU7gRlMTdpqlcpzFpOdhW6fnsbWkS8nY/G0Egd3fO79Jc7eS8C1Xe4YOfEzrJ5ornjWCyE0N8ef0iKZWMNhUHcols/WYmLtgEGKjg0G2Vnd8OnprXhZrt0W+hOYmaLNQrwJXGlFLbLSdMSGhSMu57niIQBAZV4iboWG427Ws2Zfa7HSR4gJu4n47DKI8/LRbJtaZR4Sb4Ui/G4WnjX7WkAG8cMYhNwIxe0MqRZ3xmpQlBqF0NAYpEsUr2IgybiDm+HRSC1SvMVfgezENIhZoKYwGZGRKShq0UlwXQ81c1ciL/EWQsPvIqu5oKjMTkRqMYOqvPuITS3llFWg09IrZOKHiAm5gdDbGZByXdyEqtwEpDT9jqYiG4lpYrCoQWFyJCJTiuSNFFuKB+HBCAoKQlBQMCLSysACeJZ+C1eCghAckda451KVLSuzkZhaDKYqD/djU1HKQP7V76MYhN2MR3aZGHn5jV7RYm0AgE54c3gXZN9ORQvVq1q7JshKkR4bhvC4HCj1ahUyKbODclg8e5yMjGcsGEk6osNjkK5gJJX2ZyTIuHMT4dFNZGbFSA6tt8cVxGRWysfIjJHbIzQZYnX2AICaIqRGhSI0Jh1yV2VRHL0P82b7IjYzHleDQ5BUXH+ROr/noCIXCRHhiHpQhOqaQmRkPgObH49rwUEICr6JVCkLMHm4e0UuT/RjuTz1qMopnLSQrQnKdFqPUj+tRHZiKoqZKuTdj0Wq/I/y01WsTVW+Y589RnLGM7CMBOnR4YhJV5LXuNaniZ+30p9Vo30eVhobMjEexoTgRuhtZGiUpNTHDQAwkgzcuRmO6NSi5tsydHTqGnmCrPgBoqOTUdBsa6cAypfJlUtV53elOavTmxjeJRu3FdcGoCI7EWnyYoPkyEiktCw2zdEm7pvC5iP+WjCCgoJxM1UKFgzy7l5BUFAQrkQ/RkO0qfUt7f1AI3/n9McK5CZEIDzqAYqqa1CYkYlnmsoDVWML0NlSH3m/i8EadIFosCPsX+sC02adkfayypGhND0WYeFxUN4iqeoBVNdCAKgpSkVUaChi0iXN1qK8blQhNyGlcfsF+wyPkzPwjGUgSY9GeEy6Er9WPQeqcpGQorhNCej05nB0yb6tpB5o0keporX6U4GgPgc0Qes81JJWNtGVSDw0B64LjyA+Nx2B3l7we9hkAWw+grcvwmq/MCTc/hmrR4gwasN1uSIT9sHD6zRyZFVIOToLQz/4AZny7gz5wduxaLUfwhJu4+fVIyAatQHXxSzAZODUvKF4f+99lBREwsdVhBFbo5oHiBLY4lDsnOuB/1zPQlHCfkwWOcHrfL7cAaTR+MbDDesCEpGddgGrR/aD67YQFLMsimNPYOVYW4gm+ODMkcVwfdcdc961x4CpfkivF1Pl9ernZvODsX3RaviFJeD2z6sxQjQKG66LISuKxtEVY2ErGo8tB3fhgxHOGDZkPk6KmwjFCYOMU/Mw9P29uF9SgEgfV4hGbEUUh6JYSRzOfPo2bHuPwtbwKoAtRuyJlRhrK8IEnzM4stgV77rPwbv2AzDVLx2MwASdDFLx/YJJmLLzHsy7mkAAwPjVdojd44s7uh1hLFBhy+ICRB9dgbG2IozfchC7PhgB52FDMP9kPhL2ecDrdA5kVSk4OmsoPvghEzWKa6tDGv0NPNzWISAxG2kXVmNkP1dsCykGq27tzSRvSWXiIcxxXYgj8blID/SGl9/DJteokElppVIOkxOO/QuHwLqfO/b7b8Xbg9/E+LeGwU40DttulYHlsL9KmQVGaFdxDRtnTIT7gUxYdJbfJTDsJMStHd64WGGOdqrsIWblzXLoTsz1+A+uZxUhYf9kiJy8cD63FHliI3Rox4KtroBUWoZKmXq/V00lko974t05u3AlORXhu2fCoWc/TDuUCrZjD3Qr/BGLpyzCkRQZIOyI7hZp2DdrMj4JqNubyJFTVKNCtnz5RSp1yhYp8dM34L5lH1aMtYVo/BYc3PUBRjgPw5D5JyHmWJvSfFedg/D9CzHEuh/c9/tj69uD8eb4tzDMToRx226hrG71qtenmZ+3uT+3Mg8rwmScwryh72Pv/RIURPrAVTQCWzmSlLq4kSNF9DcecFsXgMTsNFxYPRL9XLchpJljEgovecHZwRkuIwbAxm4K9t4pb3K8Kdy5VFV+lynNWarXxhbH4sTKsbAVTYDPmSNY7Pou3Oe8C/sBU+HXUGyUoFHcK14EQNARPboV4sfFU7DoSApkEKJjdwuk7ZuFyZ8EIK9WA9/S1g8YTfyd2x8rk4/D89052HUlGanhuzHToSf6TTuEVFaNPPLkoXzs4sK2l7WeykQcmuOKhUfikZseCG8vPzRvkZT3ACxqlNZCeYtUjNCdc+Hxn+vIKkrA/skiOHmdR26BsrrhgYMhZ/Dp27boPWorwqsY5ITvx8Ih1ujnvh/+W9/G4DfH461hdhCN24aGMFIxR75Mgrgzn+Jt294YtTW88UFFlfVAwz5KFa3Wn+Zom4dUQq2gImItDew1n85L6v5QfpEWWOnRa2ujqJoYKjwzi8aui6ZqIiJiKGvPaNLXc6BNcRUUuaY/2X8WTc+JiJgC8t+xn5JriZjCMzRr7DqKll9ETNYeGq2vRw6b4qjqwRf0prEjbU2sJaJail3fnwztN1FcbcOSWsLk02k3W3L9LosYIqLaJPp6dEfqOu8clZOELi8Rkd3KMPk6iKgiYjXZ6VvSzJ8KiCEZPfp6OOmbOdGK8xlUTUTS/84iC4MR9PUjGZG667nmZgrpzKyxtK5RUNozWp/0HOTyMFl7aIy+EQ1YcZWKJMl0Pfg+iZm6SZTw9NgkMuzgTv99TkSyB/TFm8bkuDWRaomoNnY99Te0p02ciiJi8r8jFwMzmvFzhfwPskf09XB9MnNaQeczqolISv+dZUEGI76mRzIiolpK3P4GGVnNp/PSujHyjtGytUH0jLhtWctk0Z4x+mQ0YAVdLZJQ8vVgup8fQWv629Nn0XJtMgX+tGN/MtUqW5vkMi0R2dHKsAbNU8RqO9K3nEk/FTAarF0FFRG0dmAvmt/o1HRxgRXpvbaWoqrVyKRoBw6qI9dQXz1LGrc5mJ7UElWkHKZpVkLSd9xC91XZX6xGZqqgsJUiMrBbS5FV8jOYghM0Z+ZByma4116df5rcbF3puyy5k9UmfU2jO3aleefKiZg8+tbFkKwWXib5sGr8vu5vynj220rq77CWbtWZkaojac1rBtR/fSzVEpEsZQcNMexLa27VLbL6Fq3pa0TDvvydZJw5RbVvM1yyqfMjZX4qrqWsPWNI32gArbhaRJLk6xR8v5jyVa5Ndb6j6kha01ePLMdtpmC5I9DhaVYk1HekLfdr1a9PnZ+/oD8rQ9aaPNwiNmT04Is3ydhxK8mHiaX1/Q3JnmNe0iBuJJeXkMhuJTWqK4JW2+mT5cyfqICpy4X6VjR5XyyJZUTliYdpuo0eGThto4RaIqKndGySIXVw/6/cVly5lCu/K8lZ6tYme/Q1Ddc3I6cV50luyv/SLAsDGvH1I+JKWeriXiWyFNoxxJD6rrlV57PVdGtNXzIa9iX9LlOf/1vlB2r8ndMfn/1GK/s70NrG5EGRa14jg/7rKVaePDjl4Rz7ZchKFRSxdiD1mn+eGlukBWSl9xqtlQef6h6gIlJFLWQo/7Qb2bp+R/J0VktJX4+mjl3n0blyFXWDYSj/OxcyMJtBclespsg1fUnPchxtDn5CtVRBKYenkZVQnxy33Fc7BzH59J2LAZnN+JnqPFtNPVDXR6niBfTHZZenx2iSYQdylzdLrcpDylD2WVUN5Qg+cBwZA8ZgbP22IcOesLGs34ZfidBzwch9eBG+Pj7w8dkF/+eu2LJtLhyNdGElskbW7skYNe8LnE3Wg9uGj9FPF6gMPYfg3Ie46OsDHx8f7PJ/Dtct2zDX0QhCkSdOhPvDyyYHoUd34Vi0BGz1c1RxfeyQBOFMsAEcnOoe7tB9HWtCxcg9PhUmpYE4/FMObAc5NOwVMn7TDVNFJbh4OghSCNGunQmEpvZwde0JfQAmoj7oLiiDtJQAdddzzV0ZinPBuXh40Rc+Pj7w2eWP565bsG2uI4wACIyMoC8wg5PLSHQ27wcX14HoqKmVhCJ4ngiHv5cNckKPYtexaEjYajznVBQgMDVFu6bfcwjboZ2JEKb2rnDtqQ/ABKI+3SEok6KUAEAX/RZ44q3Kc/ALyAULBg/PxODVGePQDty2hMAIRvoCmDm5YGRnc/RzccVAi+4QWWdh9+RRmPfFWSTruWHDx/2gq2RtpYGH8VOOLQY5NGgeb7pNhajkIk4HSTVYu3LKgw/geMYAjGl0avS0sWx4uIRTJi0QGBnBUNgZzlNcYKULGNt5YOsie1BiGMIKWaX2xyU1MsMYw70+xojcE9h9thAsGGQFXILetOnoLuBeuyToDIINHOBU96SI7utrECrOxfGpJs3WDUC93yuc3kgZLh08hWdvvg1H47o/CdujvdJbZcrgyimK5zbCJZtaP1Lmpx11YWSkD4GZE1xGdoZ5Pxe4DjREuMq1qc53EBjByFCIzs5T4CJ3BHhsXQR7SkRYWCFK1K1PjZ+/DH9uVR5ugRAizxMI9/eCTU4oju46hmgJi+rnVZx3kbjjpgSBh39Cju0gNKrrTbhNFaHk4mkE1Tum0BJvuAxGRyFg0v8j+H4yAjqJ4bhZomRmrlzKld9b5KxStWsTtmsHE6Ep7F1dITelCH26C1AmLVXzoCN33LcaNb7VKj9Q4+/lHP5YdukgTj17E283Jg+0b99O46/ROX39ZchaHowDxzMwYMxYNLZINmhskTh6AF0rFbVQgqAzwTBwcKp7qE8Xr68JhTj3OKaaqOobBDA1bddkC4MARkaGEHZ2xhQXK+jCGHYeW7HInpAYFoZClnsOCExh2rwYq6kHavooVbyI/poMw03r8pAyNPXDRpgcpP4uBYS6yi9mn6FY/BwGdlOxdv16rK//b91KTO6rjx4LTuLaQTeYhu3EjMF94bziHLIZFs+KxXhuYIepa5tcs34dVk7uC12BLp7H78Miz6PIG/QRPMdZQsBhAwBgxEUoqZKiVNLyRKYwG08qWdTUNNkUp2sDaysBaqQSPGUBHYUNcjpCIXRAYEn99ZJi1XOzz4ohfm4Au6lrm8i5HutWTkZfXfk5LfbtaIwAus/jsW+RJ47mDcJHnuNgqU5RqNsv2GzSlv8WCnUAYhuSusByBjzfN0WI3xEkVcTip0f9MctBH4AaW8qHa46gBxacvIaDbqYI2zkDg/s6Y8W5bPnXac3WxqAw+wkq2Ro0V701rAQ1kEqegtVg7S1hkJP6O6QQQle5U6uXqdXoovfrfWCCWlRXy1fYXD2ayAwIe83FqumGuLT7IBKrknEq5FXMnNhRzdptUVZUgippKZS4agvU+f1TVdmHycOjzHLo6uu1ML1GcOYUVdpnIFYpm2Y6Vb5YhT9yrk1Vvms+RD26vV9HHxOgtroSBWrXx+XnL8mfW5GHlSHQfY74fYvgeTQPgz7yxDhLAUdsqqJJ3FQWIPtJJdiamia/h6sLG2srCGqkkCh1TAE69+oJcx0GslrFY+DMpVy1BVDIWUyh+rU17NeuQ0cIuSlVjN8E1XH/InD5Vtv5QaO/P8dTlf5oi6JHmSjX1Yee0nhUhzpfb3tZmZxUyFskpcHH3QPoq6iFjBhFJVWQlkpUxooy9ego+pYiur3xutwIqJapm0OnWV+kST3g6qNU8UL6U5m8WtI2eag1TbROR7zSURdVSXcRX938ELEsIDBDV0tjpAYcwQ1J4zEmIwiXEqqRk/QE3T324UZqMgK9ByL7gBd2Xq+FWVdLGKcG4EjzixB0KQHSy6swxVuM6d9uh7ujRUOS5xJY+GoPWBkVIujnKyit/yMrRpCfP9Jf7YPeZgyS79xt3NvE1qC6RoBugxxgqUYrwq7c13ezVD337yZdYWmcioAjN9AoKYOMoEtI0HjDvQrKL2PVFG+Ip3+L7e6OsNBEUa2mHd729IAo+Rh2bzuDstEz0UsIAAJOWyoVkclB0pPu8Nh3A6nJgfAemI0DXjtxXcG/ACG69ukNMyYZd+427l1ia6pRI+iGQQ6WrXBoANBBx1c6QrcqCXdbOjXY1sjECYGa1PXayiqwFnbo31XZjyppKnN7uK5cgoEPDuPLbd/h3uuzMdYYauyRjE49rGBUGISfrzR4KlhxEPz801rsIVfn9yrjRsccHdoDT+5E47HioPUIdSFUklyJGDU5RZX2hXhVpWzpeFUjnWoA59pU5btGH6PmjoAq1gJ2/buj+wut7+X4c3kr8nBLynF51RR4i6fj2+3ucNQqSamIm+7d0ae3GZjkO2hUF4ua6hoIug2CgwrHrCwuwfMe9hj8qpLjHLmUq7akKfq3sGur1qY5quKeCyF0hUqadKIWMa+MF/ED5f7eDR1U+mMi2smTB6JVJw8OeVrn6/W0Rladjq+go24Vku7Go3n0EeQtEkcPUK2iFspeRQ8rIxQG/YzGdMZCHOQH/xZOpwaiJndba1FZxcLCrj+66ms3R6vrgRpeSH/qDNrAi+Sh5mgvpqAzJs2ZiFcyjmCV90Vk1wDVWfeQVMRAkpuFgjIdjJ/vjp6ZfnAbMwvbfgjA2RM+WPhZJEx66SAn4Cv43asEDG3wjvdGTLcxhoGhDkzGz4d7z0z4uY3BrG0/IODsCfgs/AyRJjaoeJSBwvJspD0uR1VOGAKj8sFUliE/PgZJqp4LaT8B82d0R8HJJXhv5fcI+NUfvss8EKDrDNuOE7HccwAkZ/fgaJr8aVK24BpCc4Zj+dKRMAALhpGB2CZFnUhegFgWaK/meq65zcZjvntPZPq5Ycysbfgh4CxO+CzEZ5Em6FVnR4IMtRo6A8MwdesC2LJHyCgsR3baY5RX5SAsMAr5TCXK8uMRo1JRAFgGLMkdtP7fjIzANrl7KxdfPk89ug4LsHikGKfPEiZN7NTwd9W27CVPQgTImgrI5CDgKz/I3eIdeG+cDhtjAxjqtFxb+4nL4TlAgrN7jkKuehYF10KRM3w5lo400HjtzRGg86Q5mPhKBo6s8sZFuVPjXlIRGEkusgrKoKNGpqZ2UAtbjKzMOnuwebhwIQH9PZdiXN13Yor2VytzHbr9FmHlxFr88k0yhs12bEj4XPboNGE+ZnQvwMkl72Hl9wH41d8XyzwCoOtsC6HAEIYGwNP8PJQWxyAiaxy33zesRAGBBf713hgYxXyJWUsP4ErsXfx2/Bh+y29MzEILK3TRz0X01XsoLHqASweO45ZYhuKcxyh5JuTIKapvPbTnkK2jJjpV9NPGPzYpviYca1Od7+SwKM7KhNwTWORduICE/p5YOs5Qvc05/fzF/bklLMpak4cVY4Mtw6OMQpRnp+FxeRVywgIRlc+gsiwf8TFJipc2R2XctMfE5Z4YIDmLPUfT5L98wRbgWmgOhi9fioYQoUqUSevKclUijpx6hH9tXIFh+gDAQL5MVv7wN1cuzRmpOr8LFXOW+rWxDAMZsU2aQAKBwNatRR2q4l4lQgtYddFHbvRV3CsswoNLB3D8lhiy4hw8LnmGKk7far0fcPm76hxli67/eg9jjGLw5aylOHAlFnd/O45jv+U3Nvxq5BGqHLsXdF+CrILOkzBn4ivIOLIK3hezUYNqZN1LQhEjQW5WAcp0OHoAHVW1sD0mzJ+B7gUnseS9lfg+4Ff4+y6DR4AunG3lN18U6wYAsAwLouZ+xBZnoTGMLuBCQn94Lh0HQ6ibgwXDkvxmKaC+D1LXR6nghfTH5fwMA6Yurl4oDymiuElaIxgJxX7nQUOtO5C5jRNN+ngLLRjak4a5f07HovKJqIJSTnnRONsOZKBvRj2GL6bjSRXyDf/eztTb/i3y+HQLbVu3mBb73KCCuocgKlJOkdc4W+pgoE9mPYbT4uNJVEFETO45Wj6kC5l26E2jFh6gkB89yNq8F038KorqnmtTTkUK+XuNI1FnU2pv5UTuvjepqP6Bi9pMurBhMjk6jKGZi/5NH83xpN1hhcQQkTThLHm7WJBQT0QzfS9TctpNOrrcmcwFxuSw8DBF5DKc16uduyKFTnmNI9sOBqRv1oOGLz5OSRVEjPgenVn/FlkKhWTluoHO3CnhfFjreepF2uTahYRCa5q68zwlSXPp3PIh1MW0A/UetZAOhPxIHtbm1GviVxSlSlHlKRS4eQJ1FeqSzdSddCmtkBLOepOLhZD0RDPJ93Iypd08SsudzUlg7EALD0dQbpNFSX5dQBO33W+xGV+pLRkx3Tuznt6yFJLQypU2nLlDJYz8ITJv595k/5YHfbplG61bvJh8bhQQ02Jt8qdnajMv0IbJjuQwZiYt+vdHNMdzN4UVMkQk1WrtzWFIEvsdeQy1pg7mNuQ06WPasmAo9RzmTp8fi6J8RoVMyuzwVHHsRmrjNtIgfUsaOmMhLVv1CS2bPY3cPg+kLBm3/VXL3JyqsJXkOOlQCzlVrV1+zJ+8xomos2l7snJyJ9+bRXXzyij92Ick6tCJRFN9KfoZd9xwIsujq5snkV3ndmRmM5ZWBQTRZiejhgcLiZ5SxI7x1MPMjKwcptNXIZdprWMfGj1vC526XcKRU7hRLRuHTpX6KUPie2do/VuWJBRakeuGM3SnpCGgVayNI9/VxtHGQfpkOXQGLVy2ij5ZNpumuX1OgVmND9yoXJ9Gft56f1ZFa/Jwy9hgKPfcchrSxZQ69B5FCw+E0I8e1mTeayJ9pTJJccdN3RmUeWEDTXZ0oDEzF9G/P5pDnrvDqCFEKn6nCztm0+g3RtEUj2W0fNFS2h74qO6BqOeUenETuXYRktB6Ku08n0TEqMmlqvK70pzFsTZpAp31diELoR6JZvrS5eQ0unl0OTmbC8jYYSEdjsitF5ATVXGviqcRO2h8DzMys3Kg6V+F0OW1jtRn9DzaciqEwn/h9q2cHO39QBN/V+2PMsq7upkm2XWmdmY2NHZVAAVtdiKj+gcLOeW5TSUqfV19HLVKViJiJLH0ncdQsu5gTjZOk+jjLQtoaM9h5P75MYqSB5/SHkBlLSSS5xl/Lxon6kym7a3Iyd2XbhYxKutGeUogbZ7QlYS6NjR15yVKq6qluI2DSN9yKM1YuIxWfbKMZk9zo88Ds5o8wKp8DqJySgncTBO6CknXZirtvJQmP52jHmjUR6mg1fpTxfNUurjJlboIhWQ9dSedT5K2Kg8pQ4foJbzChYeHRymy+E1wGnYekyLvYrsD18fm1sAi+6AHdnbeC7/3Oyge/GvBpGDHUCf8PD4McV+8of7u2f8asnhschqG85MicXe7wz9Pfi15uXHzd+dvEPdt6u8MUnYMhdPP4xEW9wXeeLHB/kHIEL/JCcPOT0Lk3e3gw6ht0H47Bw8Pz4uj+tss7WHKUSqpAlseiQPXLDH73b9oIeVRQls6wj8AXl2N/C3jnjfgXwHeCm0H30Tz8PyByEpL8ZQpg1ii+Gan1iJDws4xsLSwQJfXlqN07ioMV3wr618RWQlKymQolz5V+3DP/ySyUpQ+ZVAmlrR4ex1PS9o+bv7u/M3ivk39XYaSkjLIyqV4+o9MHq1FhtLSp2DKxODDqO0QbtmyZYviH3l4eNqe6vRrOHG1CN0Gv452pdmgrgPRq4OyX+TQBgE62VijU6d+eH/Df/DZuFf/+p+MmVzc8g/GEwt79DOVIEenGxxt6n8R9B9AdTqunbiKom6D8Xq7UmRTVwzs1aHhN5x5mvNy4ubvzt8o7tvU3xnk3vJH8BML2PczhSRHB93sbWD+lxX+r0I10q+dwNWibhj8ejuUZhO6DuyFf3wYtQH8nmgeHh4eHh4eHh4eLeE/v/Hw8PDw8PDw8PBoCd9E8/Dw8PDw8PDw8GjJ/3ATXYGsuPvIafJGSh4eHh4eHh4eHp624H+2iWYzD2HuMGcsOlGg8HMu1bi5wRl9R61BcBH/Qy88PDw8PDw8PDza88c/WMgW4+69p7B36t3Kp3M1pQJZcekQ2A1C96Y//VMTibXD18BgdxB2jGzf5AAPDw8PDw8PDw+PZvzhd6IrYvZi0/GHf8Bvw5rA2kGhgQbAZGeh26ensZVvoHl4eHh4eHh4eFpJ638nWibGw9sxiE8vAcy7oINh8368pigVsbeTkCdrD8uORhCARXH0fiycvQ2Ren3Rv2MN8rJ/R1rq70gvYPBK91egl38X1yLu4/cMMXS7dkMHvfqpHuJ2TDzkU3VA86lqUJQai9tJeZC1t0RHo8aDVbkJeFjZGZ3b6TT8jXRMoFeZgyfPjWDxikmzu+EV2Yl4LOuMV3SLkByTgBIDS3Q2+cM/Z/Dw8PDw8PDw8PzFaVWHyGScwryh72Pv/RIURPrAVTQCW6Mq5QfZYoTunAuP/1xHVlEC9k8WwcnrPPJlUuSJjdChHQu2ugJS6TPodemGwh8XY8qiI0iRAcKO3WGRtg+zJn+CgDwGAIOMU/Mw9P29uF9SgEgfV4hGbEXjVKHYOdcD/7mehaKE/ZgscoLX+XzIJHE48+nbsO09ClvD658slCL6Gw+4rQtAYnYaLqweiX6u2xBSzIItjsWJlWNhK5oAnzNHsNj1XbjPeRf2A6bCL51pkJuHh4eHh4eHh4cHAEBaI6MHX7xJxo5bKbGWiGpjaX1/Q7LfFEe1xFD+aTeydf2OshgiolpK+no0dew6j86VExGTR9+6GJLVwstUVTdWyo4hZNh3Dd2qlo9efWsN9TUaRl/+LiOSPaAv3jQmx62JJJ9qPfU3tKdNcbVETD6ddrMl1++ySD5VEn09uiN1nXeOyomIyf+OXAzMaMbPFUREJLm8hER2KynseZ0YFRG02k6fLGf+RAUMkezR1zRc34ycVpynjGoikv6XZlkY0IivH5Gs7hIeHh4eHh4eHh4eIqJW3IkWQuR5AuH+XrDJCcXRXccQLWFR/bwKLCQIOhMMAwcndBEAgC5eXxMKce5xTDVRHEcDhCJ4ngiHv5cNckKPYtexaEjYajyvYgFJEM4EG8DBqYv8drru61gTKkbu8akwASAwNUXjLo5SBB7+CTm2g+BQv0fa+E24TRWh5OJpBEkBYbt2MBGawt7VFT31AZiI0Ke7AGXSUvyxT17y8PDw8PDw8PD81WlFEw0IdJ8jft8ieB7Nw6CPPDHOUiBvNBkxikqqIC2VtFHjKYDu83jsW+SJo3mD8JHnOFgK5CMz4iKUVElRKlExk44OdOqbaKYQ2U8qwdbUoPFno3VhY20FQY0Ukqes/PyGYwB0hBDqAMSqGJ+Hh4eHh4eHh+cfSyua6HJcXjUF3uLp+Ha7OxwtdOv+ToDwVfSwMkJh0M+4Ulp/PgtxkB/805TvLRbqCgFiFZpuAjEAyi9j1RRviKd/i+3ujmg+VQ9YGRUi6OcraJxKjCA/f7SYStgVfXqbgUm+g7t1+6kBFjXVNRB0GwQHy1aogYeHh4eHh4eH5x+L9t0jW4ZHGYUoz07D4/Iq5IQFIiqfQWVZPuJjcjBh/gx0LziJJe+txPcBv8Lfdxk8AnThbCsEBIYwNACe5uehtDgGEQnVsLDqAv3caFy9V4iiB5dw4PgtiGXFyHlcgrLCR8goLEd22mOUV+UgLDAK+UwlyvLjEZMzEvNndEfBySV4b+X3CPjVH77LPBCg6wxbIQCWAUsElgWA9pi43BMDJGex52gaagCALcC10BwMX74UIw0AlmEgI7bJnWcCgcCyLFgArPgatrp9iB0hkmbq4OHh4eHh4eHh+eeh/U/c6bRD9/YlCDn1PfYcvY7ivrPxrsEN/F9IHnq8Nx8uY9/B273LcPviGfz401Wkm07Edt9/Y1A7HQD6aF/7ABd+8MPxRBt8sGAUbPt2Axt1DL5fHsTlnN6Y9+EriI1+hg4dO8B2xL9gVxmKU9/vwdHrxeg7+10Y3Pg/hOT1wHvzJ2DsO2+jd9ltXDzzI366mg7Tidvh++9BaFf5ABf/sxuHQtNQWGsE0eAh6Gc/Dv8aUIFre7/EkZC7iA0OxpM3tmL/ckeYPk3EuT3f4Gj4AxQx7WHbrxMKLx/EwTNRSC0ldO3vBHvdSHy96UfkDZwFd6cOilrh4eHh4eHh4eH5B/HHv7GQh4eHh4eHh4eH52+O9ts5eHh4eHh4eHh4eP7h8E00Dw8PDw8PDw8Pj5bwTTQPDw8PDw8PDw+PlvBNNA8PDw8PDw8PD4+W8E00Dw8PDw8PDw8Pj5bwTTTPC8DiWUYi0qWs4gGePxH2WQYS06Wot0pFVhzu5zS+q7MRFmWZdxARlYQCZYd5AEaCh4mPUaH49yZU5SbiQeGLx4BqO/2z0Nx/2wD2GTIS08GnsDZGg7h52bBlmbgTEYWkgiqgIgtx93OavLGYiwpkxd3Hi7lcW4zRGl5uTdY4NtkyZN6JQFRSgYY6//uifRNdk4GQ419g0TsjMXzEKEz+95c4cjkZzxTP4/mfhsn5Db4eQ9DzdTccSpUpHub5M2By8JuvB4b0fB1uh1IhAwA2E4fmDoPzohMoaJpXmccI+NQTuwKjcP5zV4gGzMbJx4qv+vwnwyDrN1/MHdwTAxf4I0uJalhpHE594gJb2zHYEVGjeFg7VNnpn4Q2/vvCMMj5zRceQ3ridbdD4FNYW6E+bl4+DB4HfArPXYGIOv85XEX9MXXxdAxzXoQTGjgRm3kIc4c5Y9GJgoZmUVvaYgxteak1WYvYZB4H4FPPXQiMOo/PXUUYMPsk/qdLC7WKKrqx1JqE+qPI9zGjeJCnBQwV3blN6TLFv/+9qY74hEQGr9HaqGrFQ38pmKI7dPt/TfmqqI6gT0QG9NraKKq3SnnmPYrPft7kJIYKfpxGXd85RGIiYkqu07bZnnT0wR+oI6aI7txOpz9wxlZQRb8tsyEDp+2UrGKhTPZeGmvQgdz/21S/raOlnf6BaOS/bUU1RXwiIoPX1tKfncL+t3KU+rh5mTAFP9K0ru/QIXlyo+vbZpPnget0Lz6bNPOicsq8F08v5nJtMYb2vNSarElsMgX047Su9I5c+VRyfRvN9jxKf2xp+WNjSfs70QAAIcw6mEGgY4aOnVo5xD+Jihjs3XQcD9v4w+GfjdDcHGY6in/9q1GBmL2bcPx/TfmqEJrDXMEoJtYOGNTdsMlfahB9PQIVJmYwBCDo5IKNJw9g/mvCJue8XCpi9mLT8YfyOxp/WYQwMTXh/LpOYGYKkzaKgZZ2+geikf+2FUKYm5uhjcz3Avyv5Sj1cfMyqYm+jogKE5jJkxtcNp7EAU8XOAzqDs28yATWDoPwYi7XFmNoz0utyZrEZk00rkdUwESufHRy2YiTB+bjjystf3wsvaCfa2YtRpKBOzfDEZ1aBMUvPVnpI8SE3UR8dhnEefka76Finz1GcsYzsIwE6dHhiEmXotk3BpXZSEwtBlOVh/uxqShtOMhAknEHN8OjkVpUvxoW4uRQBAcFISgoCFdiMlEJAJWZiLkShKDgUCSL67+vqERe4i2Eht9F1jPFL2pqUJQahdDQGKRL5BOyxdHYN282fGMzEX81GCFJxQ1f7/yhemHzEX8tGEFBwbiZKgULBnl3r8jljX4sl7cBLhllKE2PRVh4HHKeKxwCOK6tQHZiGsQsUFOYjMjIFBRp6+cyMR7GhOBG6G1kSFt+P1RTlIqo0FDEpEvqZC5G9L55mO0bi8z4qwi+EYLfrmiiAxnED2MQciMUtzM09Sv1VOYl4lZoOO5mPWv2FV9FdiLS5IpBcmQkUrRWDCArTUdsWDjilBmlKhcJKXVfK1ZnI/bKVUQ/KgNTkoLrQVcQmd64GUvVGiuzE5FazKAq7z5iU0sbdVKZh8RboQi/m4Xm5s5GYpoYLGpQmByJyJSiuoaZRXH0Psyb7YvYzHhcDQ5BUnHjharmb/N4aAojQcadmwiPTkVDSqhDR6cux5EMxQ+iEZ2ssMdPoNMyC2rrp/U0tVMDyvJVHSp13ARV9gEL6aMYhN2MR3aZGHn5mmpUERbPHicj4xkLRpKO6PAYpNfJzObH41pwEIKCbyJVygJMHu5eCUJQ0BVEP26ecTT233pUyaWJTmSlSI8NQ3hcDpTMxukPmqEqByrRuWKOCklCfTjIxA8RE3IDobcz0NyNlIyjIZxxpEqnrch5auMG4NCTJrVC2bXVyI69gqvRj1DGlCDlehCuRKbXbTWtQm5CisKWoJb1up6q3ASkNDtZ+5rQYgyOvMBpF7W0tiZrhqaxWZ0diytXo/GojEFJynUEXYlEY2lRtYZKZCemopipQt79WKQ2cS5VtUBlveSIJZW+/QKxVM8LNtHqkCL6Gw+4rQtAYnYaLqweiX6u2xBSJ1lNwj54eJ1GjqwKKUdnYegHPyCzRbAowOQgfP9CDLHuB/f9/tj69mC8Of4tDLMTYdy2WyhjixB9dAXG2oowfstB7PpgBJyHDcH8k2JAGo1vPNywLiAR2WkXsHpkP7huC0ExK4BRuwpc2zgDE90PINOis/wTq2EnCG/tgPfFCpi3E4DND8b2RavhF5aA2z+vxgjRKGy4LgYLgC0Oxc65HvjP9SwUJezHZJETvM7nojRPDKMO7cCy1aiQSlFWKftz9CLoiB7dCvHj4ilYdCQFMgjRsbsF0vbNwuRPApBX57tcMqIyEYfmuGLhkXjkpgfC28sPD5vkAuXXFqMw9gRWjrWFaIIPzhxZDNd33THnXXsMmOqHdA0SMgAwGacwb+j72Hu/BAWRPnAVjcDWqLpCzBYjdOdcePznOrKKErB/sghOXueRW5oHsVEHtGNZVFdIIX2mhy7qdMBk4NS8oXh/732UFETCx1WEEVujUMnlV+pg8xG8fRFW+4Uh4fbPWD1ChFEbrqO4MBYnVo6FrWgCfM4cwWLXd+E+513YD5gKP00Vg0okHpoD14VHEJ+bjkBvL/jVG4WVIO7Mp3jbtjdGbQ2XFzGqQUWZFBW1ANVWoEwqxdMqBqyqNRZE4+iKsbAVjceWg7vwwQhnDBsyHyfFLPKDt2PRaj+EJdzGz6tHQDRqA64XFyL2xEqMtRVhgs8ZHFnsinfd5+Bd+wGY6pcOhpUiT2yEDu1YsNUVkErLUClTrSMx+5Lioe40afQ38HBbh4DEbKRdWI2R/VyxLaTxgy4AgApxycsZDs4uGDHABnZT9uJOedMTGmmNn+bLlNgJUJ2vZMXcOpZPptw+YhZADRL2ecDrdA5kVSk4OmsoPvghs2WzqQYmJxz7Fw6BdT937PffircHv4nxbw2DnWgctt0qg6BjD3Qr/BGLpyzCkRQZIOyI7hZp2DdrMj4JyKtbp5b+q0oudX5Xt+bKxEOY47oQR+JzkR7oDS+/h80aIo38gQPlOVDe1CvTeY1UIUeVVUIGBhmn5mHo+3txv6QAkT6uEI3YCrkbKR9HE9upjiNVOi1ofc4Dd9wo15NmtUL5tWKwINRUlEEqT26oKJNC+rQS4rtn8Onbtug9aivC64JLeb3Oh0wShzOfvg3b3qOwtf5kLWuCx8GQFmNw5QXVdtGAVtXkunquFu1ik2oqUCatQC0ItRVlkEqfoophVayhGAXRR7FirC1E47fg4K4PMMJ5GIbMPwmxilqgrl6ySmNJhW+3YR5s5Z7oWrq9YQDpGUyiY08VjzUiubyERHYrKax+y0xFBK220yfLmT9RAVNNkWv6k/1n0fJ9SkwB+e/YT8m1zcdQSnUkremrR5bjNlPwk1qiihQ6PM2KhPqOtOV+LRGTRXvG6JPRgBV0tUhCydeD6b5YTJeXiMhuZVjDvqiKiNVkp29JM38qIIaIKsJWksjAjtZGVslPYAroxJyZdDCbIWIK6cyssbQuum43EJNFe0brk57DJoqrzqfTbrbk+l0WMUREtUn09eiO1HXeOSonhvK+dSFDq4V0uW7YP00vshTaMcSQ+q65VbenqZpurelLRsO+pN9lxC1jbQVFrB1IveafJ0nddOUXF5CVXt3+K85rZfTo6+Gkb+ZEK85nUDURSf87iywMRtDXjzTZuySjB1+8ScaOWymxlohqY2l9f0Oy3xRHtcRQ/mk3snX9jrLkyqekr0dTx67z6Fw5EZP3LbkYWtHCeuWr0YHswRf0prEjbZVPRLHr+5Oh/SaKq62TqYVfqXsmgKHCM7No7LrouvkYytozmvT1HGhTXC3JHn1Nw/XNyGnFecqQK4ZmWRjQiK8fabRfuCJiLQ3sNZ/ONxqFFljpNe5bY/LpOxcDMpvxM1U0XkU/TjEkc7eAur9xr5HJ2kNj9I1owIqrVCRJpuvB96k4/wzNGruOGs29h0br65HDpjiqlT2ir4frk5nTCjovF4r+O8uCDEZ8TY9kRMTk0bcuhmS18DLJrcI1f8XLiwfJZVoisqOVjYFIEavtSN9yJv1UwDTYX99qMu2LFZOMyinx8HSy0TMgp20JVEtE9PQYTTKs3xPdej9taScJd75So2OmkMM+1ZG0pr89fRYtH5kp8Kcd+5Pl8mhJdeQa6qtnSeM2B5NcxYdpmpWQ9B23kDzl7KAhhn1pza26hVTfojV9jWjYl7+TrBX+yymXGp1QRQStHdiL5jdORhcXWJFe/Z5otf6gBq4cWKFa5y1z1AP64k1jctyaSHI3Wk/9De1pU1yt3KdVjMON6rrCqdNW5Tw1ccOlJ3W1gvNa+Z8qfpxChuZuFNCQ8BjK/86FDMxm0M8Vcp9SXa+JmPzvyMXAjGb8LB+gNTWh+RhceUG1XdTzIjW56TjK0TY25Rf9SFMMzcmtXvmca2Aoa88Y0jcaQCuuFpEk+ToF3y+mfJW1QH29VIwlTt9udSw15yXeiS5F4OGfkGM7CA71W2aM34TbVBFKLp5GkFQXViJrZO2ejFHzvsDZZD24bfgY/XQVhlGGwAhGhkJ0dp4CFytdwNgOHlsXwZ4SERZWCFZgBCN9AcycXDCyszn6ubhiIC7h8E85sB3k0LAvyvhNN0wVleDi6SBIARgP98LHI3JxYvdZFLIAkxWAS3rTML27AKgMxbngXDy86AsfHx/47PLHc9ct2DbXEUaSIJwJNoCDUxf5rX3d17EmVIzc41Nh0nzlf65eFM9XhEvG8mAcOJ6BAWPGwrzudMOeNrCs3+vEdS2EaNfOBEJTe7i69oQ+ABNRH3QXlEFaSk0WoAohRJ4nEO7vBZucUBzddQzREhbVz6vAQoKgM8EwcHBCF7ny8fqaUIhzj2NqS+WrRSjyxIlwf3jZ5CD06C4ci5aArX6OKrZOv4p+1VFdCFUi9Fwwch9ehK+PD3x8dsH/uSu2bJsLRyNA2K4dTISmsHd1RU+5YtCnuwBl0lKo10w5gg8cR8aAMRjbaBTYNBgFgMAUpu1abDhQgHuNAiMj6AvM4OQyEp3N+8HFdSAMw88hOPchLvr6wMfHB7v8n8N1yzbMlQuFdiZCmNq7wlUuFER9ukNQJoVyc3PN//LioSTwMH7KscWgxkDEm25TISq5iNNB0oZhhJZvwGVwRwhhgv4f+eKTETpIDL+JkhYB9QJ+qmin0kDufKVGx5WhHPbRtYLIOgu7J4/CvC/OIlnPDRs+7gdNVKqIwMgIhsLOcJ7iArmKPbB1kT0oMQxhan/2T3v/5ZRLjU7Kgw/geMYAjGmcDD1tLFE/W6mG/qASrhyojc6FInieCIe/lw1yQo9i17FoSNhqPK9iX8B2quOIU6etynlyVMZNOYee1NUKLh0rLqABAUxN2zVuu1JTrwWmpmgaiq2pCc3H4MoLqu2ilheqyerQPjaVwrkGAYyM9CEwc4LLyM4w7+cC14GGCFdZC7Svl5y+3epYao6252sOU4jsJ5VgO9agCoApAEAXNtZWENRIIXkK9FhwEteEm/Hptp2YcXoPnJYewi+7p6FHKzah6/Z+HX1MgCfV1SDot9iuzRRm40kli441jauBrg2srQSokUrwlAU6Cnth7qrp+M/03TiY+B6mXQjBqzNPoSMA9lkxxM8NMHTqWqx3bK425uEulFRJUSpRZkYF/lS9cMMp44Mv8LsU6KarPIFyXQsAxfV75OrQEQqhAwKrblF1CHSfI37fIuzp+B5WLfVE3v8dgz8AMGIUlVRBWipRK59GCHTxPH4fFu3piPdWLYVn3v/hmH+T42pyRgvYZygWP4fB0KlYu96xZcAVK+yp1RFCqAOQJophcpAqNwrHviydxv2JqlC7RkWxWTwrFuO5wVBMXbseLc1djOZT6kAoF0q5jdTN3+dlxEMlCrKfoJLtiOYpwRpWghpIJU/BwkzxckDQGb16mkPnsQy1isdeyE+b20l9vtLh0LE6+wALTl6DcPOn2LZzBk7vccLSQ79g97QeDQ1l69FF79f7wARPUF2tXNIGtPZfdXJx+R2DnNTfIUU3KE9hDArV+kNHjnWqz4F9VOi8ZXQKoPs8HvsW7UHH91ZhqWce/q8+CQl6tNJ2AhV1ZQr01OhUyQK1p0ncVKvRE1etUKdjVejoNOZZRlzEXa91FGKrNTVBYQyVeUGlXdTnNyYn9YVqMidax6Zy1K2hWFF56mqBVvVSXb5omzyoWj+thsGj08dxvaor+vQ2A5N8B3cbniFhUVNdA0G3QXCwJOQkPUF3j324kZqMQO+ByD7ghZ3Xq5sPxwFRkzsdtZWoYi1g17+rUgUIu/ZBbzMGyXfuNj5AxtagukaAboMcYFmnifauK7Fk4AMc/nIbvrv3OmaPNQYACMy6wtI4FQFHbkDSMCqDjKBLSO7UA1ZGhQj6+QpKG8YWI8jPH2mKW1uFf6ZehNAVKnE4IjBqZEw0ewUddauQdDcezVdCYFnuaxO03mSkSDkur5oCb/F0fLvdHY4W9dFAgPBV9LAyQmHQz7jSqHyIg/zg30L5ANTooPzyKkzxFmP6t9vh7mjREMTKQlQjBGboammM1IAjuNGoGDAZQbj0oorR6YhXOuqiKuku4hXcg1h1dwGboPUaBTDragnj1AAcaX4Bgi4laL+njHP+6pcUD93RvU9vmDHJuNMYiGBrqlEj6IZBDpYqkmMlikueo4f9YLza4oS281NN85Vy1NiHyUHSk+7w2HcDqcmB8B6YjQNeO6GFShUgNFdxFVgLO/TvKgSEuhAq+bBMxLTCf9XI1fTUFuig4ysdoVuVhLstJwMLIbq2yh8a4cyB1VrovPwyVk3xhnj6t9ju7oimboRW245REUe1L6BTbWiMG0tzDj2pmZBTx2qurUf4qhb1uk1qAkdeUGkXtQaFTseXWJO1jk3laL0Gzlqg7AIu1OSLVsdSc9TlBRWwqKmqAdFzPK9srtDKpIPYEmUER5P2mLjcEwMkZ7HnaJr81yfYAlwLzcHw5Usx0oBBTsBX8LtXCRja4B3vjZhuYwwDQ+5PNo2wKM7KhPw5BRZ5Fy4gob8nlo6r+yqOAFltE6W3n4jlngMgObsHR9Pkj1yzBdcQmjMcy5eOhEH9ebr9sGjlRNT+8g2Sh81u/PRiMh7z3Xsi088NY2Ztww8BZ3HCZyE+izRBr04TMH9GdxScXIL3Vn6PgF/94bvMAwG6zrAVCmBoaAA8zUdeaTFiIrIw7s/Si9ACVl30kRt9FfcKi/Dg0gEcvyWGrDgHj0ueoYpDRlvLSZgz8RVkHFkF74vZqEE1su4loYiRIDerAGU6qq/tpcuCYWQgtkkxJZIXL00Cki3Do4xClGen4XF5FXLCAhGVz6CyLB/xMTmYMH8GuhecxJL3VuL7gF/h77sMHgG6cLYVQmBoCAM8RX5eKYpjIpBQzaWDMhQ+ykBheTbSHpejKicMgVH5YCrLkB8fg6RyJX6lFhOMn++Onpl+cBszC9t+CMDZEz5Y+FkkTHrpgmUYyIht0tQTCASWZdVvvxF0xqQ5E/FKxhGs8r6I7BqgOusekooYSHKzUFBWCYAFw5JC4qtBTS2hpqa6bg7uNQIAQYamYpuMnw/3npnwcxuDWdt+QMDZE/BZ+BkiTXpBl2XAyAhskzvPcnOzYFkAAkPIQyIPpcUxiEjQ4Zhf56XFQ/uJy+E5QIKze45CnhJYFFwLRc7w5Vg6siEjgCrLIK1LrFWJR3Dq0b+wccUw6AMAw4Cps9eL+GkLO6nLV2p0zGkfJgcBX/lBrtJ34L1xOmyMDWCoU4nb++dh4ofbcCVfrfc1whYjK7P+ibE8XLiQgP6eSyFPOVboop+L6Kv3UFj0AJcOHMctsQzFOY9RUmGqtf9yysWpEwE6T5qDia9k4Mgqb1yUT4Z7SUVgJLnIKiiDnob+oBKO/NlLR5XO0SJHxRc8QkZhObLTHqO8KgdhgVHIZypRlh+PmIQ0leNwo7qucOoUrcl5clTGDZee1NUKzmvlp9fU1IJqalDdxIVZhgVRXU5tz1WvAbAMWJI3ogCLstbUhKZjcOaFBJV2UYeg84vUZMXRFGhtbampQS3VoKZe+WrtRYCstsmHNe5apK5eKsbSo+Ecvq0yDzYsRjMUN0mrpfoRhZzwoekiPdLR0SfLQWPJdcIEmjDBlVxGDKSuxuY09XhR3cm1lHlhA012dKAxMxfRvz+aQ567w6iQIfkDXd7O1Nv+LfL4dAttW7eYFvvcIE2e36DaONo4SJ8sh86ghctW0SfLZtM0t88pMEtGxIjp3pn19JalkIRWrrThzB0qqR+zNpMubJhMjg5jaOaif9NHczxpd1ih/OGCplSF0UrHSXQoV+FIRQqd8hpHth0MSN+sBw1ffJyS6nfUV6SQv9c4EnU2pfZWTuTue5OK6i6XpR+jD0UdqJNoKvlGP/tz9FLH04gdNL6HGZlZOdD0r0Lo8lpH6jN6Hm05dVuuJw4ZGUksfecxlKw7mJON0yT6eMsCGtpzGLl/foyi8hmV10oTzpK3iwUJ9UQ00/cyJafdpKPLnclcYEwOCw9ThKKeW8BQ7rnlNKSLKXXoPYoWHgihHz2sybzXRPoqSkpEFZTi70XjRJ3JtL0VObn70s1G5dOxD0XUoZOIpvpG0zM1OijKOUfLh3Qh0w69adTCAxTyowdZm/eiiV8GU5gqv1JLBaWc8qJxth3IQN+MegxfTMfliqGz3i5kIdQj0UxfupycRjePLidncwEZOyykwxG5igO1hJFQ7HceNNS6A5nbONGkj7fQgqE9aZj753Qs6hGlBG6mCV2FpGszlXZeSiOqzaAb3y+nEZ0EJLAYS2v9fqGoJzKVa2TE9+jM+rfIUigkK9cNdOZOSUO8VKScIq9xttTBQJ/MegynxceTqIKklHDWm1wshKQnmkm+l5Mp7eZRWu5sTgJjB1p4OIJyGRmlH/uQRB06kWiqL0U/I5Xzv+x4qM28QBsmO5LDmJm06N8f0RzP3RQmD0QiIqr4/QLtmD2a3hg1hTyWLadFS7dT4KO6B8+ep9LFTa7URSgk66k76XyStJV+Wt7STvLFqchXmuhYlX3kD/d5O/cm+7c86NMt22jd4sXkc6OAGCaXjk3rQuavWNDwbYkNOuCiNm4jDdK3pKEzFtKyVZ/QstnTyO3zQGpU8VOK2DGeepiZkZXDdPoq5DKtdexDo+dtoVO3S7T33xfyO4Yksd+Rx1Br6mBuQ06TPqYtC4ZSz2Hu9PmxKMpn1PuDWlTkQJU6JyU5ismlc8uHUBfTDtR71EI6EPIjeVibU6+JX1FUEcc4nHDHkVKdctVSNXDGDanWk0a1QsW1RLWUceN7Wj6iEwkEFjR2rR/9EvWEylICafOEriTUtaGpOy9RWhVHvS5PocDNE6irUJdspu6kS2lVxORqWRNajFHJkReKOO2ijtbWZI3QMjZrM27Q98tHUCeBgCzGriW/X6JIXlqUrYEh8b0ztP4tSxIKrch1wxm60+BcKmqBJvVSMZZU+TapiUkt0CEizb+V+Ksgi8cmp2E4PykSd7c7tNw384Kw2QfhsbMz9vq9jw6KB//KvGS98PD8reDjoVXURHhj6d2F+GFFL8VDLZDFb4LTsPOYFHkX2x14DfPw8PyzaOV2jr8KWnzlqBYG5aUSVLHliDxwDZaz3/17NdDNaEu98PD83eHjQVNYcSQOXeyE2XPVN9DN4FXMw8PzD+Tv2UTLSlH6lEGZWNLiTX+tRZawE2MsLWDR5TUsL52LVcP/4Pd1tgUvQS88PH9b+HjQDlaCxHgWE7esxhgN7yDISkvxlCmDWMJrmIeH55+HcMuWLVsU//iXpjod105cRVG3wXi9XSmyqSsG9uqg9Bc5tEHQyQbWnTqh3/sb8J/Pxil58v4vzkvSCw/P3xI+HrRHxwhdevWAuYa7MqrTr+HE1SJ0G/w62pVmg7oORK8OvIZ5eHj+Ofw990Tz8PDw8PDw8PDw/In83e638vDw8PDw8PDw8Pzp8E00Dw8PDw8PDw8Pj5bwTfRLpQq5iQ9Q2IZPrldkxeF+TpXin/8iVCAr7j7+ssvj4eHh4eHh4Wkj+Cb6pcBCGncKn7jYwnbMDkS01YPrbCYOzR0G50UnUNCGjXlbwWYewtxhzlh0ooD/xSseHh4eHh6e/2n+GQ8WssW4e+8p7J16/4FP57PI2fcW+myxhH+eP95vo1/Mq8iKQ7rADoO6t9GAL0ILvVYgKy4dArtB+Cssj4eHh4eHh4fnZfGPuBNdEbMXm44/bPJ+9j8CAcxMTaDta9jVYWLt8NdooJXq1QTWDnwDzcPDw8PDw/O/TyubaBbPHicj4xkLRpKO6PAYpEuZZmdUZicitZhBVd59xKaWouEoI0HGnZsIj05FUf02B1aM5NBgBAUFISjoCmIyK+VjZMbgSlAQgkOTIa7fH1CZh8RboQi/m4VninsGaoqQGhWK0Jh0SBgAYFEcvQ/zZvsiNjMeV4NDkFTceBEjycCdm+GITi1q8TIGVvoIMWE3EZ9dBnFePioUjjcgE+NhTAhuhN5GhoIOBDrqWuhK5CTI90wz0gzciYxDdv1ENYVIiYzA/TyFDcZVuUhIabpdgoX0UQzCbsYju0yMvPz6AVoxNlTYpwWq9VqVm4AUxb0mqmxWmYOEB4VgwUCacQeRcdkNeq4pTEFkxH00WyL7DI+TM/CMZSBJj0Z4TDoUVA6AgSTjDm6GRyNVtQA8PDw8PDw8PC+E1k00kxOO/QuHwLqfO/b7b8Xbg9/E+LeGwU40DttulYEtisbRFWNhKxqPLQd34YMRzhg2ZD5OigFp9DfwcFuHgMRspF1YjZH9XLEtpBiswAjtKq5h44yJcD+QCYvO8luZhp2EuLXDGxcrzNFOwCI/eDsWrfZDWMJt/Lx6BESjNuC6mJU3daE7MdfjP7ieVYSE/ZMhcvLC+dxS5ImN0KEdC7a6AlJpGSplACBF9DcecFsXgMTsNFxYPRL9XLchpK4RrEnYBw+v08iRVSHl6CwM/eAHZCq5jc1knMK8oe9j7/0SFET6wFU0Aluj5B8AuGFReucUVr8lQp/RWxBwdjNmzfTAR+8Pg93Q1Qi+cxJLJ07D/CXTMdRuJDZHVQKsBHFnPsXbtr0xams45L1lDRL2ecDrdA5kVSk4OmsoPvghA0Xajl2HSvs0WTkAgJW20Gt5SRzOfPo2bHuPwtbw+s5Xhc2KS3Dn1Gq8JeqD0VsCcHbzLMz0+AjvD7PD0NXBuHNyKSZOm48l04fCbuRmRFUyyAnfj4VDrNHPfT/8t76NwW+Ox1vD7CAatw23yuqmk0bjGw83rAtIRHbaBawe2Q+u20LQ5HMTDw8PDw8PD0/bQK2gOnIN9dWzpHGbg+lJLVFFymGaZiUkfcctdL+WiMnaQ2P0jWjAiqtUJEmm68H3SSy+TEtEdrQy7HndKBUUsdqO9C1n0k8FDBFVUNhKERnYraXIKvkZTMEJmjPzIGUzREzhGZo1dh1FV9cdy9pDo/X1yGFTHFXnnyY3W1f6LoshIqLapK9pdMeuNO9cORGTR9+6GJLVwstUNyxJLi8hkd1KalxKBK220yfLmT9RAVNNkWv6k/1n0fRcvgjy37Gfkmvrzm1ARg++eJOMHbdSYi0R1cbS+v6GZL8pjupPfXpsEhl2cKf/1s/TDIbyvnUhA+OhtD4sn2REVH1vI9nrtadhn12lJ7VEVBtHG+0NqJdXiHztTD5952JAZjN+pgoioupIWtPfnj6Llk/AFPjTjv3JVNuasSXq7KOAEr0y+d+Ri4EZzfi5Qv5vDpvVMnn0rYsBGQ9dT2H5MiKqpnsb7Umv/TD67OoTki9xI9kb9CKvkCoiqqbINX1Jz3IcbQ5+QrVUQSmHp5GVUJ8ct9ynWpLQ5SUislsZJrcbEVVErCY7fUua+VMBKZGAh4eHh4eHh6fVaH0nGgAERkYwFHaG8xQXWOkCxnYe2LrIHpQYhrBCFgIjI+gLzODkMhKdzfvBxXUgcOkwfsqxxSCH+g2zxnjTbSpEJRdxOkgKwBjDvT7GiNwT2H1W/hV/VsAl6E2bju4CoDL0HIJzH+Kirw98fHywy/85XLdsw1xHI0iCziDYwAFOXeTi6L6+BqHiXByfatJs3XJKEXj4J+TYDkLjUt6E21QRSi6eRpBUF1Yia2TtnoxR877A2WQ9uG34GP1avApXCJHnCYT7e8EmJxRHdx1DtIRF9fOqlndulSJAOxNj6Oj3xGCnLhAC0BfZwloX6D54OKx0AejawLqrDsokEhAACExh2q7JFhFdK4iss7B78ijM++IskvXcsOHjftBtxdilgersox6BqSmaLo/LZhC0g4mxDvR7DoZTFyEAfYhsraGL7hg83AryJVqjq04ZJBICIICRkSGEnZ0xxcUKujCGncdWLLInJIaFobAkEId/yoHtIAc0mtUNU0UluHg6CJpJwMPDw8PDw8OjGa1qoluii96v94EJalFdLf+xj+a7gRkUZj9BJVuDmiZ7XHVtrGElqIFU8hQsAGGvuVg13RCXdh9EYlUyToW8ipkTO8r3YBeL8dzADlPXrsf69fX/rcPKybYoKypBlbQUEk1+Z4QpRPaTSrA1NXVbIgBAFzbWVhDUSCF5CvRYcBLXDrrBNGwnZgzuC+cV55DdYu8tINB9jvh9i+B5NA+DPvLEOEuBvNnVEB3FPdM6Aug0G0EHAgHQ+PspOs2vEfTAgpPXcNDNFGE7Z2BwX2esOJcNRuuxNbOPWnR00Dgtl836QhdNz627XKCD5ksUQABSrVPd3ni9jwlQW43Kgmw8qWRR01wAWFsJUCOV4KlGAvDw8PDw8PDwaMYLNNEEatKY1FZWgbWwQ/+uyn5EToiufXrDjEnGnbuNe3DZmmrUCLphkINl3ULaw3XlEgx8cBhfbvsO916fjbHGkP/SRVdLGKcG4MgNSeOwTAaCLiWjUw8rGBUG4ecrpY1ji4Pg55/W+EBjPcKu6NPbDEzyHTQuhUVNdQ0E3QbBwZKQk/QE3T324UZqMgK9ByL7gBd2Xq9uPg7KcXnVFHiLp+Pb7e5wtKi/Va2y5Wt7mBwkPekOj303kJocCO+B2TjgtRMtlqoWTe2jDVw2S2j9L6UQNWnoa1FZxcLCrj+6d++D3mYMku/cRaNZa1BdI0C3QQ6w1F4AHh4eHh4eHh6VtL61YIuRlVle9/95uHAhAf09l2Jc3XfpBBlqm3RK7Scuh+cACc7uOYq0GgBgUXAtFDnDl2PpSIOG83T7LcLKibX45ZtkDJvtiPrW1GT8fLj3zISf2xjM2vYDAs6egM/CzxBp0gudJszHjO4FOLnkPaz8PgC/+vtimUcAdJ1tIRQYwtAAeJqfh9LiGEQk6GHick8MkJzFnqNp8l/lYAtwLTQHw5cvxUgDBjkBX8HvXiVgaIN3vDdiuo0xDAwVbpuyZXiUUYjy7DQ8Lq9CTlggovIZVJblIz4mCQDAMAxALFgVd0EZlpUfb/gLyT+cNPTh8v9n2fqPAiwYlkD1AzI5CPjKD/KlvgPvjdNhY2wAQx3tx9bUPg200GslwDJgiRrk5bKZLhjIl9hEOSRvkhuXSCCwaBAfAFuchUa3u4ALCf3huXQcDNtPxHLPAZCc3YOjcgHAFlxDaM5wLF86EgZgIb62FW4f7kBIk56eh4eHh4eHh6c1CLds2bJF8Y/qYAtCcOiHODxjMhEfFYbL/qdxv483/D4fBXNpHH7evRcnb6YiS8Kiq90g9OtqDB297hj1rwGouLYXXx4Jwd3YYAQ/eQNb9y+Ho2mTBlXHBH1ezcPlgvHwWeaEhkP6PTH6rV54Gn8Nv54+g/O3CtBtvi92TO0GPcM+cHm7N8puX8SZH3/C1XRTTNzui38Pagcd6KN97QNc+MEPxxNt8MGCUejZexT+NaAC1/Z+iSMhdxEbHIwnb2zF/uWOMNVhkHPjG2zZfRZxjx8jMSwKkmHrsNndttl+X+i0Q/f2JQg59T32HL2O4r6z8a7BDfxfSB56vDcfjhU38LWvH0JT81Fj1AsD7PvCokkvWvEgEL57fkBoaiEY097o1/05bh38DsduPEChzAQ2dt1QEX4A358IxYP8Ghj37QfT1CPYeygUaYW1MBINxshelbjxzRbsPhuHx48TERYlwbB1mzGlNgS7tRrbCUPsBmKsJvZpQEGvMzsjft9uHApNQ2GtEUSDh6CPZR8VNuuA9EBf7PkhFKmFDEx790P357dw8LtjuPGgEDITG9h1q0D4ge9xIvQB8muM0dfJCe3uH8EPcc/AZMYjKuwy/E/fRx9vP3w+qiME0EP3Uf/CgIpr2PvlEYTcjUVw8BO8sXU/ljuaQgcs8q98jU0/5mHgLDc4dWj950ceHh4eHh4enla9sVAWvwlOw85jUuRdbHdo8cTdC8Ii+6AHdnbeC7/3Oyge5PnHIkP8JicMOz8JkXe3o83djoeHh4eHh4dHC17sdpyKbQqtgilHqaQKbHkkDlyzxOx3+QaaRzlt6XY8PDw8PDw8PK2hVU20rLQUT5kyiCVt9UY4GRJ2joGlhQW6vLYcpXNXYTj/6mieZshQWvoUTJkYbeZ2PDw8PDw8PDytROvtHNXp13D8l3Bklsmga26DMTPmw6WXvuJpWiPLuoKD/kl45e25mOHUuXXdPc//KNVIv3Ycv4RnokymC3ObMZgx3wVt4HY8PDw8PDw8PK1C6yaah4eHh4eHh4eH558Of8OXh4eHh4eHh4eHR0v4JpqHh4eHh4eHh4dHS/gmmoeHh4eHh4eHh0dL+Caah4eHh4eHh4eHR0v4JpqHh4eHh4eHh4dHS/gmmoeHh4eHh4eHh0dL+Caah4eHh4eHh4eHR0v4JpqHh4eHh4eHh4dHS/gmmoeHh4eHh4eHh0dL+Caah4eHh4eHh4eHR0v+H83K9p9gxp8oAAAAAElFTkSuQmCC;" parent="1" vertex="1">
          <mxGeometry x="1343.5" y="-190" width="721" height="309" as="geometry" />
        </mxCell>
        <mxCell id="vLlzIB-tp__e5FBe9is8-2" value="Sede" style="whiteSpace=wrap;html=1;align=center;fillColor=#f0a30a;strokeColor=#BD7000;fontColor=#000000;" parent="1" vertex="1">
          <mxGeometry x="1330" y="210" width="100" height="40" as="geometry" />
        </mxCell>
        <mxCell id="vLlzIB-tp__e5FBe9is8-3" value="" style="endArrow=none;html=1;rounded=0;exitX=0;exitY=0;exitDx=0;exitDy=0;" parent="1" source="vLlzIB-tp__e5FBe9is8-2" target="vLlzIB-tp__e5FBe9is8-4" edge="1">
          <mxGeometry relative="1" as="geometry">
            <mxPoint x="1320" y="155" as="sourcePoint" />
            <mxPoint x="1380" y="155" as="targetPoint" />
          </mxGeometry>
        </mxCell>
        <mxCell id="vLlzIB-tp__e5FBe9is8-4" value="&lt;u&gt;Identiicador_Sede&lt;/u&gt;" style="ellipse;whiteSpace=wrap;html=1;align=center;" parent="1" vertex="1">
          <mxGeometry x="1150" y="190" width="125" height="30" as="geometry" />
        </mxCell>
        <mxCell id="vLlzIB-tp__e5FBe9is8-5" value="Gestiona" style="shape=rhombus;perimeter=rhombusPerimeter;whiteSpace=wrap;html=1;align=center;fillColor=#76608a;fontColor=#ffffff;strokeColor=#432D57;" parent="1" vertex="1">
          <mxGeometry x="1500" y="210" width="90" height="40" as="geometry" />
        </mxCell>
        <mxCell id="vLlzIB-tp__e5FBe9is8-6" value="" style="endArrow=none;html=1;rounded=0;exitX=0;exitY=0.5;exitDx=0;exitDy=0;" parent="1" source="vLlzIB-tp__e5FBe9is8-5" edge="1">
          <mxGeometry relative="1" as="geometry">
            <mxPoint x="1477" y="200" as="sourcePoint" />
            <mxPoint x="1430" y="230" as="targetPoint" />
          </mxGeometry>
        </mxCell>
        <mxCell id="vLlzIB-tp__e5FBe9is8-7" value="(1,N)" style="resizable=0;html=1;whiteSpace=wrap;align=right;verticalAlign=bottom;" parent="vLlzIB-tp__e5FBe9is8-6" connectable="0" vertex="1">
          <mxGeometry x="1" relative="1" as="geometry">
            <mxPoint x="34" as="offset" />
          </mxGeometry>
        </mxCell>
        <mxCell id="vLlzIB-tp__e5FBe9is8-8" value="" style="endArrow=none;html=1;rounded=0;exitX=1;exitY=0.5;exitDx=0;exitDy=0;" parent="1" source="vLlzIB-tp__e5FBe9is8-5" edge="1">
          <mxGeometry relative="1" as="geometry">
            <mxPoint x="1477" y="200" as="sourcePoint" />
            <mxPoint x="1650" y="230" as="targetPoint" />
          </mxGeometry>
        </mxCell>
        <mxCell id="vLlzIB-tp__e5FBe9is8-9" value="(1,1)" style="resizable=0;html=1;whiteSpace=wrap;align=right;verticalAlign=bottom;" parent="vLlzIB-tp__e5FBe9is8-8" connectable="0" vertex="1">
          <mxGeometry x="1" relative="1" as="geometry">
            <mxPoint as="offset" />
          </mxGeometry>
        </mxCell>
        <mxCell id="vLlzIB-tp__e5FBe9is8-10" value="Proyecto" style="whiteSpace=wrap;html=1;align=center;fillColor=#f0a30a;strokeColor=#BD7000;fontColor=#000000;" parent="1" vertex="1">
          <mxGeometry x="1654" y="210" width="100" height="40" as="geometry" />
        </mxCell>
        <mxCell id="vLlzIB-tp__e5FBe9is8-11" value="" style="endArrow=none;html=1;rounded=0;exitX=0.5;exitY=0;exitDx=0;exitDy=0;" parent="1" source="vLlzIB-tp__e5FBe9is8-10" target="vLlzIB-tp__e5FBe9is8-12" edge="1">
          <mxGeometry relative="1" as="geometry">
            <mxPoint x="1650" y="145" as="sourcePoint" />
            <mxPoint x="1710" y="145" as="targetPoint" />
          </mxGeometry>
        </mxCell>
        <mxCell id="vLlzIB-tp__e5FBe9is8-12" value="&lt;u&gt;CÃ³digo_Proyecto&lt;/u&gt;" style="ellipse;whiteSpace=wrap;html=1;align=center;" parent="1" vertex="1">
          <mxGeometry x="1649" y="130" width="105" height="30" as="geometry" />
        </mxCell>
        <mxCell id="vLlzIB-tp__e5FBe9is8-16" value="" style="endArrow=none;html=1;rounded=0;exitX=1;exitY=0;exitDx=0;exitDy=0;" parent="1" source="vLlzIB-tp__e5FBe9is8-10" target="vLlzIB-tp__e5FBe9is8-17" edge="1">
          <mxGeometry relative="1" as="geometry">
            <mxPoint x="1460" y="155" as="sourcePoint" />
            <mxPoint x="1520" y="155" as="targetPoint" />
          </mxGeometry>
        </mxCell>
        <mxCell id="vLlzIB-tp__e5FBe9is8-17" value="Fecha_Final" style="ellipse;whiteSpace=wrap;html=1;align=center;" parent="1" vertex="1">
          <mxGeometry x="1739" y="170" width="75" height="30" as="geometry" />
        </mxCell>
        <mxCell id="vLlzIB-tp__e5FBe9is8-18" value="" style="endArrow=none;html=1;rounded=0;exitX=0;exitY=0;exitDx=0;exitDy=0;" parent="1" target="vLlzIB-tp__e5FBe9is8-19" edge="1" source="vLlzIB-tp__e5FBe9is8-10">
          <mxGeometry relative="1" as="geometry">
            <mxPoint x="1550" y="210" as="sourcePoint" />
            <mxPoint x="1624" y="165" as="targetPoint" />
          </mxGeometry>
        </mxCell>
        <mxCell id="vLlzIB-tp__e5FBe9is8-19" value="Fecha_Inicio" style="ellipse;whiteSpace=wrap;html=1;align=center;" parent="1" vertex="1">
          <mxGeometry x="1563.25" y="150" width="76.5" height="30" as="geometry" />
        </mxCell>
        <mxCell id="vLlzIB-tp__e5FBe9is8-20" value="PoblaciÃ³n" style="whiteSpace=wrap;html=1;align=center;fillColor=#f0a30a;strokeColor=#BD7000;fontColor=#000000;" parent="1" vertex="1">
          <mxGeometry x="1980" y="210" width="100" height="40" as="geometry" />
        </mxCell>
        <mxCell id="vLlzIB-tp__e5FBe9is8-21" value="ActuaciÃ³n" style="shape=rhombus;perimeter=rhombusPerimeter;whiteSpace=wrap;html=1;align=center;fillColor=#76608a;fontColor=#ffffff;strokeColor=#432D57;" parent="1" vertex="1">
          <mxGeometry x="1824" y="210" width="90" height="40" as="geometry" />
        </mxCell>
        <mxCell id="vLlzIB-tp__e5FBe9is8-22" value="" style="endArrow=none;html=1;rounded=0;exitX=0;exitY=0.5;exitDx=0;exitDy=0;" parent="1" source="vLlzIB-tp__e5FBe9is8-21" edge="1">
          <mxGeometry relative="1" as="geometry">
            <mxPoint x="1801" y="200" as="sourcePoint" />
            <mxPoint x="1754" y="230" as="targetPoint" />
          </mxGeometry>
        </mxCell>
        <mxCell id="vLlzIB-tp__e5FBe9is8-23" value="(1,M)" style="resizable=0;html=1;whiteSpace=wrap;align=right;verticalAlign=bottom;" parent="vLlzIB-tp__e5FBe9is8-22" connectable="0" vertex="1">
          <mxGeometry x="1" relative="1" as="geometry">
            <mxPoint x="34" as="offset" />
          </mxGeometry>
        </mxCell>
        <mxCell id="vLlzIB-tp__e5FBe9is8-24" value="" style="endArrow=none;html=1;rounded=0;exitX=1;exitY=0.5;exitDx=0;exitDy=0;" parent="1" source="vLlzIB-tp__e5FBe9is8-21" edge="1">
          <mxGeometry relative="1" as="geometry">
            <mxPoint x="1801" y="200" as="sourcePoint" />
            <mxPoint x="1974" y="230" as="targetPoint" />
          </mxGeometry>
        </mxCell>
        <mxCell id="vLlzIB-tp__e5FBe9is8-25" value="(1,N)" style="resizable=0;html=1;whiteSpace=wrap;align=right;verticalAlign=bottom;" parent="vLlzIB-tp__e5FBe9is8-24" connectable="0" vertex="1">
          <mxGeometry x="1" relative="1" as="geometry">
            <mxPoint as="offset" />
          </mxGeometry>
        </mxCell>
        <mxCell id="vLlzIB-tp__e5FBe9is8-26" value="" style="endArrow=none;html=1;rounded=0;exitX=0.5;exitY=0;exitDx=0;exitDy=0;" parent="1" source="vLlzIB-tp__e5FBe9is8-20" target="vLlzIB-tp__e5FBe9is8-27" edge="1">
          <mxGeometry relative="1" as="geometry">
            <mxPoint x="2020" y="145" as="sourcePoint" />
            <mxPoint x="2080" y="145" as="targetPoint" />
          </mxGeometry>
        </mxCell>
        <mxCell id="vLlzIB-tp__e5FBe9is8-27" value="&lt;u&gt;Identificador_PoblaciÃ³n&lt;/u&gt;" style="ellipse;whiteSpace=wrap;html=1;align=center;" parent="1" vertex="1">
          <mxGeometry x="1972.5" y="140" width="137.5" height="30" as="geometry" />
        </mxCell>
        <mxCell id="vLlzIB-tp__e5FBe9is8-28" value="" style="endArrow=none;html=1;rounded=0;exitX=0.5;exitY=0;exitDx=0;exitDy=0;" parent="1" source="vLlzIB-tp__e5FBe9is8-21" target="vLlzIB-tp__e5FBe9is8-29" edge="1">
          <mxGeometry relative="1" as="geometry">
            <mxPoint x="1870" y="200" as="sourcePoint" />
            <mxPoint x="1920" y="155" as="targetPoint" />
          </mxGeometry>
        </mxCell>
        <mxCell id="vLlzIB-tp__e5FBe9is8-29" value="InversiÃ³n" style="ellipse;whiteSpace=wrap;html=1;align=center;" parent="1" vertex="1">
          <mxGeometry x="1895" y="140" width="50" height="30" as="geometry" />
        </mxCell>
        <mxCell id="vLlzIB-tp__e5FBe9is8-30" value="" style="endArrow=none;html=1;rounded=0;exitX=0.5;exitY=0;exitDx=0;exitDy=0;" parent="1" source="vLlzIB-tp__e5FBe9is8-21" target="vLlzIB-tp__e5FBe9is8-31" edge="1">
          <mxGeometry relative="1" as="geometry">
            <mxPoint x="1790" y="145" as="sourcePoint" />
            <mxPoint x="1850" y="145" as="targetPoint" />
          </mxGeometry>
        </mxCell>
        <mxCell id="vLlzIB-tp__e5FBe9is8-31" value="DescripciÃ³n" style="ellipse;whiteSpace=wrap;html=1;align=center;" parent="1" vertex="1">
          <mxGeometry x="1800" y="140" width="75" height="30" as="geometry" />
        </mxCell>
        <mxCell id="YVywVn5LHDsO3u2Q0wn3-1" value="" style="endArrow=none;html=1;rounded=0;exitX=0;exitY=0.25;exitDx=0;exitDy=0;" parent="1" source="vLlzIB-tp__e5FBe9is8-2" target="YVywVn5LHDsO3u2Q0wn3-2" edge="1">
          <mxGeometry relative="1" as="geometry">
            <mxPoint x="1156" y="230" as="sourcePoint" />
            <mxPoint x="1216" y="230" as="targetPoint" />
          </mxGeometry>
        </mxCell>
        <mxCell id="YVywVn5LHDsO3u2Q0wn3-2" value="Ciudad" style="ellipse;whiteSpace=wrap;html=1;align=center;" parent="1" vertex="1">
          <mxGeometry x="1191" y="220" width="50" height="30" as="geometry" />
        </mxCell>
        <mxCell id="YVywVn5LHDsO3u2Q0wn3-5" value="" style="endArrow=none;html=1;rounded=0;exitX=0;exitY=0.5;exitDx=0;exitDy=0;" parent="1" source="vLlzIB-tp__e5FBe9is8-2" target="YVywVn5LHDsO3u2Q0wn3-6" edge="1">
          <mxGeometry relative="1" as="geometry">
            <mxPoint x="1150" y="265" as="sourcePoint" />
            <mxPoint x="1210" y="265" as="targetPoint" />
          </mxGeometry>
        </mxCell>
        <mxCell id="YVywVn5LHDsO3u2Q0wn3-6" value="PaÃ­s" style="ellipse;whiteSpace=wrap;html=1;align=center;" parent="1" vertex="1">
          <mxGeometry x="1185" y="250" width="50" height="30" as="geometry" />
        </mxCell>
        <mxCell id="YVywVn5LHDsO3u2Q0wn3-8" value="" style="endArrow=none;html=1;rounded=0;exitX=0;exitY=1;exitDx=0;exitDy=0;" parent="1" source="vLlzIB-tp__e5FBe9is8-2" target="YVywVn5LHDsO3u2Q0wn3-9" edge="1">
          <mxGeometry relative="1" as="geometry">
            <mxPoint x="1156" y="295" as="sourcePoint" />
            <mxPoint x="1216" y="295" as="targetPoint" />
          </mxGeometry>
        </mxCell>
        <mxCell id="YVywVn5LHDsO3u2Q0wn3-9" value="DirecciÃ³n" style="ellipse;whiteSpace=wrap;html=1;align=center;" parent="1" vertex="1">
          <mxGeometry x="1180" y="280" width="61" height="30" as="geometry" />
        </mxCell>
        <mxCell id="YVywVn5LHDsO3u2Q0wn3-10" value="" style="endArrow=none;html=1;rounded=0;exitX=0.25;exitY=1;exitDx=0;exitDy=0;" parent="1" source="vLlzIB-tp__e5FBe9is8-2" target="YVywVn5LHDsO3u2Q0wn3-11" edge="1">
          <mxGeometry relative="1" as="geometry">
            <mxPoint x="1160" y="325" as="sourcePoint" />
            <mxPoint x="1220" y="325" as="targetPoint" />
          </mxGeometry>
        </mxCell>
        <mxCell id="YVywVn5LHDsO3u2Q0wn3-11" value="TelÃ©fono" style="ellipse;whiteSpace=wrap;html=1;align=center;" parent="1" vertex="1">
          <mxGeometry x="1195" y="310" width="50" height="30" as="geometry" />
        </mxCell>
        <mxCell id="YVywVn5LHDsO3u2Q0wn3-12" value="" style="endArrow=none;html=1;rounded=0;exitX=0.41;exitY=0.925;exitDx=0;exitDy=0;exitPerimeter=0;" parent="1" source="vLlzIB-tp__e5FBe9is8-2" target="YVywVn5LHDsO3u2Q0wn3-13" edge="1">
          <mxGeometry relative="1" as="geometry">
            <mxPoint x="1180" y="355" as="sourcePoint" />
            <mxPoint x="1240" y="355" as="targetPoint" />
          </mxGeometry>
        </mxCell>
        <mxCell id="YVywVn5LHDsO3u2Q0wn3-13" value="Nombre_Director" style="ellipse;whiteSpace=wrap;html=1;align=center;" parent="1" vertex="1">
          <mxGeometry x="1170" y="340" width="95" height="30" as="geometry" />
        </mxCell>
        <mxCell id="YVywVn5LHDsO3u2Q0wn3-14" value="" style="endArrow=none;html=1;rounded=0;exitX=0;exitY=1;exitDx=0;exitDy=0;" parent="1" source="vLlzIB-tp__e5FBe9is8-10" target="YVywVn5LHDsO3u2Q0wn3-15" edge="1">
          <mxGeometry relative="1" as="geometry">
            <mxPoint x="1580" y="345" as="sourcePoint" />
            <mxPoint x="1640" y="345" as="targetPoint" />
          </mxGeometry>
        </mxCell>
        <mxCell id="YVywVn5LHDsO3u2Q0wn3-15" value="TÃ­tulo" style="ellipse;whiteSpace=wrap;html=1;align=center;" parent="1" vertex="1">
          <mxGeometry x="1576.5" y="280" width="50" height="30" as="geometry" />
        </mxCell>
        <mxCell id="YVywVn5LHDsO3u2Q0wn3-16" value="" style="endArrow=none;html=1;rounded=0;exitX=0.25;exitY=1;exitDx=0;exitDy=0;" parent="1" source="vLlzIB-tp__e5FBe9is8-10" target="YVywVn5LHDsO3u2Q0wn3-17" edge="1">
          <mxGeometry relative="1" as="geometry">
            <mxPoint x="1577" y="315" as="sourcePoint" />
            <mxPoint x="1637" y="315" as="targetPoint" />
          </mxGeometry>
        </mxCell>
        <mxCell id="YVywVn5LHDsO3u2Q0wn3-17" value="Fecha_Inicio" style="ellipse;whiteSpace=wrap;html=1;align=center;" parent="1" vertex="1">
          <mxGeometry x="1612" y="300" width="78" height="30" as="geometry" />
        </mxCell>
        <mxCell id="YVywVn5LHDsO3u2Q0wn3-18" value="" style="endArrow=none;html=1;rounded=0;exitX=0.5;exitY=1;exitDx=0;exitDy=0;" parent="1" source="vLlzIB-tp__e5FBe9is8-10" target="YVywVn5LHDsO3u2Q0wn3-19" edge="1">
          <mxGeometry relative="1" as="geometry">
            <mxPoint x="1715" y="325" as="sourcePoint" />
            <mxPoint x="1775" y="325" as="targetPoint" />
          </mxGeometry>
        </mxCell>
        <mxCell id="YVywVn5LHDsO3u2Q0wn3-19" value="Fecha_Final" style="ellipse;whiteSpace=wrap;html=1;align=center;" parent="1" vertex="1">
          <mxGeometry x="1649" y="330" width="90" height="30" as="geometry" />
        </mxCell>
        <mxCell id="YVywVn5LHDsO3u2Q0wn3-20" value="" style="endArrow=none;html=1;rounded=0;exitX=0.58;exitY=1;exitDx=0;exitDy=0;exitPerimeter=0;" parent="1" source="vLlzIB-tp__e5FBe9is8-10" target="YVywVn5LHDsO3u2Q0wn3-21" edge="1">
          <mxGeometry relative="1" as="geometry">
            <mxPoint x="1730" y="315" as="sourcePoint" />
            <mxPoint x="1790" y="315" as="targetPoint" />
          </mxGeometry>
        </mxCell>
        <mxCell id="YVywVn5LHDsO3u2Q0wn3-21" value="Presupuesto_Asignado" style="ellipse;whiteSpace=wrap;html=1;align=center;" parent="1" vertex="1">
          <mxGeometry x="1684" y="360" width="140" height="30" as="geometry" />
        </mxCell>
        <mxCell id="YVywVn5LHDsO3u2Q0wn3-23" value="Nombre_Responsable" style="ellipse;whiteSpace=wrap;html=1;align=center;" parent="1" vertex="1">
          <mxGeometry x="1730" y="390" width="145" height="30" as="geometry" />
        </mxCell>
        <mxCell id="YVywVn5LHDsO3u2Q0wn3-24" value="" style="endArrow=none;html=1;rounded=0;exitX=0.9;exitY=-0.025;exitDx=0;exitDy=0;exitPerimeter=0;" parent="1" source="vLlzIB-tp__e5FBe9is8-20" target="YVywVn5LHDsO3u2Q0wn3-25" edge="1">
          <mxGeometry relative="1" as="geometry">
            <mxPoint x="2068" y="175" as="sourcePoint" />
            <mxPoint x="2128" y="175" as="targetPoint" />
          </mxGeometry>
        </mxCell>
        <mxCell id="YVywVn5LHDsO3u2Q0wn3-25" value="Nombre" style="ellipse;whiteSpace=wrap;html=1;align=center;" parent="1" vertex="1">
          <mxGeometry x="2103" y="160" width="50" height="30" as="geometry" />
        </mxCell>
        <mxCell id="YVywVn5LHDsO3u2Q0wn3-26" value="" style="endArrow=none;html=1;rounded=0;exitX=1;exitY=0.25;exitDx=0;exitDy=0;" parent="1" source="vLlzIB-tp__e5FBe9is8-20" target="YVywVn5LHDsO3u2Q0wn3-27" edge="1">
          <mxGeometry relative="1" as="geometry">
            <mxPoint x="2130" y="230" as="sourcePoint" />
            <mxPoint x="2190" y="230" as="targetPoint" />
          </mxGeometry>
        </mxCell>
        <mxCell id="YVywVn5LHDsO3u2Q0wn3-27" value="PaÃ­s" style="ellipse;whiteSpace=wrap;html=1;align=center;" parent="1" vertex="1">
          <mxGeometry x="2140" y="190" width="50" height="30" as="geometry" />
        </mxCell>
        <mxCell id="YVywVn5LHDsO3u2Q0wn3-28" value="" style="endArrow=none;html=1;rounded=0;exitX=1;exitY=0.25;exitDx=0;exitDy=0;" parent="1" source="vLlzIB-tp__e5FBe9is8-20" target="YVywVn5LHDsO3u2Q0wn3-29" edge="1">
          <mxGeometry relative="1" as="geometry">
            <mxPoint x="2110" y="255" as="sourcePoint" />
            <mxPoint x="2170" y="255" as="targetPoint" />
          </mxGeometry>
        </mxCell>
        <mxCell id="YVywVn5LHDsO3u2Q0wn3-29" value="NÃºmero_Habitantes" style="ellipse;whiteSpace=wrap;html=1;align=center;" parent="1" vertex="1">
          <mxGeometry x="2130" y="220" width="125" height="30" as="geometry" />
        </mxCell>
      </root>
    </mxGraphModel>
  </diagram>
</mxfile>
